<?xml version="1.0" encoding="utf-8" ?>
<svg baseProfile="full" height="200mm" version="1.1" viewBox="0,0,200,200" width="200mm" xmlns="http://www.w3.org/2000/svg" xmlns:ev="http://www.w3.org/2001/xml-events" xmlns:xlink="http://www.w3.org/1999/xlink"><defs /><rect fill="#1a1a1a" height="200" width="200" x="0" y="0" /><text alignment-baseline="middle" fill="#e1ed5e" style="dominant-baseline: central; font-size:9.0px; font-family:Arial;" text-anchor="middle" x="100.0" y="100.0">2024</text><line stroke="#e1ed5e" stroke-width="0.3" x1="100.0" x2="100.0" y1="15.0" y2="10.0" /><path d="M 100.0 14.0 a86.0,86.0 0 0,1 42.35913384403234,11.155469271406648" fill="none" id="id49" stroke="none" /><text fill="#e1ed5e" style="font-size:6.75px; font-family:Arial;" text-anchor="middle"><textPath startOffset="22.145653131862478" xlink:href="#id49">January</textPath></text><path d="M 100.0 79.0 l 0.0 -31.77317073170731 a52.77317073170731,52.77317073170731 0 0,0 0.9059216509819593,0.007776247820323828 l -0.5454287261331046 31.76848888208142" fill="#ffbe11" stroke="none" /><path d="M 100.72087961077811 79.0123766808444 l 1.8029063660643536 -52.48965170456607 a73.52060555088309,73.52060555088309 0 0,0 1.2609632468788214,0.05415118741189331 l -2.7036953735440115 52.45096794872835" fill="#39ff89" stroke="none" /><path d="M 101.08105385017728 79.02784411241856 l 1.9786285860015063 -38.38486597355319 a59.435828427249795,59.435828427249795 0 0,0 1.0184913592967517,0.06126991103813907 l -2.63726429743072 38.34524408469036" fill="#c3ff1e" stroke="none" /><path d="M 101.44090949804482 79.04949213459386 l 2.5165623748022394 -36.59026462010293 a57.67670311185871,57.67670311185871 0 0,0 0.9871807322640854,0.07641403204453558 l -3.144312101841558 36.54167282106334" fill="#e3ff1b" stroke="none" /><path d="M 101.80034050326958 79.07731436759882 l 4.351378076216206 -50.5696091328573 a71.75647603027755,71.75647603027755 0 0,0 1.2263538370104508,0.11613698340016661 l -5.21883147661167 50.487460393951956" fill="#36ff6a" stroke="none" /><path d="M 102.51750503828377 79.15144685158666 l 4.502360496418185 -37.28600367246236 a58.55685449957948,58.55685449957948 0 0,0 0.9969225792339833,0.1290715869671968 l -5.14176089754296 37.203220489294765" fill="#d3ff1c" stroke="none" /><path d="M 102.87502721639298 79.19773525538626 l 4.815731037988444 -34.84423083715116 a56.17544154751893,56.17544154751893 0 0,0 0.9541128419715784,0.14022173108963382 l -5.4131689855677045 34.75642803276264" fill="#ffff18" stroke="none" /><path d="M 103.94208987418118 79.37332000966035 l 11.039288349932246 -57.76222140608459 a79.807653490328,79.807653490328 0 0,0 1.3434421900170732,0.2687260632963127 l -12.029227025480274 57.56420594612542" fill="#45ffef" stroke="none" /><path d="M 104.29559338865022 79.4440306129975 l 8.354489586232534 -39.97925702939742 a61.842851135407905,61.842851135407905 0 0,0 1.0373036396818438,0.22607550031041715 l -9.03955564253351 39.82995007095328" fill="#9aff23" stroke="none" /><path d="M 104.64783097203109 79.52079915486377 l 11.11153445390868 -48.95947101961978 a71.20454163162321,71.20454163162321 0 0,0 1.189684960296492,0.28076241128576873 l -11.950351567945058 48.76151246468778" fill="#34ff60" stroke="none" /><path d="M 104.9986988182912 79.60360301121754 l 8.46611695288551 -34.544646237267024 a56.56694701429773,56.56694701429773 0 0,0 0.9411519935807241,0.2392371564219786 l -9.057874239691628 34.394223849009784" fill="#f8ff18" stroke="none" /><path d="M 105.69591212413111 79.78721728523813 l 11.3805665581935 -40.38561585897732 a62.95849453322119,62.95849453322119 0 0,0 1.0377358342000955,0.30206977721155304 l -12.0721624047752 40.18430238746325" fill="#87ff25" stroke="none" /><path d="M 106.04205211174951 79.88797359093562 l 6.564527854353693 -21.851178230167807 a43.815937762825904,43.815937762825904 0 0,0 0.7184965999115605,0.22259208328523195 l -6.938665087136884 21.73526955907593" fill="#ff0000" stroke="none" /><path d="M 106.38641147887787 79.99465700312896 l 13.987709279312405 -43.81630009257213 a66.9948275862069,66.9948275862069 0 0,0 1.0925811973088402,0.35915314097550477 l -14.737813214268987 43.5697260301946" fill="#46ff2c" stroke="none" /><path d="M 106.72888874123014 80.10723608172694 l 20.186666223690402 -59.67829175481916 a84.0,84.0 0 0,0 1.3619769118199267,0.4737662697256382 l -21.208148907555344 59.32296705252493" fill="#4dd2ff" stroke="none" /><path d="M 107.40779381753099 80.34994680014964 l 14.126311838022865 -37.4717204571635 a61.04600504625736,61.04600504625736 0 0,0 0.9773981028815197,0.37807858309724357 l -14.76748220339791 37.223701985928216" fill="#a7ff21" stroke="none" /><path d="M 107.74402155503746 80.48000691201159 l 14.014573127062897 -35.32587927695306 a59.00428931875526,59.00428931875526 0 0,0 0.9382961518393766,0.38159687647472545 l -14.618923740092713 35.080095143899044" fill="#cbff1d" stroke="none" /><path d="M 108.07796709384702 80.6158196554323 l 15.50802098737175 -37.21360487288061 a61.31564339781328,61.31564339781328 0 0,0 0.968100794955842,0.41322466253498696 l -16.144556857498024 36.941905560686216" fill="#a3ff22" stroke="none" /><path d="M 108.73861861582097 80.90454125486305 l 21.003062830713848 -45.895482734457005 a71.47300252312868,71.47300252312868 0 0,0 1.111273427490091,0.5201320755501566 l -21.78782497207544 45.52817442733632" fill="#35ff65" stroke="none" /><path d="M 109.06512990194946 81.05736502329252 l 20.17861828468705 -42.16555136390733 a67.74516400336418,67.74516400336418 0 0,0 1.044694144026183,0.5110122561343641 l -20.8994726779753 41.81294535767575" fill="#3bff2e" stroke="none" /><path d="M 109.71004243097381 81.37971332152246 l 25.496143232582632 -48.892216440974074 a76.14074852817492,76.14074852817492 0 0,0 1.1537541788594436,0.6143091147800883 l -26.331686227228637 48.44733685847142" fill="#3effb5" stroke="none" /><line stroke="#e1ed5e" stroke-width="0.3" x1="143.13028292997686" x2="145.6673583964461" y1="26.7553504044142" y2="22.446841604673864" /><path d="M 143.63769802327073 25.89364864446614 a86.0,86.0 0 0,1 29.32050498858742,28.57503671076993" fill="none" id="id50" stroke="none" /><text fill="#e1ed5e" style="font-size:6.75px; font-family:Arial;" text-anchor="middle"><textPath startOffset="20.669276256404974" xlink:href="#id50">February</textPath></text><path d="M 110.65571695917076 81.90426304109057 l 22.52846197810214 -38.25825363103998 a65.39848612279226,65.39848612279226 0 0,0 0.9625014205375378,0.5779544481207667 l -23.181896155197112 37.86588518238329" fill="#5fff29" stroke="none" /><path d="M 110.96478420261332 82.08984904055464 l 18.664263661961716 -30.486672017945704 a56.74621530698066,56.74621530698066 0 0,0 0.8264299141093799,0.515753388896427 l -19.184857704860807 30.161782832207734" fill="#f4ff19" stroke="none" /><line stroke="#e1ed5e" stroke-width="0.3" x1="172.87174338648825" x2="177.1583165268699" y1="56.24261187166439" y2="53.66864786411523" /><path d="M 173.72905801456457 55.72781907015455 a86.0,86.0 0 0,1 12.242430191666344,42.057860355516425" fill="none" id="id51" stroke="none" /><text fill="#e1ed5e" style="font-size:6.75px; font-family:Arial;" text-anchor="middle"><textPath startOffset="22.145653131862474" xlink:href="#id51">March</textPath></text><line stroke="#e1ed5e" stroke-width="0.3" x1="184.99686870605535" x2="189.99668451229388" y1="99.2704041080226" y2="99.22748670261217" /><path d="M 185.99683186730306 99.26182062694052 a86.0,86.0 0 0,1 -10.086455211305974,41.156179273409016" fill="none" id="id52" stroke="none" /><text fill="#e1ed5e" style="font-size:6.75px; font-family:Arial;" text-anchor="middle"><textPath startOffset="21.40746469413373" xlink:href="#id52">April</textPath></text><line stroke="#e1ed5e" stroke-width="0.3" x1="174.33088141563837" x2="178.70328620479359" y1="141.23008692659167" y2="143.65538615756765" /><path d="M 175.20536237346943 141.71514677278685 a86.0,86.0 0 0,1 -30.301960400862466,31.631185727798858" fill="none" id="id53" stroke="none" /><text fill="#e1ed5e" style="font-size:6.75px; font-family:Arial;" text-anchor="middle"><textPath startOffset="22.145653131862474" xlink:href="#id53">May</textPath></text><line stroke="#e1ed5e" stroke-width="0.3" x1="143.1302829299769" x2="145.66735839644613" y1="173.24464959558577" y2="177.55315839532614" /><path d="M 143.63769802327073 174.10635135553383 a86.0,86.0 0 0,1 -40.68552437913181,11.842963189579606" fill="none" id="id54" stroke="none" /><text fill="#e1ed5e" style="font-size:6.75px; font-family:Arial;" text-anchor="middle"><textPath startOffset="21.407464694133747" xlink:href="#id54">June</textPath></text><line stroke="#e1ed5e" stroke-width="0.3" x1="101.45913802915013" x2="101.54496967792366" y1="184.9874750549273" y2="189.98673829345242" /><path d="M 101.47630435890484 185.9873277026323 a86.0,86.0 0 0,1 -42.54439059252881,-10.42667462771756" fill="none" id="id55" stroke="none" /><text fill="#e1ed5e" style="font-size:6.75px; font-family:Arial;" text-anchor="middle"><textPath startOffset="22.145653131862474" xlink:href="#id55">July</textPath></text><line stroke="#e1ed5e" stroke-width="0.3" x1="58.13341422392154" x2="55.67067388415222" y1="173.97424548756322" y2="178.32567169271397" /><path d="M 57.64086615596768 174.84453072859336 a86.0,86.0 0 0,1 -31.369924170532247,-30.572349798747897" fill="none" id="id56" stroke="none" /><text fill="#e1ed5e" style="font-size:6.75px; font-family:Arial;" text-anchor="middle"><textPath startOffset="22.145653131862474" xlink:href="#id56">August</textPath></text><line stroke="#e1ed5e" stroke-width="0.3" x1="26.387840678322732" x2="22.057713659400548" y1="142.50000000000003" y2="145.00000000000006" /><path d="M 25.521815274538298 143.00000000000003 a86.0,86.0 0 0,1 -11.493303480769221,-40.785679425670985" fill="none" id="id57" stroke="none" /><text fill="#e1ed5e" style="font-size:6.75px; font-family:Arial;" text-anchor="middle"><textPath startOffset="21.40746469413373" xlink:href="#id57">September</textPath></text><line stroke="#e1ed5e" stroke-width="0.3" x1="15.003131293944662" x2="10.003315487706104" y1="100.72959589197737" y2="100.7725132973878" /><path d="M 14.003168132696942 100.73817937305945 a86.0,86.0 0 0,1 10.791469493833604,-42.45332614584628" fill="none" id="id58" stroke="none" /><text fill="#e1ed5e" style="font-size:6.75px; font-family:Arial;" text-anchor="middle"><textPath startOffset="22.145653131862435" xlink:href="#id58">October</textPath></text><line stroke="#e1ed5e" stroke-width="0.3" x1="26.387840678322718" x2="22.05771365940052" y1="57.49999999999999" y2="54.99999999999999" /><path d="M 25.521815274538284 56.99999999999999 a86.0,86.0 0 0,1 29.574782752854787,-30.34633250058573" fill="none" id="id59" stroke="none" /><text fill="#e1ed5e" style="font-size:6.75px; font-family:Arial;" text-anchor="middle"><textPath startOffset="21.40746469413373" xlink:href="#id59">November</textPath></text><line stroke="#e1ed5e" stroke-width="0.3" x1="56.869717070023135" x2="54.33264160355391" y1="26.7553504044142" y2="22.446841604673864" /><path d="M 56.362301976729285 25.89364864446614 a86.0,86.0 0 0,1 42.16139366436587,-11.88097634709845" fill="none" id="id60" stroke="none" /><text fill="#e1ed5e" style="font-size:6.75px; font-family:Arial;" text-anchor="middle"><textPath startOffset="22.145653131862474" xlink:href="#id60">December</textPath></text></svg>