<?xml version="1.0" encoding="utf-8" ?>
<svg baseProfile="full" height="200mm" version="1.1" viewBox="0,0,200,200" width="200mm" xmlns="http://www.w3.org/2000/svg" xmlns:ev="http://www.w3.org/2001/xml-events" xmlns:xlink="http://www.w3.org/1999/xlink"><defs /><rect fill="#1a1a1a" height="200" width="200" x="0" y="0" /><text alignment-baseline="middle" fill="#e1ed5e" style="dominant-baseline: central; font-size:9.0px; font-family:Arial;" text-anchor="middle" x="100.0" y="100.0">2023</text><line stroke="#e1ed5e" stroke-width="0.3" x1="100.0" x2="100.0" y1="15.0" y2="10.0" /><path d="M 100.0 14.0 a86.0,86.0 0 0,1 42.46469731375804,11.215312516191453" fill="none" id="id37" stroke="none" /><text fill="#e1ed5e" style="font-size:6.75px; font-family:Arial;" text-anchor="middle"><textPath startOffset="22.20632615414155" xlink:href="#id37">January</textPath></text><path d="M 100.0 79.0 l 0.0 -15.763577010584626 a36.763577010584626,36.763577010584626 0 0,0 0.6328245446456494,0.005446920645604076 l -0.271344065373121 15.761241466547581" fill="#ff2e04" stroke="none" /><path d="M 100.36148047927253 79.00311137660856 l 0.38580632812426974 -22.409875404966414 a43.413196161835984,43.413196161835984 0 0,0 0.7470653701879962,0.01929449445442523 l -0.7714983335071337 22.39991411836963" fill="#ff9f0e" stroke="none" /><path d="M 101.80526077348638 79.07773832637324 l 2.8878866011709188 -33.469468810742185 a54.59382728261944,54.59382728261944 0 0,0 0.9355688883328491,0.0888435390579013 l -3.463580616594012 33.41479972716911" fill="#b5ff20" stroke="none" /><path d="M 102.16513564639614 79.11191278185805 l 4.4777794390166425 -43.199255262120296 a64.43070531209813,64.43070531209813 0 0,0 1.1021740316408792,0.12384209462569216 l -5.220720174167247 43.11577721402401" fill="#34ff2f" stroke="none" /><path d="M 102.52436894288641 79.15227682838746 l 1.7901354934497231 -14.783991584227477 a35.89197744584034,35.89197744584034 0 0,0 0.6127021561458257,0.07954632453735216 l -2.0443523781033948 14.750986936525988" fill="#ff1e03" stroke="none" /><path d="M 103.2404852339499 79.25152402106235 l 4.280913487632504 -27.41022539941817 a48.742506677218316,48.742506677218316 0 0,0 0.8278585024449826,0.13660374626879027 l -4.752101196216362 27.332475390209755" fill="#fff316" stroke="none" /><path d="M 104.66035177308747 79.52364482259891 l 10.911847206531256 -47.94377547479441 a70.16984864971806,70.16984864971806 0 0,0 1.1754328878283604,0.27818698783550366 l -11.735503781322139 47.748842574818035" fill="#38ff7d" stroke="none" /><path d="M 105.01212808612495 79.60689891045804 l 7.486991608831619 -30.46270448636919 a52.369274903551286,52.369274903551286 0 0,0 0.8735472145106861,0.22268663531885866 l -8.01024771202733 30.329314854881464" fill="#d5ff1c" stroke="none" /><path d="M 105.36241919743992 79.69619591428918 l 5.80444385974462 -21.9774483522336 a43.731031753882675,43.731031753882675 0 0,0 0.7261477656668484,0.19848361474751205 l -6.18188951463518 21.874278196659795" fill="#ffa40f" stroke="none" /><path d="M 106.0581310904928 79.89281104454417 l 10.286486227491483 -34.14127544853784 a56.65723612622415,56.65723612622415 0 0,0 0.931376507264538,0.2893832145156183 l -10.87264810746674 33.9591520991397" fill="#98ff23" stroke="none" /><path d="M 106.40334571778207 80.00007090966166 l 6.147801884041038 -19.201774691130908 a41.16193490948659,41.16193490948659 0 0,0 0.6729333011507738,0.2218555292708819 l -6.4774180074342285 19.09310543760079" fill="#ff7a0b" stroke="none" /><path d="M 109.08828744355905 81.06846463323043 l 10.707439257373462 -22.30434130163473 a45.741319616183596,45.741319616183596 0 0,0 0.7068748809671878,0.34686043416669643 l -11.089785405351082 22.116725707333202" fill="#ffc512" stroke="none" /><path d="M 109.41281617654863 81.2277094730956 l 15.02834191329207 -29.97151917582821 a54.52824216045108,54.52824216045108 0 0,0 0.8354233354926568,0.42793628045773247 l -15.542025736373482 29.708390370057977" fill="#b6ff1f" stroke="none" /><path d="M 109.73455568895987 81.39251694778311 l 13.782423941403145 -26.34493325658191 a50.73231773667028,50.73231773667028 0 0,0 0.7702976576874733,0.41146633163939667 l -14.23386664561893 26.10378819844076" fill="#edff1a" stroke="none" /><path d="M 110.05341064243156 81.56283822128135 l 10.753823491903562 -19.72166367333989 a43.46305272529429,43.46305272529429 0 0,0 0.6537586367291668,0.3638159735303236 l -11.091706217704763 19.533632302249387" fill="#ffa00e" stroke="none" /><line stroke="#e1ed5e" stroke-width="0.3" x1="143.23703022742887" x2="145.7803849466894" y1="26.81831364943548" y2="22.513508569990506" /><path d="M 143.74570117128098 25.957352633546492 a86.0,86.0 0 0,1 28.547481713284135,27.462654790039103" fill="none" id="id38" stroke="none" /><text fill="#e1ed5e" style="font-size:6.75px; font-family:Arial;" text-anchor="middle"><textPath startOffset="19.985693538727396" xlink:href="#id38">February</textPath></text><path d="M 110.68208982089419 81.91981866633111 l 10.718923051767645 -18.14252414340582 a42.07241072311801,42.07241072311801 0 0,0 0.6203435393118654,0.3737500413641622 l -11.029628657297149 17.955327492583045" fill="#ff890c" stroke="none" /><path d="M 110.99172775467656 82.1063720568725 l 12.471882267265237 -20.303197642971508 a44.82787614996538,44.82787614996538 0 0,0 0.6540191758179809,0.4095467478973851 l -12.819520595455481 20.085506553751177" fill="#ffb610" stroke="none" /><path d="M 111.2981086023043 82.29822771554956 l 16.00955224863638 -25.083618706194123 a50.75724601839945,50.75724601839945 0 0,0 0.7324342487597423,0.4763956093774307 l -16.438953523180402 24.804324172657164" fill="#ecff1a" stroke="none" /><path d="M 111.60114157652 82.49532879139004 l 7.294670865385273 -11.006745692340639 a34.20457018498368,34.20457018498368 0 0,0 0.48797755510776536,0.329484623493632 l -7.48305311489958 10.879549156548338" fill="#ff0000" stroke="none" /><path d="M 112.19680574252982 82.90503203632743 l 17.28336134740521 -24.22425303604007 a50.757839548916806,50.757839548916806 0 0,0 0.7068746622782675,0.513574504114585 l -17.69778132603727 23.92315929710881" fill="#ecff1a" stroke="none" /><path d="M 112.77801427241765 83.33499621200491 l 19.04847405520954 -24.84289698837 a52.30517360767632,52.30517360767632 0 0,0 0.7097748416629488,0.5539905221799178 l -19.47328145203192 24.51132807696686" fill="#d6ff1c" stroke="none" /><path d="M 113.06298171725822 83.55741782278167 l 22.20575824610306 -27.950739936090777 a56.69789296666337,56.69789296666337 0 0,0 0.758932620070634,0.6136707318711224 l -22.683594264738186 27.564363106955522" fill="#98ff23" stroke="none" /><path d="M 113.6212207817346 84.01681056812373 l 22.886376581901814 -26.854956554871343 a56.284202196062914,56.284202196062914 0 0,0 0.7319792694268665,0.6347652094034816 l -23.345249649975443 26.45702635204819" fill="#9dff22" stroke="none" /><path d="M 113.89432698308785 84.25364557470407 l 41.68298094926353 -47.23906327588782 a84.0,84.0 0 0,0 1.0759560496160399,0.9660039649228103 l -42.48994798647556 46.51456030219571" fill="#4dd2ff" stroke="none" /><path d="M 114.16331599549186 84.49514656593476 l 9.208967524731571 -10.081233222183082 a34.65416955188446,34.65416955188446 0 0,0 0.4369595662369367,0.40610629524336167 l -9.381134974763354 9.92122234086508" fill="#ff0801" stroke="none" /><path d="M 114.42810811169701 84.74124197986012 l 20.405039010419305 -21.5797906586993 a50.69937679295677,50.69937679295677 0 0,0 0.6289541520463302,0.6050533959488481 l -20.773476406078053 21.225354175988148" fill="#edff1a" stroke="none" /><path d="M 114.94478906791727 85.2469230424477 l 25.432730861125172 -25.10647918346198 a56.73736274606785,56.73736274606785 0 0,0 0.6801343707821514,0.7009382545900518 l -25.861129495610435 24.66497673332181" fill="#97ff23" stroke="none" /><path d="M 115.19652480421416 85.50635884689758 l 22.69997401721025 -21.650033927425124 a52.368978138292604,52.368978138292604 0 0,0 0.6165391767047791,0.657681006757729 l -23.06928051588549 21.25608350378934" fill="#d5ff1c" stroke="none" /><path d="M 115.4437574822437 85.77008943001954 l 29.61077455959888 -27.283429850241934 a61.263923236719755,61.263923236719755 0 0,0 0.7079085987714797,0.7816903558195889 l -30.076026798986398 26.769686707152797" fill="#5bff2a" stroke="none" /><path d="M 115.68641384162765 86.03803664274999 l 17.732255783664904 -15.782900285080384 a44.73884657236126,44.73884657236126 0 0,0 0.5070575951602037,0.5796544850363128 l -18.001305242402957 15.475330243841125" fill="#ffb510" stroke="none" /><path d="M 116.15771136456269 86.58626213691792 l 22.875572761857875 -18.99074253600065 a50.73113067563557,50.73113067563557 0 0,0 0.5520066599072133,0.6766948950440764 l -23.199077913841496 18.594163471348473" fill="#edff1a" stroke="none" /><path d="M 116.60985879189232 87.15038557335679 l 26.527937072810573 -20.52237572821864 a54.53951924028094,54.53951924028094 0 0,0 0.5680526222123485,0.7474906644515305 l -26.877265635247035 20.062700287886077" fill="#b6ff1f" stroke="none" /><path d="M 116.82858285166822 87.43820079747576 l 30.7534307483618 -22.956087583534124 a59.376496191512516,59.376496191512516 0 0,0 0.6043322463842141,0.8243085049058295 l -31.14402560725964 22.4233166349568" fill="#74ff27" stroke="none" /><path d="M 117.2510076193507 88.02491185347247 l 36.382090571296565 -25.2552634118321 a65.2886536749431,65.2886536749431 0 0,0 0.6329129789355027,0.9287216992282308 l -36.8114280159008 24.625263689333465" fill="#30ff36" stroke="none" /><path d="M 117.45458315368197 88.32363383020206 l 24.721262346303398 -16.537462326860908 a50.742704520724104,50.742704520724104 0 0,0 0.479405871807157,0.7301680329086306 l -25.00226485346848 16.109476229974604" fill="#edff1a" stroke="none" /><path d="M 117.65298651832404 88.62581576622439 l 30.17569778334715 -19.44282604046934 a56.89702245523791,56.89702245523791 0 0,0 0.5233778378155306,0.8278580499645511 l -30.505903217408637 18.92052034279058" fill="#95ff23" stroke="none" /><line stroke="#e1ed5e" stroke-width="0.3" x1="172.23445277983987" x2="176.4835382374775" y1="55.19839476539836" y2="52.563006222186495" /><path d="M 173.08426987136738 54.67131705675599 a86.0,86.0 0 0,1 12.851231095245387,41.99856678651699" fill="none" id="id39" stroke="none" /><text fill="#e1ed5e" style="font-size:6.75px; font-family:Arial;" text-anchor="middle"><textPath startOffset="22.20632615414155" xlink:href="#id39">March</textPath></text><path d="M 117.84615892207809 88.93136811851018 l 24.51977447534787 -15.207774326665733 a49.85300227520031,49.85300227520031 0 0,0 0.4460281683576701,0.7331530335696451 l -24.777918441991766 14.783453519889006" fill="#faff18" stroke="none" /><path d="M 118.3937258080291 89.86733742301442 l 39.03406315257863 -21.502929589239415 a65.56494213077455,65.56494213077455 0 0,0 0.536046168526859,0.9932121389764881 l -39.39841742032396 20.827836466930467" fill="#30ff3b" stroke="none" /><path d="M 118.56541770881063 90.18545643968196 l 32.51092896319669 -17.186789626837914 a57.77426055989712,57.77426055989712 0 0,0 0.45721605291449696,0.8831958852840619 l -32.80195444927131 16.62462101929351" fill="#89ff24" stroke="none" /><path d="M 118.73160827565052 90.50648371742162 l 35.42310371012078 -17.953066650910188 a60.712830151350275,60.712830151350275 0 0,0 0.4644242023368972,0.9362508523622208 l -35.72688792541108 17.340656210049016" fill="#62ff29" stroke="none" /><path d="M 118.89224826269711 90.83032412892265 l 32.23533410802696 -15.645970837157119 a56.83173409832822,56.83173409832822 0 0,0 0.41958546198618374,0.8837539905766284 l -32.4998777638549 15.08877443093995" fill="#96ff23" stroke="none" /><path d="M 119.196687751892 91.48605970444005 l 36.14770783550875 -16.031902498520008 a60.543377188643774,60.543377188643774 0 0,0 0.4143164647384206,0.9562995239566238 l -36.41831501008985 15.40730382997678" fill="#65ff29" stroke="none" /><path d="M 119.34039704204932 91.81776055985345 l 31.30874188994073 -13.24562376647552 a54.995350677614,54.995350677614 0 0,0 0.36134122455234285,0.8750164365823335 l -31.532104801379273 12.704732759439883" fill="#afff20" stroke="none" /><path d="M 119.61058180528143 92.48833698450437 l 43.731738762305454 -16.75106266228456 a67.83015135028194,67.83015135028194 0 0,0 0.40825809009123454,1.0939287082923344 l -44.01360144089831 15.995810816962894" fill="#34ff5c" stroke="none" /><path d="M 119.7369772167798 92.82701384747503 l 35.92529819895833 -13.056288390877624 a59.22425561380947,59.22425561380947 0 0,0 0.33996674074176536,0.9611317564906269 l -36.144718020509906 12.435959007960381" fill="#76ff27" stroke="none" /><path d="M 119.97218684219823 93.5106431181261 l 38.491399420110916 -12.506613807161909 a61.47225244831338,61.47225244831338 0 0,0 0.3183223978176448,1.0091689905213899 l -38.70097730169677 11.842194650214099" fill="#59ff2a" stroke="none" /><path d="M 120.08093135843002 93.85539295169968 l 41.05490980340213 -12.562479480784468 a63.93392026906716,63.93392026906716 0 0,0 0.312953808485272,1.0551246645404317 l -41.26506950899911 11.853925429497506" fill="#3aff2e" stroke="none" /><path d="M 120.18372546131832 94.20196356495316 l 38.16433495153277 -10.963199286097792 a60.70778514195272,60.70778514195272 0 0,0 0.27987222530265726,1.006849302829192 l -38.34739394740179 10.30463867984965" fill="#62ff29" stroke="none" /><path d="M 120.28053869075195 94.5502522615342 l 27.549238749749602 -7.402978977149424 a49.52656049065189,49.52656049065189 0 0,0 0.21415206487612062,0.8252152640928656 l -27.672587146496024 6.927667287507708" fill="#ffff18" stroke="none" /><path d="M 120.45610955862082 95.25157060432595 l 41.280505984357 -9.582348369942693 a63.378078939558804,63.378078939558804 0 0,0 0.23753383588434415,1.0648176105648581 l -41.43933420724338 8.870352589827872" fill="#41ff2d" stroke="none" /><path d="M 120.53481517161879 95.60439243477599 l 36.27392700213881 -7.764664381852128 a58.095657335047974,58.095657335047974 0 0,0 0.2009022638072504,0.9796707873109113 l -36.40220856186106 7.139117938377805" fill="#85ff25" stroke="none" /><path d="M 120.6074358757038 95.95851677861258 l 35.09551488332449 -6.882852160861796 a56.76407161934909,56.76407161934909 0 0,0 0.1797914824614241,0.9604532885161855 l -35.20879208969578 6.277720794883047" fill="#97ff23" stroke="none" /><path d="M 120.73433829027371 96.67025291283417 l 45.24617455601777 -7.2661261634748815 a66.8258977149075,66.8258977149075 0 0,0 0.17261481507913753,1.1373159599287557 l -45.36454526453621 6.486211091154044" fill="#32ff4d" stroke="none" /><path d="M 120.78858239683441 97.02765380044208 l 42.016068487702015 -6.007446737147557 a63.44336729646849,63.44336729646849 0 0,0 0.14526718727892549,1.0824092771418659 l -42.11325167403877 5.283319117941026" fill="#40ff2d" stroke="none" /><path d="M 120.83666639777658 97.38593545837742 l 38.30916064916878 -4.806076776417603 a59.609456919576616,59.609456919576616 0 0,0 0.11896244272129668,1.0191975600966152 l -38.38621344489367 4.145935477996136" fill="#71ff27" stroke="none" /><path d="M 120.87857604477298 97.74499172005257 l 35.51567847125496 -3.835900918189336 a56.722227717875164,56.722227717875164 0 0,0 0.09648957198998379,0.9716368220511825 l -35.576445168927165 3.223988565433719" fill="#97ff23" stroke="none" /><path d="M 120.94382443527127 98.46500227214037 l 44.55405524587086 -3.2654195407677724 a65.67355821545158,65.67355821545158 0 0,0 0.0729270744867354,1.128149564022608 l -44.603662911362015 2.4980109124921293" fill="#31ff3c" stroke="none" /><path d="M 120.96714384426684 98.82574320788733 l 44.614922347311335 -2.498641492853339 a65.68483529528143,65.68483529528143 0 0,0 0.053506215508540116,1.1294316423058903 l -44.65132217105337 1.7302987439244488" fill="#31ff3c" stroke="none" /><path d="M 120.98425023603335 99.18683210126433 l 35.62159731926337 -1.3803847702870802 a56.648333168463736,56.648333168463736 0 0,0 0.029371636196030924,0.9747016129705017 l -35.64008064991505 0.7670130098915794" fill="#98ff23" stroke="none" /><line stroke="#e1ed5e" stroke-width="0.3" x1="184.98032266829074" x2="189.97916517819016" y1="98.17113171792111" y2="98.06355123074" /><path d="M 185.9800911702706 98.14961562048488 a86.0,86.0 0 0,1 -9.607161424134198,41.387399972396054" fill="none" id="id40" stroke="none" /><text fill="#e1ed5e" style="font-size:6.75px; font-family:Arial;" text-anchor="middle"><textPath startOffset="21.466115282336823" xlink:href="#id40">April</textPath></text><path d="M 120.99513854157772 99.54816195383933 l 31.352815385217426 -0.6747464331915859 a52.36007518053219,52.36007518053219 0 0,0 0.011636385627782016,0.9012508906186028 l -31.359784777962922 0.13495928451252032" fill="#d5ff1c" stroke="none" /><path d="M 120.99824983174949 100.27111621757518 l 41.02645488444795 0.529707826029032 a62.02987436937383,62.02987436937383 0 0,0 -0.022974498785802492,1.0675346820167348 l -41.01125832297714 -1.2358323238358815" fill="#52ff2b" stroke="none" /><path d="M 120.9904718944345 100.63252640178507 l 34.92172851897156 1.0523305714759514 a55.93758037392422,55.93758037392422 0 0,0 -0.037286038985682605,0.9621869894306764 l -34.89844034713468 -1.653294807920634" fill="#a2ff22" stroke="none" /><path d="M 120.9764740272857 100.99374915477107 l 24.564200171630052 1.163715747767322 a45.591749925808685,45.591749925808685 0 0,0 -0.04388455406780042,0.7835881928565105 l -24.54052926667472 -1.5863756569592558" fill="#ffc212" stroke="none" /><path d="M 120.95626037817324 101.35467743843564 l 42.63393520007031 2.7559893361229983 a63.722920170145414,63.722920170145414 0 0,0 -0.0801799448977586,1.0939916448671057 l -42.58017869650821 -3.4894541174868743" fill="#3dff2e" stroke="none" /><path d="M 120.89721153311464 102.0752229133903 l 50.989869453721695 5.06361077282793 a72.2406766247898,72.2406766247898 0 0,0 -0.13353413355148092,1.2363602327848011 l -50.89515301866916 -5.940567327497523" fill="#3bff9a" stroke="none" /><path d="M 120.8583938346157 102.4346265915055 l 28.72623788070705 3.352974499034373 a49.921258284696805,49.921258284696805 0 0,0 -0.10697053710998265,0.8526604300168591 l -28.66426583435022 -3.846952683338627" fill="#f9ff18" stroke="none" /><path d="M 120.70491114924044 103.5080841355445 l 30.841870390163443 5.225614128279956 a52.28143238698189,52.28143238698189 0 0,0 -0.1579734706931982,0.8859991176826616 l -30.747350477131054 -5.755731996695836" fill="#d6ff1c" stroke="none" /><path d="M 120.64145759157962 103.86396538481128 l 43.02843872269279 8.054683011086471 a64.7758433079434,64.7758433079434 0 0,0 -0.21459332192816674,1.0942067252900307 l -42.88341546778896 -8.794153463444447" fill="#30ff2f" stroke="none" /><path d="M 120.5718875245553 104.21870165774334 l 46.240014444069175 9.48249524290977 a68.20229498466713,68.20229498466713 0 0,0 -0.24574248624828252,1.148027083865798 l -46.069937919096446 -10.277036146191739" fill="#35ff61" stroke="none" /><path d="M 120.49622156327973 104.57218783832717 l 31.963886927006136 7.130333492059332 a53.74953012167376,53.74953012167376 0 0,0 -0.20921219874496746,0.9012806766013682 l -31.836414162330616 -7.679482826009266" fill="#c1ff1e" stroke="none" /><path d="M 120.32669344350535 105.2749913415812 l 39.92779261262585 10.361683315854156 a62.25037095657335,62.25037095657335 0 0,0 -0.2780870022797194,1.0348651863869178 l -39.743517534004354 -11.047439435416623" fill="#4fff2b" stroke="none" /><path d="M 120.23288151984713 105.62410040840565 l 37.60651717393854 10.453421001313718 a60.03234741319616,60.03234741319616 0 0,0 -0.28531763318327147,0.9932281112679453 l -37.42100690386917 -11.099206588086245" fill="#6bff28" stroke="none" /><path d="M 120.13307415673323 105.97154293290107 l 18.876944224396027 5.598970231789504 a40.68978138292611,40.68978138292611 0 0,0 -0.2049471191853319,0.6697790436586196 l -18.777770332704563 -5.92307624800018" fill="#ff720a" stroke="none" /><path d="M 119.9155931802556 106.66101706037122 l 38.18475785826434 12.771365695107983 a61.263923236719755,61.263923236719755 0 0,0 -0.34310471928706215,0.9972229180072626 l -37.95926230803405 -13.426761316204546" fill="#5bff2a" stroke="none" /><path d="M 119.79798401119884 107.00284435728193 l 42.05186593020688 14.87437669794811 a65.6050054406964,65.6050054406964 0 0,0 -0.38574412040695755,1.0614021488524454 l -41.789597548794696 -15.596026643806686" fill="#31ff3b" stroke="none" /><path d="M 119.67450827220406 107.3425965602758 l 12.792336752315599 4.774145637385203 a34.65416955188446,34.65416955188446 0 0,0 -0.21338011233310394,0.5570681405564107 l -12.70826236038899 -4.993637344774758" fill="#ff0801" stroke="none" /><path d="M 119.54520255179757 107.68017299344265 l 42.23308298093715 16.59524287253727 a66.37659511326541,66.37659511326541 0 0,0 -0.4270144987760808,1.0598149667580716 l -41.94116586790368 -17.319757207138153" fill="#32ff47" stroke="none" /><path d="M 119.41010516605496 108.01547362559984 l 39.48839873826158 16.306878087257513 a63.722920170145414,63.722920170145414 0 0,0 -0.427395751501229,1.0102373058848981 l -39.20185200556804 -16.984189918808575" fill="#3dff2e" stroke="none" /><path d="M 119.26925614724726 108.34839909993367 l 41.00207320011112 17.76413517903866 a65.68483529528143,65.68483529528143 0 0,0 -0.4584142004991165,1.0336030043109319 l -40.690217914880726 -18.46728651984228" fill="#31ff3c" stroke="none" /><path d="M 118.97047184881838 109.00673069616215 l 38.28248350142396 18.17561640139558 a63.378078939558804,63.378078939558804 0 0,0 -0.4763820648869009,0.981488153373767 l -37.96394817992234 -18.83189351073462" fill="#41ff2d" stroke="none" /><path d="M 118.81262510543309 109.33194174019688 l 40.02032870633481 19.85195440923275 a65.67355821545158,65.67355821545158 0 0,0 -0.5110695354018093,1.0083886785271563 l -39.67268050114673 -20.5378972994626" fill="#31ff3c" stroke="none" /><line stroke="#e1ed5e" stroke-width="0.3" x1="174.80103733775053" x2="179.2010983576182" y1="140.37084112569926" y2="142.7455964860345" /><path d="M 175.68104954172406 140.8457921977663 a86.0,86.0 0 0,1 -30.038265399797805,32.042727171017184" fill="none" id="id41" stroke="none" /><text fill="#e1ed5e" style="font-size:6.75px; font-family:Arial;" text-anchor="middle"><textPath startOffset="22.206326154141568" xlink:href="#id41">May</textPath></text><path d="M 118.48025628344425 109.97397251340804 l 26.16793634528092 14.12308757180287 a50.73587891977446,50.73587891977446 0 0,0 -0.42140638908669176,0.764975001952377 l -25.92095354674272 -14.571433092153052" fill="#edff1a" stroke="none" /><path d="M 116.27256486870786 113.27417163493432 l 16.436755354078134 13.408108276220629 a42.21189039469779,42.21189039469779 0 0,0 -0.4641378259138587,0.5590839109158358 l -16.203521528270734 -13.689053444250236" fill="#ff8b0c" stroke="none" /><path d="M 115.32070863581623 114.36230785411682 l 21.73603751655717 20.37632003598214 a50.79345137995845,50.79345137995845 0 0,0 -0.6034587310547965,0.632724066914741 l -21.38207223412341 -20.747451219479387" fill="#ecff1a" stroke="none" /><path d="M 114.81725581225074 114.88116024355365 l 16.04178433690405 16.11096996197008 a43.73548323276289,43.73548323276289 0 0,0 -0.5380506750500926,0.5265958301921749 l -15.762083709478166 -16.38471589508483" fill="#ffa40f" stroke="none" /><path d="M 114.55890576462653 115.13401014063108 l 15.099183685827006 15.695630063886128 a42.779305569294685,42.779305569294685 0 0,0 -0.5350757429856888,0.5059475127369095 l -14.826772108450509 -15.95321221336896" fill="#ff950d" stroke="none" /><path d="M 114.29624159901734 115.38237550388516 l 16.985461557534073 18.275904612772788 a45.95024235829459,45.95024235829459 0 0,0 -0.5840066851207437,0.5334762601929434 l -16.668355322946468 -18.565573639552312" fill="#ffc812" stroke="none" /><path d="M 113.75828350139079 115.86535959552629 l 21.472783632365786 24.761332604461632 a53.77505193392027,53.77505193392027 0 0,0 -0.7045415850420803,0.6004256234761265 l -21.04337657074666 -25.127282618160706" fill="#c0ff1e" stroke="none" /><path d="M 112.92097659922987 116.55440617244103 l 21.088089939963794 27.01814399137102 a55.273716490256206,55.273716490256206 0 0,0 -0.7550686347833305,0.5789544313735251 l -20.619892576686972 -27.377137764571916" fill="#abff21" stroke="none" /><line stroke="#e1ed5e" stroke-width="0.3" x1="143.8653032363475" x2="146.44561519142675" y1="172.8068346515853" y2="177.08958963109032" /><path d="M 144.38136562736335 173.6633856474863 a86.0,86.0 0 0,1 -40.68145358897372,12.25698825130547" fill="none" id="id42" stroke="none" /><text fill="#e1ed5e" style="font-size:6.75px; font-family:Arial;" text-anchor="middle"><textPath startOffset="21.466115282336833" xlink:href="#id42">June</textPath></text><path d="M 110.8373102113329 117.98757091392108 l 15.343271533462225 25.466483784056397 a50.73142744089425,50.73142744089425 0 0,0 -0.7518690556285084,0.4442174908289375 l -14.902634606805336 -25.726819847179083" fill="#edff1a" stroke="none" /><path d="M 109.57404056367764 118.69057910512821 l 9.353911908913092 18.260840792676177 a41.51716292412702,41.51716292412702 0 0,0 -0.6388623315728488,0.320338835615075 l -9.038195669657483 -18.419147469200553" fill="#ff800b" stroke="none" /><path d="M 109.2508944713604 118.85261126421891 l 11.258133193761473 22.943209364226213 a46.55653378177861,46.55653378177861 0 0,0 -0.7224849800619461,0.346836695769668 l -10.861535545699294 -23.13360033649544" fill="#ffd113" stroke="none" /><path d="M 108.92500713936063 119.00905698771935 l 18.99107019197812 40.44840860070751 a65.68483529528143,65.68483529528143 0 0,0 -1.027598599392655,0.471720116452628 l -18.29200359681805 -40.76931578749421" fill="#31ff3c" stroke="none" /><path d="M 108.59647513512805 119.15986991738527 l 12.774384160638393 28.471615975760365 a52.206054011277075,52.206054011277075 0 0,0 -0.8230640543254515,0.3608070937933586 l -12.282399431655188 -28.687287622848178" fill="#d7ff1c" stroke="none" /><path d="M 107.59598834532513 119.57807347666477 l 13.612838093529191 35.086039143948724 a58.634286279552875,58.634286279552875 0 0,0 -0.9440951559801934,0.35697600498045706 l -13.006872716788724 -35.31516339903582" fill="#7eff26" stroke="none" /><path d="M 107.2578585660854 119.70592522655815 l 13.949554317072643 37.87465294522939 a61.36185577208428,61.36185577208428 0 0,0 -0.994297106795223,0.3565195671001581 l -13.295537649647684 -38.10916005336951" fill="#5aff2a" stroke="none" /><path d="M 106.91757812671514 119.82793768551818 l 10.544753611271172 30.224554559922424 a53.011178158076966,53.011178158076966 0 0,0 -0.8641586083888918,0.2931695186805009 l -10.022925269945054 -30.401587065501047" fill="#cbff1d" stroke="none" /><path d="M 106.57524785965236 119.94407469862006 l 8.421368353068038 25.543736613917375 a47.89613215946187,47.89613215946187 0 0,0 -0.785219807390766,0.2514025859022839 l -7.980427200586332 -25.684912046479365" fill="#ffe615" stroke="none" /><path d="M 105.88484417918355 120.15858648285463 l 10.639007897389197 36.44401691210933 a58.9651795429815,58.9651795429815 0 0,0 -0.9767689585771034,0.276044664375304 l -10.010107770707489 -36.62175036982316" fill="#79ff26" stroke="none" /><path d="M 105.53697534728816 120.25689768951611 l 11.272932200563254 41.24176466841282 a63.754674052824214,63.754674052824214 0 0,0 -1.061088947471424,0.28024323511457183 l -10.561352810280331 -41.42969925283098" fill="#3cff2e" stroke="none" /><path d="M 105.18746579009965 120.34920634021253 l 11.015200169868065 43.21003553665522 a65.59194776931446,65.59194776931446 0 0,0 -1.0964684672244143,0.2694852722984915 l -10.26977841790044 -43.39324206726774" fill="#31ff3b" stroke="none" /><path d="M 104.83641907484287 120.43548508189849 l 8.891361732606844 37.56897142962197 a59.60678603224849,59.60678603224849 0 0,0 -1.0004852874199326,0.22770719411633478 l -8.24335629579405 -37.716455357315986" fill="#71ff27" stroke="none" /><path d="M 104.13013068566511 120.58985236759428 l 9.567944454471496 47.698869302772586 a69.649025620734,69.649025620734 0 0,0 -1.1775076051850317,0.22567213502543165 l -8.74546923471476 -47.85649863614648" fill="#37ff76" stroke="none" /><path d="M 103.7750983002368 120.6578951692458 l 8.01299464118069 43.848289534303085 a65.57443861905233,65.57443861905233 0 0,0 -1.1121144647294483,0.1933553548561309 l -7.257031204979191 -43.97972346768022" fill="#31ff3b" stroke="none" /><path d="M 103.41894727170886 120.7198165907248 l 8.16014388254772 49.4528494192909 a71.12157483430605,71.12157483430605 0 0,0 -1.2096226597379591,0.1889181823046227 l -7.307685359201244 -49.58598590894263" fill="#39ff8b" stroke="none" /><path d="M 103.06178313531738 120.77559828337769 l 5.541566568062025 37.60206252057711 a59.008210505490155,59.008210505490155 0 0,0 -1.0061501460592823,0.13944324218280582 l -4.893487830815912 -37.691880328252516" fill="#79ff26" stroke="none" /><path d="M 102.34483914955558 120.86867818915974 l 5.00865038415028 44.576154849962165 a65.85666238005737,65.85666238005737 0 0,0 -1.1276147184866057,0.11688187610955406 l -4.240603069058071 -44.65576609452748" fill="#31ff3f" stroke="none" /><path d="M 101.98527174616119 120.90594882070398 l 4.330267561811786 45.599980054237626 a66.80512414679987,66.80512414679987 0 0,0 -1.1457259554977006,0.09885805640373924 l -3.5446972885725434 -45.66776236292003" fill="#32ff4d" stroke="none" /><path d="M 101.62511606390274 120.93702456842531 l 3.2794903258102424 42.25099428191477 a63.378078939558804,63.378078939558804 0 0,0 -1.088404543614167,0.07506274974306618 l -2.551723021417145 -42.301185376174125" fill="#41ff2d" stroke="none" /><path d="M 101.26447882468166 120.96189622390904 l 1.7919600002363738 29.70621478917013 a50.76021367098625,50.76021367098625 0 0,0 -0.872621085005107,0.04510454266154879 l -1.2803508468177873 -29.732659138593878" fill="#ecff1a" stroke="none" /><path d="M 100.90346689309514 120.98055641714683 l 1.4185207762593826 32.941279201993716 a53.97180730042536,53.97180730042536 0 0,0 -0.928519788618148,0.0319800989308198 l -0.8512806359665823 -32.96081609935063" fill="#beff1f" stroke="none" /><line stroke="#e1ed5e" stroke-width="0.3" x1="102.19456741930631" x2="102.32365962044197" y1="184.97166512339345" y2="189.96999836594603" /><path d="M 102.22038585953345 185.97133177190398 a86.0,86.0 0 0,1 -42.740103519485714,-10.115201625700543" fill="none" id="id43" stroke="none" /><text fill="#e1ed5e" style="font-size:6.75px; font-family:Arial;" text-anchor="middle"><textPath startOffset="22.20632615414155" xlink:href="#id43">July</textPath></text><path d="M 100.18074693466247 120.99922214144158 l 0.2995990977530474 34.80749490352653 a55.80878425165694,55.80878425165694 0 0,0 -0.9606920648309818,0.0 l 0.29959909775302346 -34.80749490352653" fill="#a4ff21" stroke="none" /><path d="M 99.81925306533755 120.99922214144158 l -0.41261478209476526 47.93768416726922 a68.93945988722919,68.93945988722919 0 0,0 -1.1865476076320047,-0.02042749311955928 l 1.2377220796194377 -47.923479196870495" fill="#36ff6c" stroke="none" /><path d="M 99.45781275523022 120.99299961872073 l -0.907190367395203 35.125590320593446 a56.137303393016126,56.137303393016126 0 0,0 -0.9657745346553683,-0.033263227711182335 l 1.5116852537252143 -35.104770294456166" fill="#9fff22" stroke="none" /><path d="M 99.09653310690486 120.98055641714683 l -1.7483309423409932 40.60022149341348 a61.637847462657035,61.637847462657035 0 0,0 -1.059618970063264,-0.05477019735310019 l 2.4469379808177463 -40.56411148929818" fill="#57ff2a" stroke="none" /><path d="M 98.37488393609728 120.93702456842531 l -4.023162984986588 51.832028573490156 a72.987931546147,72.987931546147 0 0,0 -1.2517627753636298,-0.1080073594014404 l 4.91477007809176 -51.75509696181005" fill="#3cffa4" stroke="none" /><path d="M 98.01472825383883 120.90594882070398 l -3.41016846783465 35.910855829377084 a57.07241072311802,57.07241072311802 0 0,0 -0.977208501389078,-0.1012916567334677 l 4.027809565829322 -35.84683480418786" fill="#93ff23" stroke="none" /><path d="M 97.65516085044442 120.86867818915974 l -4.268877706143001 37.9923011330057 a59.23137798001781,59.23137798001781 0 0,0 -1.0122151072336278,-0.12256515299955732 l 4.922220236428018 -37.91319045128079" fill="#76ff27" stroke="none" /><path d="M 97.2962882734958 120.8252237178851 l -3.6809955971784767 28.352710854610002 a49.59066178652686,49.59066178652686 0 0,0 -0.8455713395180502,-0.11718848279360329 l 4.168495527883358 -28.285147806323792" fill="#feff18" stroke="none" /><path d="M 96.58105272829116 120.7198165907248 l -4.929675241011902 29.875268241429023 a51.27925610841824,51.27925610841824 0 0,0 -0.8696742764362534,-0.15120402050564924 l 5.443198488920205 -29.785985642402366" fill="#e5ff1a" stroke="none" /><path d="M 96.22490169976321 120.6578951692458 l -7.426268087670994 40.63763522242589 a62.31061430408546,62.31061430408546 0 0,0 -1.053442192089644,-0.2018947033275234 l 8.124677894332333 -40.5037833207499" fill="#4eff2b" stroke="none" /><path d="M 95.86986931433489 120.58985236759428 l -7.37567110986672 36.76977578244122 a58.5022257394401,58.5022257394401 0 0,0 -0.9856469996190197,-0.20655191203644216 l 8.007509570915127 -36.63736788967824" fill="#7fff26" stroke="none" /><path d="M 95.51606077576429 120.51570834832081 l -8.906223729689275 40.74932317003992 a62.71124740330398,62.71124740330398 0 0,0 -1.052592910290658,-0.23956671943385024 l 9.606336789372795 -40.589979717028385" fill="#49ff2c" stroke="none" /><path d="M 94.81253420990036 120.34920634021253 l -7.593714494849731 29.78835319536475 a51.74102285092492,51.74102285092492 0 0,0 -0.8611419992908278,-0.22743542881054424 l 8.105346936952047 -29.653226417250625" fill="#deff1b" stroke="none" /><path d="M 94.46302465271185 120.25689768951611 l -13.068225819660498 47.80980531943465 a70.56365614798693,70.56365614798693 0 0,0 -1.1688998399270425,-0.33034277058829814 l 13.889256827692154 -47.57777375550783" fill="#38ff83" stroke="none" /><path d="M 94.11515582081647 120.15858648285463 l -9.407866860001935 32.22673225357056 a54.5718666534771,54.5718666534771 0 0,0 -0.899461368584679,-0.2710003319604487 l 9.961203203026859 -32.060016552504386" fill="#b5ff1f" stroke="none" /><path d="M 93.76903079525671 120.05430185196036 l -9.07159306954578 29.19681669367483 a51.57364724502918,51.57364724502918 0 0,0 -0.8455098048701416,-0.2707055391998111 l 9.572824219506863 -29.036338307815313" fill="#e0ff1b" stroke="none" /><path d="M 93.08242187328487 119.8279376855182 l -15.518727194434556 44.481515081336866 a68.11089128499356,68.11089128499356 0 0,0 -1.1036573339218347,-0.3957322536972463 l 16.282104088986117 -44.20779528659966" fill="#34ff60" stroke="none" /><path d="M 92.7421414339146 119.70592522655815 l -13.342980605389565 36.22773518043897 a59.60678603224849,59.60678603224849 0 0,0 -0.9597537810606301,-0.3628967571305935 l 13.964604607210477 -35.992690173201744" fill="#71ff27" stroke="none" /><path d="M 92.40401165467489 119.57807347666478 l -16.99127797302011 43.79370708526087 a67.9743792660006,67.9743792660006 0 0,0 -1.0871981602184244,-0.432618585163801 l 17.742597209280394 -43.49474165569101" fill="#34ff5e" stroke="none" /><path d="M 92.06813273071674 119.44442032107085 l -8.598357988771665 21.078275912680688 a43.76456622811356,43.76456622811356 0 0,0 -0.6950824714185413,-0.2905445294258089 l 8.959911919687668 -20.927146340234906" fill="#ffa50f" stroke="none" /><path d="M 91.40352486487194 119.15986991738527 l -15.947874826027803 35.5447090025096 a59.95845286378475,59.95845286378475 0 0,0 -0.9380128900011387,-0.4305957111725565 l 16.55735571179636 -35.264926221002966" fill="#6cff28" stroke="none" /><path d="M 91.07499286063937 119.00905698771935 l -12.637128023518486 26.915371944159237 a50.734395093481055,50.734395093481055 0 0,0 -0.7873188884588643,-0.3779609117503189 l 13.098559579977591 -26.693856755909355" fill="#edff1a" stroke="none" /><path d="M 90.7491055286396 118.85261126421891 l -20.937039881947516 42.668076599490064 a68.52814323869819,68.52814323869819 0 0,0 -1.054504842921018,-0.5287506194020418 l 21.668398632551295 -42.301358139178724" fill="#35ff66" stroke="none" /><path d="M 90.42595943632237 118.69057910512821 l -15.032067645334982 29.345817742268768 a53.97180730042536,53.97180730042536 0 0,0 -0.8232219469244354,-0.43067081475885977 l 15.534980494785913 -29.08271750856519" fill="#beff1f" stroke="none" /><line stroke="#e1ed5e" stroke-width="0.3" x1="58.666819895761336" x2="56.23545636021788" y1="174.27360380694188" y2="178.64263932499728" /><path d="M 58.180547188652646 175.14741091055294 a86.0,86.0 0 0,1 -31.652253787137756,-30.449443065178592" fill="none" id="id44" stroke="none" /><text fill="#e1ed5e" style="font-size:6.75px; font-family:Arial;" text-anchor="middle"><textPath startOffset="22.20632615414155" xlink:href="#id44">August</textPath></text><line stroke="#e1ed5e" stroke-width="0.3" x1="26.63291911575756" x2="22.317208475507996" y1="142.92168965132927" y2="145.44649492493687" /><path d="M 25.769776987707644 143.4266507060508 a86.0,86.0 0 0,1 -11.730757126820373,-40.83630448921669" fill="none" id="id45" stroke="none" /><text fill="#e1ed5e" style="font-size:6.75px; font-family:Arial;" text-anchor="middle"><textPath startOffset="21.46611528233685" xlink:href="#id45">September</textPath></text><line stroke="#e1ed5e" stroke-width="0.3" x1="15.007084014347285" x2="10.007500721073583" y1="101.09737516637583" y2="101.16192664675087" /><path d="M 14.007167355692545 101.11028546245083 a86.0,86.0 0 0,1 10.666146001902534,-42.60595125391555" fill="none" id="id46" stroke="none" /><text fill="#e1ed5e" style="font-size:6.75px; font-family:Arial;" text-anchor="middle"><textPath startOffset="22.20632615414155" xlink:href="#id46">October</textPath></text><line stroke="#e1ed5e" stroke-width="0.3" x1="26.266209847984243" x2="21.928928074336255" y1="57.711370442889674" y2="55.22380399835377" /><path d="M 25.398753493254645 57.213857153982495 a86.0,86.0 0 0,1 29.58750427330803,-30.492523968695096" fill="none" id="id47" stroke="none" /><text fill="#e1ed5e" style="font-size:6.75px; font-family:Arial;" text-anchor="middle"><textPath startOffset="21.46611528233685" xlink:href="#id47">November</textPath></text><line stroke="#e1ed5e" stroke-width="0.3" x1="56.762969772571076" x2="54.21961505331055" y1="26.818313649435495" y2="22.513508569990535" /><path d="M 56.25429882871897 25.957352633546506 a86.0,86.0 0 0,1 42.265352541879196,-11.944610805530505" fill="none" id="id48" stroke="none" /><text fill="#e1ed5e" style="font-size:6.75px; font-family:Arial;" text-anchor="middle"><textPath startOffset="22.20632615414155" xlink:href="#id48">December</textPath></text></svg>