<?xml version="1.0" encoding="utf-8" ?>
<svg baseProfile="full" height="200mm" version="1.1" viewBox="0,0,200,200" width="200mm" xmlns="http://www.w3.org/2000/svg" xmlns:ev="http://www.w3.org/2001/xml-events" xmlns:xlink="http://www.w3.org/1999/xlink"><defs /><rect fill="#1a1a1a" height="200" width="200" x="0" y="0" /><text alignment-baseline="middle" fill="#e1ed5e" style="dominant-baseline: central; font-size:9.0px; font-family:Arial;" text-anchor="middle" x="100.0" y="100.0">2024</text><line stroke="#e1ed5e" stroke-width="0.3" x1="100.0" x2="100.0" y1="15.0" y2="10.0" /><path d="M 100.0 14.0 a86.0,86.0 0 0,1 42.35913384403234,11.155469271406648" fill="none" id="id49" stroke="none" /><text fill="#e1ed5e" style="font-size:6.75px; font-family:Arial;" text-anchor="middle"><textPath startOffset="22.145653131862478" xlink:href="#id49">January</textPath></text><path d="M 100.0 79.0 l 0.0 -17.946083321457408 a38.94608332145741,38.94608332145741 0 0,0 0.6685613089504467,0.005738794757629971 l -0.308068384101592 17.943438924894213" fill="#ff9d0e" stroke="none" /><path d="M 100.72087961077811 79.0123766808444 l 1.0183153623345762 -29.647140694850158 a50.66462400836065,50.66462400836065 0 0,0 0.8689567817455194,0.03731674309906296 l -1.5270979046809319 29.625291383325262" fill="#bfff1e" stroke="none" /><path d="M 101.08105385017728 79.02784411241856 l 1.1175665710682585 -21.68049291841468 a42.70927746900385,42.70927746900385 0 0,0 0.7318654625506099,0.04402720884478041 l -1.4895763857513307 21.658113731745207" fill="#ffd313" stroke="none" /><path d="M 101.44090949804482 79.04949213459386 l 1.4214016738586583 -20.666868383118317 a41.71569046601111,41.71569046601111 0 0,0 0.7139958360877896,0.055267793338456196 l -1.7759665047216815 20.639422822784805" fill="#ffc512" stroke="none" /><path d="M 101.80034050326958 79.07731436759882 l 2.4577400278471657 -28.56266460451633 a49.668210536316565,49.668210536316565 0 0,0 0.8488544022556722,0.08038739444420659 l -2.9476939934878508 28.516265454566938" fill="#ccff1d" stroke="none" /><path d="M 102.51750503828377 79.15144685158666 l 2.543017733238906 -21.059834861316677 a42.212816493278225,42.212816493278225 0 0,0 0.7186675284191021,0.09304589977901918 l -2.9041630835487995 21.01307736533726" fill="#ffcc13" stroke="none" /><path d="M 102.87502721639298 79.19773525538626 l 2.72001529816553 -19.680675723420602 a40.86774975060567,40.86774975060567 0 0,0 0.6941190631594741,0.10201159898174357 l -3.0574594669326864 19.631083051139978" fill="#ffb911" stroke="none" /><path d="M 103.94208987418118 79.37332000966035 l 6.235197305624171 -32.62518704661754 a54.21566671417035,54.21566671417035 0 0,0 0.912639462987692,0.18255345255639666 l -6.79433325414282 32.51334419739829" fill="#93ff23" stroke="none" /><path d="M 104.29559338865022 79.4440306129975 l 4.718772560937952 -22.581034918984145 a44.06880908270391,44.06880908270391 0 0,0 0.7391757530363989,0.16109991500298618 l -5.105710730593485 22.496703545847442" fill="#ffe615" stroke="none" /><path d="M 104.64783097203109 79.52079915486377 l 6.276003261459038 -27.653228370304458 a49.356467626241034,49.356467626241034 0 0,0 0.8246474997631563,0.19461456454537554 l -6.749782914962079 27.541417662112856" fill="#d0ff1d" stroke="none" /><path d="M 104.9986988182912 79.60360301121754 l 4.78182179325489 -19.51146471716806 a41.08887938815258,41.08887938815258 0 0,0 0.6836303316914621,0.17377615700035332 l -5.116057418171747 19.426503328332437" fill="#ffbc11" stroke="none" /><path d="M 105.69591212413111 79.78721728523813 l 6.427957644621192 -22.810554014690055 a44.698945418269915,44.698945418269915 0 0,0 0.7367663054112041,0.21446193375801706 l -6.818583962414001 22.696848386629522" fill="#ffef16" stroke="none" /><path d="M 106.04205211174951 79.88797359093562 l 3.707768571006859 -12.341955686508724 a33.88686998242363,33.88686998242363 0 0,0 0.5556791000527979,0.17215080563226057 l -3.9190883039312867 12.276488293069816" fill="#ff5007" stroke="none" /><path d="M 106.38641147887787 79.99465700312896 l 7.900520798585553 -24.74826887562028 a46.97874210251294,46.97874210251294 0 0,0 0.7661500468581607,0.2518487380758554 l -8.324193583091455 24.608999216142404" fill="#f0ff19" stroke="none" /><path d="M 106.72888874123014 80.10723608172694 l 11.401808056609134 -33.707419550843184 a56.583582727661394,56.583582727661394 0 0,0 0.917446824561043,0.3191356299594785 l -11.978760653215195 33.50672548831511" fill="#76ff27" stroke="none" /><path d="M 107.40779381753099 80.34994680014964 l 7.978806125794112 -21.16473118786157 a43.61873545199753,43.61873545199753 0 0,0 0.6983727968532648,0.2701456005792436 l -8.340951185140902 21.02464569914429" fill="#ffe015" stroke="none" /><path d="M 107.74402155503746 80.48000691201159 l 7.915694004122265 -19.952719804426003 a42.465536079046124,42.465536079046124 0 0,0 0.6752941107978039,0.27463623598696385 l -8.257042576110509 19.813896311859747" fill="#ffd013" stroke="none" /><path d="M 108.07796709384702 80.6158196554323 l 8.759221392800823 -21.018942660137306 a43.77103225499976,43.77103225499976 0 0,0 0.6910923342543657,0.2949862226027845 l -9.11874880222562 20.86548178787512" fill="#ffe215" stroke="none" /><path d="M 108.73861861582097 80.90454125486305 l 11.862924186840893 -25.92263026519851 a49.508099377701775,49.508099377701775 0 0,0 0.7697596762662261,0.3602863959371861 l -12.306172576978625 25.71516763769079" fill="#ceff1d" stroke="none" /><path d="M 109.06512990194946 81.05736502329252 l 11.39726242957242 -23.815895003413527 a47.402546197330295,47.402546197330295 0 0,0 0.7309918449946092,0.35756474185534864 l -11.804414523829097 23.616736511460957" fill="#eaff1a" stroke="none" /><path d="M 109.71004243097381 81.37971332152246 l 14.400700348458862 -27.615241721684562 a52.1445299510712,52.1445299510712 0 0,0 0.7901415536182658,0.4207058724017271 l -14.872630717863688 27.363965381560263" fill="#acff20" stroke="none" /><line stroke="#e1ed5e" stroke-width="0.3" x1="143.13028292997686" x2="145.6673583964461" y1="26.7553504044142" y2="22.446841604673864" /><path d="M 143.63769802327073 25.89364864446614 a86.0,86.0 0 0,1 29.32050498858742,28.57503671076993" fill="none" id="id50" stroke="none" /><text fill="#e1ed5e" style="font-size:6.75px; font-family:Arial;" text-anchor="middle"><textPath startOffset="20.669276256404974" xlink:href="#id50">February</textPath></text><path d="M 110.65571695917076 81.90426304109057 l 12.724498262297963 -21.608979890412105 a46.07709847513182,46.07709847513182 0 0,0 0.6781391338828877,0.4072030653767679 l -13.093570152738284 21.387362824499416" fill="#fcff18" stroke="none" /><path d="M 110.96478420261332 82.08984904055464 l 10.541926508988874 -17.219444695899217 a41.190133485345115,41.190133485345115 0 0,0 0.5998771599885027,0.37436771455575124 l -10.835967797767088 17.03594118450192" fill="#ffbd11" stroke="none" /><path d="M 111.5731344415666 82.4767994020092 l 14.519974471139413 -21.985091992160367 a47.34718065650088,47.34718065650088 0 0,0 0.674367499166728,0.45374454950463244 l -14.895238258403143 21.732597768598616" fill="#ebff1a" stroke="none" /><path d="M 114.65682725009322 84.96080404539774 l 14.255321206949402 -14.627215383584861 a41.42473041660729,41.42473041660729 0 0,0 0.5050031282423605,0.500686888124943 l -14.504316255321726 14.380348485231258" fill="#ffc111" stroke="none" /><path d="M 115.16444852881244 85.47280134310134 l 20.37318314928968 -19.517048596971904 a49.21314901904897,49.21314901904897 0 0,0 0.5791782230250502,0.6150672020511242 l -20.70521720605099 19.164439934976283" fill="#d2ff1c" stroke="none" /><path d="M 115.8921839302757 86.27271002978787 l 17.789467048137315 -15.366117939277956 a44.50707804854876,44.50707804854876 0 0,0 0.4944639652923664,0.5824773078024558 l -18.050625576936792 15.058473849025948" fill="#ffec16" stroke="none" /><path d="M 116.1254893667686 86.54754324733833 l 13.895987832305623 -11.592527277642823 a39.09655123272053,39.09655123272053 0 0,0 0.42550672100182063,0.5190490131971603 l -14.092941372546072 11.352275982747168" fill="#ff9f0e" stroke="none" /><path d="M 116.57777611688842 87.10902102172516 l 23.74643774778648 -18.465373621723426 a51.08094627333618,51.08094627333618 0 0,0 0.5323316231805008,0.6968391828179488 l -24.059921348321286 18.055013525664595" fill="#baff1f" stroke="none" /><path d="M 116.7966241395341 87.39550010848427 l 13.762071812328523 -10.327315252428933 a38.20604721865945,38.20604721865945 0 0,0 0.3891522066550594,0.5279597071728771 l -13.937326038567408 10.089549235987182" fill="#ff920d" stroke="none" /><path d="M 117.21940702142032 87.97951657250589 l 16.47231384708669 -11.498954369629338 a41.08887938815258,41.08887938815258 0 0,0 0.3987778724791783,0.5818288335682289 l -16.66728145638119 11.214490800991062" fill="#ffbc11" stroke="none" /><path d="M 117.42321728460499 88.27688183743584 l 15.127820901093312 -10.178673035451693 a39.233385587383026,39.233385587383026 0 0,0 0.3711768997434709,0.5620091345508182 l -15.300322239757506 9.917484022561815" fill="#ffa10e" stroke="none" /><path d="M 117.62189284568427 88.57770195909679 l 12.97149672568721 -8.407967460413088 a36.45812550472661,36.45812550472661 0 0,0 0.33590487055464385,0.5280982488279322 l -13.113919287867743 8.184055536906483" fill="#ff770b" stroke="none" /><line stroke="#e1ed5e" stroke-width="0.3" x1="172.87174338648825" x2="177.1583165268699" y1="56.24261187166439" y2="53.66864786411523" /><path d="M 173.72905801456457 55.72781907015455 a86.0,86.0 0 0,1 12.242430191666344,42.057860355516425" fill="none" id="id51" stroke="none" /><text fill="#e1ed5e" style="font-size:6.75px; font-family:Arial;" text-anchor="middle"><textPath startOffset="22.145653131862474" xlink:href="#id51">March</textPath></text><path d="M 118.00360718960297 89.18935116829356 l 18.742960114186687 -11.254609019583988 a42.86240558643294,42.86240558643294 0 0,0 0.3733648013732998,0.6340550580739587 l -18.933398625689755 10.931202793216473" fill="#ffd513" stroke="none" /><path d="M 118.18653347947321 89.5 l 25.995428307844552 -15.008467531233673 a51.01693506246734,51.01693506246734 0 0,0 0.4313764517126335,0.762200856482955 l -26.24923812457856 14.5600099046516" fill="#bbff1f" stroke="none" /><path d="M 118.36410011445183 89.81374322990088 l 15.675043128902558 -8.69468218961218 a38.92496793501496,38.92496793501496 0 0,0 0.3191006783850739,0.5871093071700971 l -15.821989156902974 8.42431804896748" fill="#ff9c0e" stroke="none" /><path d="M 118.53625476483649 90.13048839642627 l 19.2650486555636 -10.257553300906764 a42.82566148876538,42.82566148876538 0 0,0 0.3399377243327453,0.6518754088770886 l -19.43829444887129 9.925331648925177" fill="#ffd513" stroke="none" /><path d="M 118.8641267826498 90.77261029715802 l 20.306275280846787 -9.932816800292942 a43.605434421167644,43.605434421167644 0 0,0 0.32313857436202403,0.6752353388468437 l -20.47379311316872 9.582768959380996" fill="#ffe015" stroke="none" /><path d="M 119.0197475246899 91.09779779509293 l 13.051775821853054 -6.108890107422574 a35.41066932687283,35.41066932687283 0 0,0 0.2529595480434116,0.5527622644048307 l -13.154719834751518 5.883938860803059" fill="#ff6709" stroke="none" /><path d="M 119.31412917781788 91.75594674310238 l 37.758628625977224 -16.11691329358417 a62.05446297088024,62.05446297088024 0 0,0 0.40977858310613774,0.9833194247994745 l -38.02973305361984 15.466361359343416" fill="#37ff2e" stroke="none" /><path d="M 119.58574465831526 92.42381321644754 l 23.292903443696353 -9.010195440578947 a45.97484680062705,45.97484680062705 0 0,0 0.27840903949388546,0.7385130542412213 l -23.44414316700468 8.609014106143569" fill="#fdff18" stroke="none" /><path d="M 119.71291397450082 92.76114493625339 l 19.912686985184095 -7.312214480414033 a42.212816493278225,42.212816493278225 0 0,0 0.24394953483764162,0.6823702662940498 l -20.035276690065682 6.9693092577390665" fill="#ffcc13" stroke="none" /><path d="M 119.83427380445688 93.10060997987247 l 26.40000165616739 -9.18329099182762 a48.95161750035628,48.95161750035628 0 0,0 0.2692678789954522,0.7960426384834759 l -26.553754956735208 8.728746678869983" fill="#d6ff1c" stroke="none" /><path d="M 119.94978838288452 93.4421083053983 l 16.559275205149504 -5.443362668931334 a38.43100090256995,38.43100090256995 0 0,0 0.20063779556751155,0.6284950369607988 l -16.650277716494273 5.158298598279147" fill="#ff950d" stroke="none" /><path d="M 120.26092885502905 94.47779374421319 l 32.89589728246099 -8.965923085892303 a55.095862429338275,55.095862429338275 0 0,0 0.2408752254832715,0.9146424652981708 l -33.044961988748994 8.399900116221334" fill="#88ff25" stroke="none" /><path d="M 120.35273937422433 94.82641323984039 l 11.417779470804343 -2.902354892599161 a32.780889268918344,32.780889268918344 0 0,0 0.1339528186267357,0.5465732115085126 l -11.46591981594737 2.7059258564825535" fill="#ff3e05" stroke="none" /><path d="M 120.43855184770803 95.1765574152323 l 19.573797829101224 -4.6193629909796154 a41.111491140563395,41.111491140563395 0 0,0 0.15620240277072303,0.6882566078853328 l -19.650211093429615 4.282672049155256" fill="#ffbc11" stroke="none" /><path d="M 120.592083275326 95.88100663000786 l 13.89418644381983 -2.7792264181498885 a35.16942188019571,35.16942188019571 0 0,0 0.11333548461551811,0.5930191465256441 l -13.939848220717506 2.5403047065909297" fill="#ff6309" stroke="none" /><path d="M 120.65975698304385 96.23510406497455 l 21.35754270414708 -3.8920557378758196 a42.70927746900385,42.70927746900385 0 0,0 0.12525041179540033,0.7224110912341773 l -21.421207933434715 3.5248516137210495" fill="#ffd313" stroke="none" /><path d="M 120.7213421655516 96.59031103205396 l 33.97564485027823 -5.590679430864107 a55.43254477221985,55.43254477221985 0 0,0 0.14644356528293168,0.9402727406418674 l -34.06660990769942 5.006618508290798" fill="#84ff25" stroke="none" /><path d="M 120.82617615685814 97.30363454192243 l 20.07759066011106 -2.5994460783199016 a41.24516650040378,41.24516650040378 0 0,0 0.08488238323906004,0.7029478993733876 l -20.119255129609783 2.254404502023101" fill="#ffbe11" stroke="none" /><path d="M 120.9064616781168 98.02013634271609 l 27.335348441833933 -2.5886859178962944 a48.45765046791126,48.45765046791126 0 0,0 0.07131668707344108,0.8288080067476489 l -27.375758751605115 2.1190568637729834" fill="#dcff1b" stroke="none" /><path d="M 120.93736805541906 98.37931529534042 l 22.67029638543783 -1.7548243172077633 a43.738112203695785,43.738112203695785 0 0,0 0.05151941152558647,0.7490809366254646 l -22.69707975812848 1.3653999564279644" fill="#ffe215" stroke="none" /><path d="M 120.98066250479742 99.09900007780936 l 16.76097563632428 -0.7197884118632712 a37.77642392285402,37.77642392285402 0 0,0 0.022261670008812982,0.6481242326940199 l -16.77086199332994 0.43195791460513144" fill="#ff8b0c" stroke="none" /><path d="M 120.99303781780057 99.45929381324524 l 18.085232989665563 -0.4658114490758348 a39.09123082038858,39.09123082038858 0 0,0 0.011519940753538545,0.6709787956082928 l -18.090564362017766 0.15528573749847566" fill="#ff9f0e" stroke="none" /><line stroke="#e1ed5e" stroke-width="0.3" x1="184.99686870605535" x2="189.99668451229388" y1="99.2704041080226" y2="99.22748670261217" /><path d="M 185.99683186730306 99.26182062694052 a86.0,86.0 0 0,1 -10.086455211305974,41.156179273409016" fill="none" id="id52" stroke="none" /><text fill="#e1ed5e" style="font-size:6.75px; font-family:Arial;" text-anchor="middle"><textPath startOffset="21.40746469413373" xlink:href="#id52">April</textPath></text><path d="M 120.99303781780057 100.54070618675476 l 24.955929530702722 0.642776219934442 a45.96420597596313,45.96420597596313 0 0,0 -0.027086735042571163,0.7886007365440182 l -24.941218108663307 -1.071083221042571" fill="#feff18" stroke="none" /><path d="M 120.98066250479742 100.90099992219065 l 29.118048652605253 1.2504542963951573 a50.14488622868272,50.14488622868272 0 0,0 -0.04431473263263568,0.8596939742971674 l -29.092292330516045 -1.7501200640690553" fill="#c6ff1e" stroke="none" /><path d="M 120.96210409425399 101.26102812881392 l 16.287262454688598 0.979801264433517 a37.31670704479597,37.31670704479597 0 0,0 -0.04395559593580596,0.6391047179793717 l -16.268042897587726 -1.2592494065672322" fill="#ff840c" stroke="none" /><path d="M 120.93736805541906 101.62068470465957 l 18.950650431995015 1.4669001957261467 a40.00733931879721,40.00733931879721 0 0,0 -0.058880091611726484,0.684275915895822 l -18.922676717685547 -1.791997158997626" fill="#ffac0f" stroke="none" /><path d="M 120.86939407059847 102.33845913500097 l 19.728984605685707 2.210673875790992 a40.85245356515129,40.85245356515129 0 0,0 -0.08407418163141926,0.6962548306743089 l -19.688128337794623 -2.5490223833887096" fill="#ffb811" stroke="none" /><path d="M 120.82617615685814 102.69636545807757 l 21.40789634023339 2.7716807822593026 a42.586575459598116,42.586575459598116 0 0,0 -0.10008957238411839,0.7241982862067535 l -21.35716225129406 -3.1387673766661415" fill="#ffd113" stroke="none" /><path d="M 120.77682067341334 103.0534771498775 l 27.255163179557446 4.005570404304237 a48.547931214669134,48.547931214669134 0 0,0 -0.128255561122089,0.8234927067354368 l -27.18238612629709 -4.472851292971124" fill="#dbff1b" stroke="none" /><path d="M 120.51834098615036 104.47187691870673 l 39.23771669685357 8.551677728616099 a61.15880480737257,61.15880480737257 0 0,0 -0.23237182589253572,1.02387314036179 l -39.08513400940337 -9.223985202916905" fill="#41ff2d" stroke="none" /><path d="M 120.43855184770803 104.8234425847677 l 19.55179061605284 4.614169348622734 a41.08887938815258,41.08887938815258 0 0,0 -0.16790182728433145,0.6850967519591399 l -19.46970126225221 -4.949121925189973" fill="#ffbc11" stroke="none" /><path d="M 120.35273937422433 105.17358676015961 l 18.90378340655038 4.8052678192751275 a40.50496413472044,40.50496413472044 0 0,0 -0.1770848470092601,0.672420007954473 l -18.81850907873639 -5.1290683316024035" fill="#ffb310" stroke="none" /><path d="M 120.26092885502905 105.52220625578681 l 23.651706127190344 6.44637767943114 a45.5144648710275,45.5144648710275 0 0,0 -0.21192728607179231,0.7520551741924486 l -23.53756034904397 -6.851440777526597" fill="#fffa17" stroke="none" /><path d="M 119.94978838288452 106.5578916946017 l 35.83841610118678 11.780799213854634 a58.72504869127357,58.72504869127357 0 0,0 -0.3230285353673717,0.9549764664044438 l -35.630902144247045 -12.394277354733237" fill="#5dff2a" stroke="none" /><path d="M 119.83427380445688 106.89939002012753 l 17.107387000865657 5.9508372379990915 a39.11284499548715,39.11284499548715 0 0,0 -0.22603467703571078,0.6322592205933002 l -17.002712153786003 -6.243631414973313" fill="#ff9f0e" stroke="none" /><path d="M 119.71291397450082 107.23885506374661 l 19.446029718041146 7.140851468042469 a41.71569046601111,41.71569046601111 0 0,0 -0.2526169443224329,0.670096457513698 l -19.32058208990427 -7.473616205750326" fill="#ffc512" stroke="none" /><path d="M 119.4528033332814 107.91128576633889 l 21.57972694761972 8.7762870840367 a44.29609044700965,44.29609044700965 0 0,0 -0.29251061586069116,0.7019189933149327 l -21.425890487222542 -9.14543858679291" fill="#ffe915" stroke="none" /><path d="M 119.31412917781788 108.2440532568976 l 18.386085775444467 7.847926713296263 a40.99095054866753,40.99095054866753 0 0,0 -0.2817954477688411,0.6448031315317874 l -18.24865644565866 -8.162391914603896" fill="#ffba11" stroke="none" /><path d="M 119.16976305983485 108.57439118712176 l 25.58366411686001 11.443247548401239 a49.02626953588903,49.02626953588903 0 0,0 -0.3502239076469835,0.7653024435607988 l -25.38345574435797 -11.880738974176726" fill="#d5ff1c" stroke="none" /><path d="M 119.0197475246899 108.90220220490707 l 24.417605661041577 11.42867236655497 a47.95985938910266,47.95985938910266 0 0,0 -0.3554070907747828,0.7426641274310356 l -24.217819312306883 -11.84614899605111" fill="#e3ff1b" stroke="none" /><path d="M 118.5362547648365 109.86951160357373 l 55.608764294509484 29.608534810721164 a84.0,84.0 0 0,0 -0.6886186015386442,1.2669806661015868 l -55.092300343355504 -30.558770310297355" fill="#4dd2ff" stroke="none" /><line stroke="#e1ed5e" stroke-width="0.3" x1="174.33088141563837" x2="178.70328620479359" y1="141.23008692659167" y2="143.65538615756765" /><path d="M 175.20536237346943 141.71514677278685 a86.0,86.0 0 0,1 -30.301960400862466,31.631185727798858" fill="none" id="id53" stroke="none" /><text fill="#e1ed5e" style="font-size:6.75px; font-family:Arial;" text-anchor="middle"><textPath startOffset="22.145653131862474" xlink:href="#id53">May</textPath></text><path d="M 118.36410011445183 110.18625677009912 l 11.978843794669864 6.644462725695502 a34.69823286304688,34.69823286304688 0 0,0 -0.293392783295041,0.518396935728814 l -11.863017646353445 -6.849116431523439" fill="#ff5c08" stroke="none" /><path d="M 118.18653347947321 110.5 l 20.900129111938437 12.066695168875585 a45.13339033775118,45.13339033775118 0 0,0 -0.3931468401785676,0.6676492847320765 l -20.689908561630105 -12.42369562190121" fill="#fff517" stroke="none" /><path d="M 117.81537515405839 111.11811171558189 l 17.028178910532343 10.626843038839196 a41.072086836729845,41.072086836729845 0 0,0 -0.3784153414720186,0.5949317699115876 l -16.843245877434434 -10.917588483429455" fill="#ffbc11" stroke="none" /><path d="M 117.62189284568427 111.42229804090321 l 21.096017224180816 13.674183489864717 a46.14011210868843,46.14011210868843 0 0,0 -0.4365196505454403,0.660946387523096 l -20.85817313471465 -14.034309755726875" fill="#fbff18" stroke="none" /><path d="M 117.21940702142032 112.02048342749411 l 20.056043459077216 14.000675965266423 a45.45943185596883,45.45943185596883 0 0,0 -0.45218042591038177,0.6360483971490991 l -19.812747934636874 -14.342901589125026" fill="#fffa17" stroke="none" /><path d="M 117.01052211995028 112.31430620078461 l 9.734054655072969 7.046704901383221 a33.016982566148876,33.016982566148876 0 0,0 -0.33629837573024773,0.4562533346512322 l -9.611654259758893 -7.2127645453033296" fill="#ff4206" stroke="none" /><path d="M 116.79662413953412 112.60449989151573 l 16.067874117487275 12.05763228898294 a41.08887938815258,41.08887938815258 0 0,0 -0.42820095270593667,0.5605287925273186 l -15.858521187427034 -12.331681994751136" fill="#ffbc11" stroke="none" /><path d="M 116.35404254752997 113.17365903436017 l 18.86516871071142 15.196444518124842 a45.22450239893591,45.22450239893591 0 0,0 -0.49220018436319624,0.600404194292589 l -18.601521707109598 -15.518050994115924" fill="#fff617" stroke="none" /><path d="M 116.1254893667686 113.45245675266167 l 14.67924339629408 12.245946926571454 a40.11657403448767,40.11657403448767 0 0,0 -0.44568641979596674,0.5250174818570864 l -14.466862412990999 -12.496131190878097" fill="#ffae10" stroke="none" /><path d="M 115.89218393027572 113.72728997021213 l 16.30450548855096 14.083443511867976 a42.54484347536933,42.54484347536933 0 0,0 -0.48215247775007913,0.5486010121700156 l -16.060341946842296 -14.361256801849285" fill="#ffd113" stroke="none" /><path d="M 115.6541949942343 113.99807769240083 l 13.89389436320244 12.424006013579794 a39.63856823903852,39.63856823903852 0 0,0 -0.45792418048222777,0.5033388908592705 l -13.678572481878334 -12.660682479996737" fill="#ffa70f" stroke="none" /><path d="M 114.91283532996324 114.78537596483092 l 19.991341387060377 19.82047624807378 a49.15146548857537,49.15146548857537 0 0,0 -0.5991986810727847,0.5940773555979278 l -19.648150785857627 -20.160733613900373" fill="#d3ff1c" stroke="none" /><path d="M 114.65682725009322 115.03919595460226 l 8.976329035071256 9.210504361410406 a33.86109923519072,33.86109923519072 0 0,0 -0.41976075189358014,0.40212130494169346 l -8.816895797312363 -9.363237796657678" fill="#ff4f07" stroke="none" /><path d="M 114.39649973595853 115.28858382429668 l 19.682260339218388 20.90187841258175 a49.710275046316085,49.710275046316085 0 0,0 -0.6262789922404493,0.5796744854152958 l -19.320551575663973 -21.236670644129422" fill="#ccff1d" stroke="none" /><path d="M 114.13192950727249 115.5334660781643 l 14.69885813151322 16.15661994748213 a42.84245404018811,42.84245404018811 0 0,0 -0.5482507493957436,0.4902492007915596 l -14.419342355294098 -16.40656467815708" fill="#ffd513" stroke="none" /><path d="M 113.59037401385872 116.0094264158162 l 14.629348025210684 17.233335188725807 a43.605434421167644,43.605434421167644 0 0,0 -0.5748144484666454,0.47953065689517227 l -14.331359242582142 -17.48192802953285" fill="#ffe015" stroke="none" /><path d="M 113.31354834802062 116.24036423190432 l 15.626917828441254 19.062298849401543 a45.648971545294756,45.648971545294756 0 0,0 -0.6102815997817381,0.4915996572164181 l -15.297385458304262 -19.327746800411365" fill="#fffc17" stroke="none" /><path d="M 113.03279911837588 116.46651593811092 l 8.617335562618107 10.887721977225116 a34.885278609092204,34.885278609092204 0 0,0 -0.472762065275093,0.3676226414337021 l -8.429163552707784 -11.03404567027961" fill="#ff5f08" stroke="none" /><path d="M 112.7482090630111 116.68781488649013 l 21.68434975159133 28.38550990181146 a56.72041708232388,56.72041708232388 0 0,0 -0.7788172730201334,0.5844390010601918 l -21.193879489660432 -28.753567930135667" fill="#74ff27" stroke="none" /><path d="M 112.16784306229584 117.11559508785304 l 11.276443985011914 15.861730652688403 a40.46156952163793,40.46156952163793 0 0,0 -0.5695542175909721,0.39759307768816454 l -11.002494676247183 -16.05296854618169" fill="#ffb310" stroke="none" /><path d="M 111.8722381534696 117.32195027204791 l 12.27924012649165 17.915778314088417 a42.71991829366776,42.71991829366776 0 0,0 -0.6084612444680362,0.40939988004065664 l -11.969882593926611 -18.123927868186193" fill="#ffd313" stroke="none" /><path d="M 111.5731344415666 117.5232005979908 l 10.423847588205952 15.783033819685734 a39.914564628758725,39.914564628758725 0 0,0 -0.5749871086859843,0.3726996970530909 l -10.151374847262959 -15.95964735844272" fill="#ffab0f" stroke="none" /><path d="M 111.27062007382361 117.71928675628689 l 13.942692011108043 21.920227661050017 a46.97874210251294,46.97874210251294 0 0,0 -0.684180215204064,0.4269790560372651 l -13.564347667114266 -22.15634251392883" fill="#f0ff19" stroke="none" /><path d="M 110.96478420261333 117.91015095944535 l 8.356279177356209 13.649354037451033 a37.00413282029357,37.00413282029357 0 0,0 -0.5446078727024106,0.32702137970264866 l -8.120738548096362 -13.790789417689606" fill="#ff800b" stroke="none" /><line stroke="#e1ed5e" stroke-width="0.3" x1="143.1302829299769" x2="145.66735839644613" y1="173.24464959558577" y2="177.55315839532614" /><path d="M 143.63769802327073 174.10635135553383 a86.0,86.0 0 0,1 -40.68552437913181,11.842963189579606" fill="none" id="id54" stroke="none" /><text fill="#e1ed5e" style="font-size:6.75px; font-family:Arial;" text-anchor="middle"><textPath startOffset="21.407464694133747" xlink:href="#id54">June</textPath></text><path d="M 110.34350942703117 118.27599006163325 l 12.047691581295556 21.28711663663831 a45.45993064462496,45.45993064462496 0 0,0 -0.6824527305589945,0.37854502554462166 l -11.680494662580466 -21.490794577616075" fill="#fffa17" stroke="none" /><path d="M 109.71004243097381 118.62028667847754 l 13.114622887152501 25.14901861396007 a49.363118141655974,49.363118141655974 0 0,0 -0.7547215946010548,0.38536622380756463 l -12.680974070837864 -25.37044278944047" fill="#d0ff1d" stroke="none" /><path d="M 109.3889696526874 118.78422872680471 l 9.688688792234487 19.38386777979092 a42.67037195382642,42.67037195382642 0 0,0 -0.6580172674962824,0.32186921919820255 l -9.354511275476135 -19.547330749086342" fill="#ffd313" stroke="none" /><path d="M 108.73861861582097 119.09545874513695 l 13.169849476635981 28.778497885862894 a52.648805282409384,52.648805282409384 0 0,0 -0.8250483892430855,0.36903365031658675 l -12.673887684537268 -29.00033528708933" fill="#a6ff21" stroke="none" /><path d="M 108.4095320186766 119.2426549942271 l 10.035364222721244 22.96287725052554 a46.059973397938336,46.059973397938336 0 0,0 -0.727231981778065,0.3104120891343695 l -9.639697165772747 -23.131763989319314" fill="#fcff18" stroke="none" /><path d="M 108.07796709384702 119.3841803445677 l 9.40868979365285 22.57743039151257 a45.45943185596883,45.45943185596883 0 0,0 -0.7229035459579976,0.2939985787955184 l -9.019731786504414 -22.73561622688738" fill="#fffa17" stroke="none" /><path d="M 107.74402155503746 119.51999308798841 l 7.332559481534574 18.482839875841 a40.88420977625766,40.88420977625766 0 0,0 -0.6545907310862401,0.25320975699466125 l -7.014196487954805 -18.605989520973704" fill="#ffb911" stroke="none" /><path d="M 107.06938296918513 119.77432235084164 l 8.306718086279918 23.235368890278057 a45.675573606954536,45.675573606954536 0 0,0 -0.7405842462714649,0.25761364434935313 l -7.906628067963433 -23.374540967196" fill="#fffc17" stroke="none" /><path d="M 106.72888874123015 119.89276391827305 l 3.3415363364858224 9.878658426724309 a31.428506959289344,31.428506959289344 0 0,0 -0.5125499534874546,0.16848535024700098 l -3.1714636453506335 -9.934564698373329" fill="#ff2903" stroke="none" /><path d="M 106.38641147887787 120.00534299687104 l 6.62415874958302 20.750082936155685 a42.78176808702674,42.78176808702674 0 0,0 -0.7015382182419746,0.2173383332947058 l -6.266979898469421 -20.860737857257035" fill="#ffd413" stroke="none" /><path d="M 105.69591212413111 120.21278271476187 l 4.8276311870574915 17.131559982745774 a38.79877440501639,38.79877440501639 0 0,0 -0.6426159694763622,0.17514784006706965 l -4.532833816646434 -17.211908316956986" fill="#ff9a0e" stroke="none" /><path d="M 105.3480935250658 120.30758222061773 l 5.087391643652173 19.317654713354862 a40.97631941475464,40.97631941475464 0 0,0 -0.6817575765057455,0.17330010995549325 l -4.75502877392103 -19.402140055145626" fill="#ffba11" stroke="none" /><path d="M 104.9986988182912 120.39639698878246 l 2.7001981139009392 11.017729749581566 a32.3437841432711,32.3437841432711 0 0,0 -0.5403997086786562,0.12753285981604387 l -2.510666251482404 -11.062458753043835" fill="#ff3705" stroke="none" /><path d="M 104.64783097203109 120.47920084513623 l 4.901112847638652 21.595207522705564 a43.1443874400266,43.1443874400266 0 0,0 -0.7236702270629846,0.15772055778498764 l -4.529680203956532 -21.676159538624272" fill="#ffd914" stroke="none" /><path d="M 104.29559338865022 120.5559693870025 l 3.6549580058338487 17.490297167607025 a38.868106028217184,38.868106028217184 0 0,0 -0.6542862896061955,0.13087558227748133 l -3.3541752306966943 -17.550462146547368" fill="#ff9b0e" stroke="none" /><path d="M 103.58742460773223 120.69131181640829 l 2.1823457093068725 12.587190115477865 a33.77497506056719,33.77497506056719 0 0,0 -0.5721199268031035,0.09414211623828213 l -1.9659482794506966 -12.622798230211817" fill="#ff4e07" stroke="none" /><path d="M 103.2317021107853 120.74984581791261 l 2.1522420665124984 13.818937981294289 a34.9855351289725,34.9855351289725 0 0,0 -0.5942124784468988,0.08732877150118971 l -1.9147044824579138 -13.853847826094361" fill="#ff6108" stroke="none" /><path d="M 102.875027216393 120.80226474461374 l 3.8541061648096275 27.88639228772389 a49.15146548857537,49.15146548857537 0 0,0 -0.8367970951778977,0.10834013723226386 l -3.3748312477409548 -27.948444021156547" fill="#d3ff1c" stroke="none" /><path d="M 102.51750503828377 120.84855314841334 l 2.09080521515914 17.314866500104994 a38.44064414992161,38.44064414992161 0 0,0 -0.6558048913455321,0.07348430595336966 l -1.7932644222128087 -17.348206566565334" fill="#ff950d" stroke="none" /><path d="M 102.15924093988457 120.88869738790638 l 1.1983645325239345 11.59308978350077 a32.654862001805135,32.654862001805135 0 0,0 -0.5580878204785684,0.05285149684103997 l -0.9991771486603508 -11.611953035846993" fill="#ff3c05" stroke="none" /><path d="M 101.80034050326958 120.92268563240118 l 1.2915938622335417 15.010278497414221 a36.06574509524488,36.06574509524488 0 0,0 -0.6172927149411417,0.047782360168424 l -1.0337321525171643 -15.0302386245777" fill="#ff710a" stroke="none" /><path d="M 101.08105385017728 120.97215588758144 l 1.5270979046809379 29.625291383325262 a50.66462400836065,50.66462400836065 0 0,0 -0.8689567817455355,0.03731674309906296 l -1.0183153623345729 -29.647140694850158" fill="#bfff1e" stroke="none" /><path d="M 100.72087961077811 120.9876233191556 l 1.5182784125820017 44.20301939526591 a65.22908650420408,65.22908650420408 0 0,0 -1.119414014830613,0.028832134187160987 l -0.7592510836806446 -44.22256924680312" fill="#33ff50" stroke="none" /><line stroke="#e1ed5e" stroke-width="0.3" x1="101.45913802915013" x2="101.54496967792366" y1="184.9874750549273" y2="189.98673829345242" /><path d="M 101.47630435890484 185.9873277026323 a86.0,86.0 0 0,1 -42.54439059252881,-10.42667462771756" fill="none" id="id55" stroke="none" /><text fill="#e1ed5e" style="font-size:6.75px; font-family:Arial;" text-anchor="middle"><textPath startOffset="22.145653131862474" xlink:href="#id55">July</textPath></text><path d="M 100.0 121.0 l 2.2039511943213028e-15 17.996627238610998 a38.996627238611,38.996627238611 0 0,0 -0.669428962499395,-0.005746242519819483 l 0.3089360376505407 -17.993975394285613" fill="#ff9d0e" stroke="none" /><path d="M 99.63950707515114 120.99690560180557 l -0.2829406806641478 16.47987617317778 a37.48230487862809,37.48230487862809 0 0,0 -0.6432439826761317,-0.016567683250243905 l 0.5657979774110234 -16.47259077257749" fill="#ff870c" stroke="none" /><path d="M 99.27912038922189 120.98762331915562 l -0.6896030263952257 20.077039690595026 a41.08887938815258,41.08887938815258 0 0,0 -0.7047217086377013,-0.030263782399791998 l 1.034150495633766 -20.062243339769406" fill="#ffbc11" stroke="none" /><path d="M 98.91894614982273 120.97215588758144 l -1.2579085974276973 24.403090737114283 a45.435490000475035,45.435490000475035 0 0,0 -0.7785817947762238,-0.04683754738458477 l 1.6766347443363674 -24.377901211905005" fill="#fff917" stroke="none" /><path d="M 97.84075906011543 120.88869738790638 l -2.566947123084948 24.83288486913591 a45.96520355327537,45.96520355327537 0 0,0 -0.7841753432738066,-0.08786848284707241 l 2.9928583679595535 -24.785160625781867" fill="#feff18" stroke="none" /><path d="M 97.48249496171623 120.84855314841334 l -2.603809701686686 21.563279567844166 a42.71991829366776,42.71991829366776 0 0,0 -0.7273008684285434,-0.09416365848873044 l 2.9735883920060235 -21.515404313155038" fill="#ffd313" stroke="none" /><path d="M 97.12497278360702 120.80226474461374 l -2.7331719631780773 19.775870797466077 a40.96384969835162,40.96384969835162 0 0,0 -0.695751274526773,-0.10225147784445197 l 3.072248343312535 -19.72603824632274" fill="#ffba11" stroke="none" /><path d="M 96.76829788921471 120.74984581791261 l -2.5700662036803488 16.501668668724122 a37.70060804712365,37.70060804712365 0 0,0 -0.6386168776638377,-0.10508416419735968 l 2.85296058439725 -16.455118506031095" fill="#ff8a0c" stroke="none" /><path d="M 96.05791012581884 120.62667999033965 l -3.4416898381357983 18.008375552821914 a39.334307158804805,39.334307158804805 0 0,0 -0.6621340866591569,-0.13244536147844832 l 3.750320410325913 -17.9466407946806" fill="#ffa20f" stroke="none" /><path d="M 95.70440661134978 120.55596938700252 l -3.648088103655744 17.45742219875223 a38.83452092537172,38.83452092537172 0 0,0 -0.6513798953574529,-0.14196521645316065 l 3.9472304156323337 -17.39222552416535" fill="#ff9b0e" stroke="none" /><path d="M 95.35216902796893 120.47920084513623 l -4.821959961625005 21.246445302241863 a42.786755973587944,42.786755973587944 0 0,0 -0.7148808055671327,-0.1687099235943283 l 5.185972920932025 -21.16053923500131" fill="#ffd413" stroke="none" /><path d="M 94.6519064749342 120.30758222061772 l -7.794634812718828 29.597497986355624 a51.60666951688755,51.60666951688755 0 0,0 -0.8547504520852381,-0.2329660366222565 l 8.301566665738761 -29.459331455589222" fill="#b3ff20" stroke="none" /><path d="M 94.30408787586889 120.21278271476187 l -6.643923023640909 23.576938956189228 a45.49517837632416,45.49517837632416 0 0,0 -0.7498904990417826,-0.21828219524983256 l 7.047673535064298 -23.459413066636877" fill="#fffa17" stroke="none" /><path d="M 93.95794788825049 120.11202640906438 l -6.870295348514435 22.868978772741016 a44.87867559735879,44.87867559735879 0 0,0 -0.735923444107892,-0.2279909641640338 l 7.26185942549396 -22.747671220770332" fill="#fff116" stroke="none" /><path d="M 93.61358852112213 120.00534299687104 l -3.738780612026876 11.711677016275038 a33.29397653318132,33.29397653318132 0 0,0 -0.5429728540906766,-0.17848596195087 l 3.939276203765296 -11.645770132922147" fill="#ff4606" stroke="none" /><path d="M 92.93061703081489 119.77432235084164 l -5.622047338255796 15.725866998994434 a37.70060804712365,37.70060804712365 0 0,0 -0.6075378453515556,-0.2230963120890996 l 5.8911743352614705 -15.627039837896614" fill="#ff8a0c" stroke="none" /><path d="M 92.59220618246901 119.65005319985036 l -8.469820407303851 22.467204905572107 a45.010688328345445,45.010688328345445 0 0,0 -0.7206591381070736,-0.2787664361413524 l 8.854251807904452 -22.318498581292715" fill="#fff316" stroke="none" /><path d="M 92.25597844496254 119.51999308798841 l -7.166343763867104 18.06386768717588 a40.43347109400978,40.43347109400978 0 0,0 -0.6429798709728491,-0.26149431596663775 l 7.475378096030394 -17.93818611462995" fill="#ffb210" stroke="none" /><path d="M 91.59046798132341 119.24265499422711 l -9.183398586005756 21.01341314505051 a43.93247351669754,43.93247351669754 0 0,0 -0.6884565816069012,-0.30793787213857204 l 9.542768570468294 -20.852671522002083" fill="#ffe415" stroke="none" /><path d="M 91.26138138417905 119.09545874513695 l -10.225289374270755 22.34410265370427 a45.57265688090827,45.57265688090827 0 0,0 -0.7085708004989836,-0.3316469124706559 l 10.607348888641228 -22.165279509663087" fill="#fffb17" stroke="none" /><path d="M 90.93487009805054 118.94263497670748 l -12.152223408770617 25.39347308616483 a49.15146548857537,49.15146548857537 0 0,0 -0.7579618253440117,-0.3707571107271943 l 12.586345483376698 -25.181122225340413" fill="#d3ff1c" stroke="none" /><path d="M 90.6110303473126 118.78422872680471 l -8.764554778630943 17.534980699750093 a40.60339176286162,40.60339176286162 0 0,0 -0.620792561959706,-0.3169811054587534 l 9.064274562304231 -17.381941642618504" fill="#ffb510" stroke="none" /><path d="M 90.28995756902619 118.62028667847754 l -9.875558885884002 18.937686304930455 a42.35796399220939,42.35796399220939 0 0,0 -0.641846565849101,-0.3417471441630536 l 10.199194267519665 -18.765368693044827" fill="#ffce13" stroke="none" /><path d="M 89.97174638481275 118.45085714620012 l -6.801024309401965 12.513118713967312 a35.24191249821861,35.24191249821861 0 0,0 -0.5290579874075001,-0.293459547291599 l 7.0148264849655675 -12.394526251242565" fill="#ff6509" stroke="none" /><line stroke="#e1ed5e" stroke-width="0.3" x1="58.13341422392154" x2="55.67067388415222" y1="173.97424548756322" y2="178.32567169271397" /><path d="M 57.64086615596768 174.84453072859336 a86.0,86.0 0 0,1 -31.369924170532247,-30.572349798747897" fill="none" id="id56" stroke="none" /><text fill="#e1ed5e" style="font-size:6.75px; font-family:Arial;" text-anchor="middle"><textPath startOffset="22.145653131862474" xlink:href="#id56">August</textPath></text><path d="M 89.03521579738668 117.91015095944536 l -13.395065691633318 21.87983312901507 a46.65452947603439,46.65452947603439 0 0,0 -0.679458508009953,-0.4240323615321824 l 13.768688328432983 -21.64666497064134" fill="#f4ff19" stroke="none" /><path d="M 88.72937992617639 117.7192867562869 l -6.7213607147775205 10.567095431971202 a33.52358557788229,33.52358557788229 0 0,0 -0.48292220455100426,-0.31302433848941236 l 6.901768551585534 -10.450157251777895" fill="#ff4a06" stroke="none" /><path d="M 88.4268655584334 117.5232005979908 l -11.764544808836819 17.8130202902398 a42.34732316754548,42.34732316754548 0 0,0 -0.6031543594556439,-0.4058291709655692 l 12.068595456389469 -17.608441445217107" fill="#ffce13" stroke="none" /><path d="M 88.1277618465304 117.32195027204791 l -10.13914291592211 14.793312526287465 a38.93444491948126,38.93444491948126 0 0,0 -0.5480577638392052,-0.38258688347069586 l 10.39159577093508 -14.61708082701164" fill="#ff9c0e" stroke="none" /><path d="M 87.54013794807813 116.9041958592261 l -12.887008843719745 17.48370251821657 a42.71991829366776,42.71991829366776 0 0,0 -0.5865790835216844,-0.44017987978979217 l 13.185240916152194 -17.259903611162766" fill="#ffd313" stroke="none" /><path d="M 87.2517909369889 116.68781488649013 l -8.114561177132547 10.622221061779694 a34.367037195382636,34.367037195382636 0 0,0 -0.46573890562652914,-0.36216139001177444 l 8.295710027394305 -10.481358620147127" fill="#ff5708" stroke="none" /><path d="M 86.96720088162412 116.46651593811092 l -22.120036088568323 27.947942993338323 a56.64243978908365,56.64243978908365 0 0,0 -0.7572533969516048,-0.6099897334288227 l 22.59654025587519 -27.564104966116087" fill="#75ff27" stroke="none" /><path d="M 86.40962598614128 116.0094264158162 l -12.781446236586149 15.056511528209068 a40.75003562776115,40.75003562776115 0 0,0 -0.5294021866498896,-0.45728499990254895 l 13.0380279029989 -14.834882395841797" fill="#ffb711" stroke="none" /><path d="M 85.86807049272751 115.53346607816431 l -15.216109173523266 16.72516945169693 a43.61108735927034,43.61108735927034 0 0,0 -0.5494378740899384,-0.5085514936264721 l 15.500976818927171 -16.461500211938084" fill="#ffe015" stroke="none" /><path d="M 85.60350026404147 115.28858382429668 l -15.727343329430342 16.701893601603285 a43.94128544962234,43.94128544962234 0 0,0 -0.5447202670944197,-0.5218296938055057 l 16.011736082390076 -16.429451777492197" fill="#ffe415" stroke="none" /><path d="M 85.34317274990678 115.03919595460226 l -11.656091767533708 11.960176999128572 a37.70060804712365,37.70060804712365 0 0,0 -0.4596028702893814,-0.4556746642330593 l 11.859686557953053 -11.758322324666855" fill="#ff8a0c" stroke="none" /><path d="M 85.08716467003676 114.78537596483092 l -25.107039209623412 24.892450420355342 a56.35530378604342,56.35530378604342 0 0,0 -0.675225631320204,-0.6928409818659782 l 25.530651642094426 -24.457786746421625" fill="#79ff26" stroke="none" /><path d="M 84.58840730492382 114.26474011684316 l -12.363585589135036 11.443550243687945 a37.846753123367066,37.846753123367066 0 0,0 -0.43722425349517213,-0.4805860450070111 l 12.558207543472088 -11.22962662312326" fill="#ff8c0c" stroke="none" /><path d="M 84.3458050057657 113.99807769240083 l -14.975011197990227 13.390747353744255 a41.08887938815258,41.08887938815258 0 0,0 -0.46565231851048333,-0.5298268598478122 l 15.202674580459304 -13.13170821608514" fill="#ffbc11" stroke="none" /><path d="M 84.1078160697243 113.72728997021213 l -14.141987752183338 12.215512196506594 a39.687283264452994,39.687283264452994 0 0,0 -0.44091709263000417,-0.5193992264478843 l 14.349599408320454 -11.970946187609156" fill="#ffa70f" stroke="none" /><path d="M 83.8745106332314 113.45245675266167 l -11.239302415673892 9.37622581479754 a35.63678685098095,35.63678685098095 0 0,0 -0.38785242794793645,-0.473116898173836 l 11.398601662860457 -9.181906634925207" fill="#ff6b09" stroke="none" /><path d="M 83.4222238831116 112.89097897827486 l -20.120369146284755 15.645720745115835 a46.48760153911928,46.48760153911928 0 0,0 -0.4844628416370325,-0.6341774111690097 l 20.385983965276083 -15.298022420705955" fill="#f6ff19" stroke="none" /><path d="M 83.20337586046588 112.60449989151573 l -9.466436189672192 7.103790198229277 a32.83542349532089,32.83542349532089 0 0,0 -0.3344490843694658,-0.45374441575364344 l 9.586987293625489 -6.940239473206754" fill="#ff3f05" stroke="none" /><path d="M 82.98947788004972 112.3143062007846 l -17.937504399110555 12.985369884061727 a43.1443874400266,43.1443874400266 0 0,0 -0.4291529104473885,-0.6036573128356313 l 18.157772408087904 -12.675535344516591" fill="#ffd914" stroke="none" /><path d="M 82.18462484594161 111.11811171558189 l -9.698269004186228 6.052437139486482 a32.43190347251912,32.43190347251912 0 0,0 -0.29070110510562397,-0.4748384081538438 l 9.800738073747258 -5.885061615208081" fill="#ff3905" stroke="none" /><path d="M 81.99639281039703 110.81064883170644 l -16.28785797942095 9.78039072847105 a39.99869364875778,39.99869364875778 0 0,0 -0.34841964899158057,-0.591692735798593 l 16.4533513385423 -9.499346824378899" fill="#ffac0f" stroke="none" /><line stroke="#e1ed5e" stroke-width="0.3" x1="26.387840678322732" x2="22.057713659400548" y1="142.50000000000003" y2="145.00000000000006" /><path d="M 25.521815274538298 143.00000000000003 a86.0,86.0 0 0,1 -11.493303480769221,-40.785679425670985" fill="none" id="id57" stroke="none" /><text fill="#e1ed5e" style="font-size:6.75px; font-family:Arial;" text-anchor="middle"><textPath startOffset="21.40746469413373" xlink:href="#id57">September</textPath></text><path d="M 81.81346652052679 110.50000000000001 l -10.272815472685512 5.93101277849034 a32.86202555698067,32.86202555698067 0 0,0 -0.27786663317783444,-0.49096371615868234 l 10.373115470884724 -5.753792292232536" fill="#ff3f05" stroke="none" /><path d="M 81.4637452351635 109.86951160357371 l -21.98268966814608 11.704544068368145 a45.904517600114005,45.904517600114005 0 0,0 -0.3643767943588777,-0.6987405480643767 l 22.180374531479906 -11.325457277199266" fill="#feff18" stroke="none" /><path d="M 81.29705330413844 109.54985784667822 l -19.344117813568392 9.877244387904422 a42.71991829366776,42.71991829366776 0 0,0 -0.32788572086480355,-0.6559910836664373 l 19.510823447644935 -9.543721448074233" fill="#ffd313" stroke="none" /><path d="M 81.1358732173502 109.22738970284198 l -21.039596441383974 10.291520927103656 a44.421785188352096,44.421785188352096 0 0,0 -0.32918815113127353,-0.6878766275810291 l 21.21316385047516 -9.928831797457523" fill="#ffeb16" stroke="none" /><path d="M 80.9802524753101 108.90220220490708 l -16.314795069652092 7.636147874893095 a39.01341979003372,39.01341979003372 0 0,0 -0.2786961451255359,-0.6090013737455502 l 16.443475679632684 -7.354957518932856" fill="#ff9e0e" stroke="none" /><path d="M 80.68587082218212 108.24405325689762 l -15.90549258491858 6.789108985449666 a38.293834022136714,38.293834022136714 0 0,0 -0.2528745282133241,-0.6068068119723105 l 16.01969295766839 -6.515069664036075" fill="#ff930d" stroke="none" /><path d="M 80.5471966667186 107.91128576633889 l -14.855660468373024 6.041667784299647 a37.037219134482925,37.037219134482925 0 0,0 -0.23446557082419858,-0.5910064027239763 l 14.957184714163349 -5.785760364362105" fill="#ff800b" stroke="none" /><path d="M 80.41425534168474 107.57618678355246 l -16.378983304666512 6.335742602881198 a38.561683530473616,38.561683530473616 0 0,0 -0.23351728216830747,-0.6194323344735134 l 16.485331270649258 -6.05364198821354" fill="#ff970d" stroke="none" /><path d="M 80.16572619554312 106.89939002012753 l -22.383241647583453 7.786053352088878 a44.69877915538454,44.69877915538454 0 0,0 -0.24587431573162385,-0.7268837254577651 l 22.513601384887444 -7.400667952156951" fill="#ffef16" stroke="none" /><path d="M 80.05021161711548 106.5578916946017 l -18.488926723475632 6.0776774507544395 a40.46223457317942,40.46223457317942 0 0,0 -0.21124231370085292,-0.6617135389748852 l 18.59053375295374 -5.7593948780881625" fill="#ffb310" stroke="none" /><path d="M 79.94057633289273 106.21446072829308 l -7.576003413868048 2.3470652235187948 a28.931238420977625,28.931238420977625 0 0,0 -0.14289783408934179,-0.47566041468166037 l 7.61517756796102 -2.2166672052464107" fill="#ff0000" stroke="none" /><path d="M 79.83685265289637 105.86919833188381 l -25.542445053905766 7.435033495609111 a47.602560448434744,47.602560448434744 0 0,0 -0.22165000675043534,-0.7865576798826437 l 25.666313552730777 -6.995467891823471" fill="#e7ff1a" stroke="none" /><path d="M 79.64726062577567 105.17358676015961 l -24.62580591679301 6.25978356558383 a46.408959194337555,46.408959194337555 0 0,0 -0.18964131334621462,-0.7738012737094132 l 24.729634756655518 -5.836126467266317" fill="#f8ff18" stroke="none" /><path d="M 79.56144815229197 104.8234425847677 l -23.782191871374295 5.612532526093176 a45.435490000475035,45.435490000475035 0 0,0 -0.17263136199253173,-0.7606456335630342 l 23.875034094924494 -5.203452558591115" fill="#fff917" stroke="none" /><path d="M 79.48165901384964 104.47187691870673 l -20.801815286823594 4.533658823154209 a42.29012873497696,42.29012873497696 0 0,0 -0.14850337630711552,-0.7106424144569315 l 20.876576373955075 -4.175899957411868" fill="#ffcd13" stroke="none" /><path d="M 79.407916724674 104.11899336999214 l -12.4244412953149 2.4852362258353597 a33.67056196855256,33.67056196855256 0 0,0 -0.10850532235025474,-0.5677456965214902 l 12.465272909947311 -2.271587964280555" fill="#ff4c07" stroke="none" /><path d="M 79.2786578344484 103.40968896794605 l -31.376659033399626 5.163017303726831 a52.798608142131016,52.798608142131016 0 0,0 -0.13948514270960705,-0.8955946760855922 l 31.4606656682475 -4.623634445709789" fill="#a4ff21" stroke="none" /><path d="M 79.22317932658666 103.0534771498775 l -18.166270548422688 2.6698161807346543 a39.36140800912071,39.36140800912071 0 0,0 -0.09250958673131818,-0.6693532859887522 l 18.20942465170922 -2.3575745865458164" fill="#ffa30f" stroke="none" /><path d="M 79.17382384314188 102.69636545807758 l -22.423928021060583 2.9032264250052955 a43.61108735927034,43.61108735927034 0 0,0 -0.08975143864834857,-0.7432706629585176 l 22.470461545968593 -2.5178620851233786" fill="#ffe015" stroke="none" /><path d="M 79.13060592940153 102.33845913500099 l -21.236532556694694 2.3795977681456635 a42.369436131300176,42.369436131300176 0 0,0 -0.07478731568038818,-0.723499437624115 l 21.27425226485675 -2.014693808238617" fill="#ffce13" stroke="none" /><path d="M 79.06263194458094 101.62068470465958 l -31.194201843434307 2.414628508602469 a52.28751603249251,52.28751603249251 0 0,0 -0.061589810817236405,-0.8955023321771968 l 31.231055615416608 -1.8787827522709286" fill="#abff21" stroke="none" /><path d="M 79.03789590574601 101.26102812881392 l -27.946816720026117 1.6812110958088557 a48.99733979383402,48.99733979383402 0 0,0 -0.04330060702046575,-0.840020208346905 l 27.971558916503156 -1.2012190940852199" fill="#d5ff1c" stroke="none" /><line stroke="#e1ed5e" stroke-width="0.3" x1="15.003131293944662" x2="10.003315487706104" y1="100.72959589197737" y2="100.7725132973878" /><path d="M 14.003168132696942 100.73817937305945 a86.0,86.0 0 0,1 10.791469493833604,-42.45332614584628" fill="none" id="id58" stroke="none" /><text fill="#e1ed5e" style="font-size:6.75px; font-family:Arial;" text-anchor="middle"><textPath startOffset="22.145653131862435" xlink:href="#id58">October</textPath></text><path d="M 79.2786578344484 96.59031103205396 l -19.629873118733443 -3.230088151644794 a40.893853023609324,40.893853023609324 0 0,0 0.11992644770974883,-0.691703881176539 l 19.571531853531457 3.5665850657419256" fill="#ffb911" stroke="none" /><path d="M 79.407916724674 95.88100663000787 l -25.940553529552602 -5.188837213483034 a47.45442021756686,47.45442021756686 0 0,0 0.16663797992123,-0.7974230575508773 l 25.847657838807006 5.633376722319321" fill="#e9ff1a" stroke="none" /><path d="M 79.48165901384962 95.52812308129327 l -25.38288994526769 -5.532082723107722 a46.97874210251294,46.97874210251294 0 0,0 0.17849492178401477,-0.7864815599036914 l 25.284184161926014 5.9669986169504226" fill="#f0ff19" stroke="none" /><path d="M 79.56144815229197 95.17655741523228 l -23.168417172164776 -5.467683368301602 a44.804854876252904,44.804854876252904 0 0,0 0.18308644861950285,-0.7470551887713587 l 23.071143197028977 5.864594381681078" fill="#fff016" stroke="none" /><path d="M 79.73907114497095 94.47779374421319 l -18.083343394266944 -4.928695655163676 a39.74298133105316,39.74298133105316 0 0,0 0.18505374495248153,-0.6566904572545679 l 17.996071157239882 5.238394036321257" fill="#ffa80f" stroke="none" /><path d="M 79.83685265289637 94.1308016681162 l -19.224001179518474 -5.59582656976266 a41.02187544534701,41.02187544534701 0 0,0 0.20261618483543498,-0.674443381974446 l 19.12510867467941 5.925007555327829" fill="#ffbb11" stroke="none" /><path d="M 79.94057633289273 93.78553927170692 l -34.42084405385989 -10.66366547500413 a57.03482019856539,57.03482019856539 0 0,0 0.29776327252679763,-0.9327392101919545 l 34.23271606555583 11.252973718887477" fill="#71ff27" stroke="none" /><path d="M 80.05021161711548 93.44210830539832 l -17.443152580655198 -5.733910718295502 a39.36140800912071,39.36140800912071 0 0,0 0.21651506916627214,-0.6400883297835259 l 17.34215208991656 6.0325007225531895" fill="#ffa30f" stroke="none" /><path d="M 80.28708602549916 92.7611449362534 l -19.363935496463494 -7.1107053327556935 a41.62823618830459,41.62823618830459 0 0,0 0.25208734905132596,-0.6686916431373867 l 19.23901746359773 7.442065256087226" fill="#ffc412" stroke="none" /><path d="M 80.68587082218212 91.75594674310238 l -19.97625274550232 -8.526674435641032 a42.71991829366776,42.71991829366776 0 0,0 0.2936813697432728,-0.6720004470702043 l 19.826937493742072 8.868336952487104" fill="#ffd313" stroke="none" /><path d="M 80.83023694016515 91.42560881287825 l -28.243626964125127 -12.633015096621376 a51.940192864947036,51.940192864947036 0 0,0 0.37103980134129105,-0.8107889279535501 l 28.02260269792879 13.115993006789598" fill="#afff20" stroke="none" /><path d="M 80.9802524753101 91.09779779509293 l -22.61330012653938 -10.58416627168064 a45.967697496555985,45.967697496555985 0 0,0 0.34064415210898386,-0.7118152635587617 l 22.42827671647049 10.97079403730449" fill="#feff18" stroke="none" /><path d="M 81.29705330413844 90.45014215332179 l -22.15890344324261 -11.314493986557734 a45.88040948173483,45.88040948173483 0 0,0 0.3641854310824217,-0.698373583749575 l 21.96140994318525 11.693213813411795" fill="#ffff18" stroke="none" /><path d="M 81.63589988554816 89.8137432299009 l -16.430654329437818 -9.113806985221284 a39.78903615030164,39.78903615030164 0 0,0 0.33643834563105546,-0.5944543198304334 l 16.27178261878539 9.394518075150822" fill="#ffa90f" stroke="none" /><line stroke="#e1ed5e" stroke-width="0.3" x1="26.387840678322718" x2="22.05771365940052" y1="57.49999999999999" y2="54.99999999999999" /><path d="M 25.521815274538284 56.99999999999999 a86.0,86.0 0 0,1 29.574782752854787,-30.34633250058573" fill="none" id="id59" stroke="none" /><text fill="#e1ed5e" style="font-size:6.75px; font-family:Arial;" text-anchor="middle"><textPath startOffset="21.40746469413373" xlink:href="#id59">November</textPath></text><path d="M 81.81346652052679 89.5 l -11.72118958214999 -6.767231960476936 a34.53446392095387,34.53446392095387 0 0,0 0.3008219694150992,-0.5108614700310514 l 11.603293902605111 6.96744459880156" fill="#ff5a08" stroke="none" /><path d="M 81.99639281039701 89.18935116829357 l -17.110881651398284 -10.2745927961026 a40.95869554890504,40.95869554890504 0 0,0 0.3671304112582014,-0.5996799358687231 l 16.93198327568469 10.566809848095867" fill="#ffba11" stroke="none" /><path d="M 82.37810715431573 88.57770195909679 l -16.17579432823049 -10.4849544531563 a40.276685193102466,40.276685193102466 0 0,0 0.3810472871025142,-0.5769541590423058 l 15.993422602207247 10.761088490537666" fill="#ffb010" stroke="none" /><path d="M 82.576782715395 88.27688183743585 l -10.210513516295165 -6.870089174503474 a33.30661251246971,33.30661251246971 0 0,0 0.32324902199794425,-0.47162998350905966 l 10.091074757481907 7.044353893082568" fill="#ff4606" stroke="none" /><path d="M 82.98947788004972 87.6856937992154 l -15.317361984311319 -11.088588835368352 a39.90974300508289,39.90974300508289 0 0,0 0.4065054013198117,-0.5515026485131509 l 15.124754563407688 11.349897793150365" fill="#ffab0f" stroke="none" /><path d="M 83.2033758604659 87.39550010848427 l -10.63336711001177 -7.979476915788623 a34.29438031447437,34.29438031447437 0 0,0 0.3573932056991478,-0.4678391787362101 l 10.494821926958316 8.160837007765718" fill="#ff5607" stroke="none" /><path d="M 83.42222388311158 87.10902102172516 l -24.397704711287815 -18.971802751695076 a51.90594271056006,51.90594271056006 0 0,0 0.5530048492165818,-0.6987035617420179 l 24.06843343142967 19.38782625735178" fill="#afff20" stroke="none" /><path d="M 83.64595745247003 86.82634096563983 l -18.35838579833171 -14.788216077191825 a44.57374946558358,44.57374946558358 0 0,0 0.48511772470569275,-0.5917647451022726 l 18.101821254387385 15.101183103992591" fill="#ffed16" stroke="none" /><path d="M 83.8745106332314 86.54754324733833 l -9.870935156533195 -8.234685179554338 a33.85478124554653,33.85478124554653 0 0,0 0.3761192626601613,-0.44306754567523615 l 9.72812133036592 8.402919507679131" fill="#ff4f07" stroke="none" /><path d="M 84.10781606972428 86.27271002978789 l -14.374508423435296 -12.416358014321668 a39.99453707662343,39.99453707662343 0 0,0 0.4532503488730587,-0.5157156949985886 l 14.159247010603645 12.661285987131556" fill="#ffac0f" stroke="none" /><path d="M 84.58840730492382 85.73525988315684 l -14.28744179567522 -13.224242826956088 a40.468220037052866,40.468220037052866 0 0,0 0.47626116672545415,-0.5057728547413893 l 14.058324795213494 13.46755714164199" fill="#ffb310" stroke="none" /><path d="M 84.83555147118756 85.47280134310135 l -17.96655661721643 -17.211554819340318 a45.88040948173483,45.88040948173483 0 0,0 0.5497198378195406,-0.5640609812773562 l 17.668449978246088 17.517438492685404" fill="#ffff18" stroke="none" /><path d="M 85.34317274990677 84.96080404539775 l -18.39686764619875 -18.876806880582244 a47.35865279559165,47.35865279559165 0 0,0 0.5870838264307007,-0.5624130253471826 l 18.07011133390275 19.189832036234996" fill="#ebff1a" stroke="none" /><path d="M 85.60350026404147 84.71141617570332 l -12.625575026145949 -13.407923151976302 a39.41677354995012,39.41677354995012 0 0,0 0.49659546629411533,-0.4596413498619973 l 12.39354978853788 13.622682247970664" fill="#ffa40f" stroke="none" /><path d="M 85.86807049272753 84.46653392183569 l -12.772732955609484 -14.039470971696366 a39.9802384684813,39.9802384684813 0 0,0 0.5116232529724628,-0.45749666763350805 l 12.52984467581363 14.256663169213274" fill="#ffac0f" stroke="none" /><path d="M 86.40962598614128 83.9905735841838 l -17.042358710647594 -20.075855708741436 a47.33404588855636,47.33404588855636 0 0,0 0.6239656557100175,-0.5205343421008559 l 16.695218720775667 20.365452234754176" fill="#ebff1a" stroke="none" /><path d="M 86.68645165197937 83.75963576809568 l -12.612169548060775 -15.384796138550941 a40.89368676072395,40.89368676072395 0 0,0 0.5467081454955783,-0.4403893825721912 l 12.346210632209951 15.599033814916531" fill="#ffb911" stroke="none" /><path d="M 86.96720088162412 83.53348406188908 l -19.268227765656714 -24.344776338567286 a52.04726616312763,52.04726616312763 0 0,0 0.7053397313785071,-0.548476441329153 l 18.847478089642962 24.671953831517243" fill="#aeff20" stroke="none" /><path d="M 87.54013794807813 83.09580414077388 l -14.822486916485147 -20.109550243249558 a45.98199610469811,45.98199610469811 0 0,0 0.6394102877848613,-0.4628837384409166 l 14.475095618326318 20.361034753063553" fill="#fdff18" stroke="none" /><path d="M 87.83215693770416 82.88440491214696 l -14.496385923749397 -20.39098223389911 a46.018740202365684,46.018740202365684 0 0,0 0.647779309610404,-0.452200267184533 l 14.144211522965229 20.63682731688877" fill="#fdff18" stroke="none" /><path d="M 88.12776184653039 82.6780497279521 l -14.10999703839709 -20.586907361391596 a45.95822051208968,45.95822051208968 0 0,0 0.6545844927439575,-0.4404336598958707 l 13.754516257556142 20.826090695344575" fill="#feff18" stroke="none" /><path d="M 88.72937992617638 82.28071324371311 l -13.503935032793565 -21.230428815542574 a46.16122749513087,46.16122749513087 0 0,0 0.6722742489100129,-0.4195488525083206 l 13.137496655093855 21.459113464892432" fill="#fbff18" stroke="none" /><path d="M 89.03521579738668 82.08984904055464 l -16.196986225286096 -26.45655974823394 a52.02083036435324,52.02083036435324 0 0,0 0.7656159353478085,-0.4597303712437943 l 15.740437533380852 26.73070412001366" fill="#aeff20" stroke="none" /><line stroke="#e1ed5e" stroke-width="0.3" x1="56.869717070023135" x2="54.33264160355391" y1="26.7553504044142" y2="22.446841604673864" /><path d="M 56.362301976729285 25.89364864446614 a86.0,86.0 0 0,1 42.16139366436587,-11.88097634709845" fill="none" id="id60" stroke="none" /><text fill="#e1ed5e" style="font-size:6.75px; font-family:Arial;" text-anchor="middle"><textPath startOffset="22.145653131862474" xlink:href="#id60">December</textPath></text><path d="M 89.34428304082924 81.90426304109057 l -9.146608405613149 -15.532940712325955 a39.02588950643674,39.02588950643674 0 0,0 0.5801988882074923,-0.3349779842901155 l 8.878617049545257 15.687665593892243" fill="#ff9e0e" stroke="none" /><path d="M 90.28995756902619 81.37971332152246 l -9.478719155161107 -18.176693795989458 a41.499714977910784,41.499714977910784 0 0,0 0.6344966088596322,-0.3239784894510604 l 9.165295324587893 18.33673023711335" fill="#ffc212" stroke="none" /><path d="M 90.61103034731259 81.2157712731953 l -5.781933063554632 -11.56773929051924 a33.93225975013063,33.93225975013063 0 0,0 0.5232673590217892,-0.2559562865593064 l 5.58250545527079 11.665289327175762" fill="#ff5007" stroke="none" /><path d="M 91.26138138417902 80.90454125486306 l -13.456902574961026 -29.405760710539255 a53.33862999382452,53.33862999382452 0 0,0 0.8358584876671875,-0.3738688698427892 l 12.95013068443822 29.63243333129189" fill="#9dff22" stroke="none" /><path d="M 91.5904679813234 80.7573450057729 l -11.444210180278267 -26.18659251090784 a49.57809605244407,49.57809605244407 0 0,0 0.7827789376581791,-0.3341217815734224 l 10.992996167449657 26.379188942140665" fill="#cdff1d" stroke="none" /><path d="M 92.25597844496254 80.48000691201159 l -9.1881547213744 -23.160152044763844 a45.91615600209016,45.91615600209016 0 0,0 0.735156440360806,-0.2843743040906203 l 8.789226018520065 23.314466236992505" fill="#feff18" stroke="none" /><path d="M 92.592206182469 80.34994680014964 l -6.528167420722215 -17.316739676412393 a39.506389245166496,39.506389245166496 0 0,0 0.6366376523590032,-0.23378216429656196 l 6.229940616709085 17.42625268971768" fill="#ffa50f" stroke="none" /><path d="M 92.93061703081487 80.22567764915836 l -6.944233409234702 -19.424256757944374 a41.62823618830459,41.62823618830459 0 0,0 0.6749606734316659,-0.2347863592165674 l 6.609766963758032 19.540601549729526" fill="#ffc412" stroke="none" /><path d="M 93.27111125876988 80.10723608172694 l -5.878308106561306 -17.378173410148758 a39.34544677212484,39.34544677212484 0 0,0 0.6416628998353834,-0.2109273402205402 l 5.579122469078162 17.476521671771327" fill="#ffa20f" stroke="none" /><path d="M 93.61358852112211 79.99465700312896 l -6.451789450171327 -20.210138560778944 a42.21497791078808,42.21497791078808 0 0,0 0.6922439560332231,-0.21445894710429078 l 6.1039048612664875 20.31791409568988" fill="#ffcc13" stroke="none" /><path d="M 93.95794788825049 79.88797359093562 l -4.567057774080003 -15.202249974872096 a36.87345019238991,36.87345019238991 0 0,0 0.6077797901447922,-0.17691583903358182 l 4.305417971553586 15.278409508208199" fill="#ff7e0b" stroke="none" /><path d="M 94.6519064749342 79.69241777938228 l -5.986573900221916 -22.7319962017801 a44.50707804854876,44.50707804854876 0 0,0 0.7405017849603764,-0.18823265802722444 l 5.595466822036161 22.831414091642586" fill="#ffec16" stroke="none" /><path d="M 95.00130118170881 79.60360301121753 l -6.114072029349255 -24.94750031194095 a46.68578689848463,46.68578689848463 0 0,0 0.7800257857156675,-0.18408396152879708 l 5.684914089893681 25.048780417115978" fill="#f4ff19" stroke="none" /><path d="M 95.35216902796891 79.52079915486377 l -3.859319562686466 -17.00487408544485 a38.437318892214144,38.437318892214144 0 0,0 0.644717538963515,-0.14051318688593922 l 3.566839607103833 17.068618730464504" fill="#ff950d" stroke="none" /></svg>