<?xml version="1.0" encoding="utf-8" ?>
<svg baseProfile="full" height="200mm" version="1.1" viewBox="0,0,200,200" width="200mm" xmlns="http://www.w3.org/2000/svg" xmlns:ev="http://www.w3.org/2001/xml-events" xmlns:xlink="http://www.w3.org/1999/xlink"><defs /><rect fill="#1a1a1a" height="200" width="200" x="0" y="0" /><text alignment-baseline="middle" fill="#e1ed5e" style="dominant-baseline: central; font-size:9.0px; font-family:Arial;" text-anchor="middle" x="100.0" y="100.0">2023</text><line stroke="#e1ed5e" stroke-width="0.3" x1="100.0" x2="100.0" y1="15.0" y2="10.0" /><path d="M 100.0 14.0 a86.0,86.0 0 0,1 42.46469731375804,11.215312516191453" fill="none" id="id37" stroke="none" /><text fill="#e1ed5e" style="font-size:6.75px; font-family:Arial;" text-anchor="middle"><textPath startOffset="22.20632615414155" xlink:href="#id37">January</textPath></text><path d="M 100.0 79.0 l 0.0 -15.19683387373641 a36.19683387373641,36.19683387373641 0 0,0 0.6230689931822061,0.005362951534220704 l -0.2615885139096777 15.194582298810747" fill="#ff2c04" stroke="none" /><path d="M 100.36148047927253 79.00311137660856 l 0.3719355493999851 -21.604179903567186 a42.607381270265115,42.607381270265115 0 0,0 0.7331987016748035,0.018936359317386523 l -0.7437608862696563 21.59457675210744" fill="#ff980e" stroke="none" /><path d="M 101.80526077348638 79.07773832637324 l 2.7840592839249307 -32.26615107837048 a53.38603852756056,53.38603852756056 0 0,0 0.914871134774342,0.08687803796052852 l -3.339055545789517 32.21344749589477" fill="#c2ff1e" stroke="none" /><path d="M 102.16513564639614 79.11191278185805 l 4.316791183389209 -41.646125447718305 a62.86925424375358,62.86925424375358 0 0,0 1.075463307136609,0.12084083350302363 l -5.033021194035544 41.565648660744685" fill="#45ff2d" stroke="none" /><path d="M 102.52436894288641 79.15227682838746 l 1.725775291177118 -14.252467187197752 a35.35657066564944,35.35657066564944 0 0,0 0.6035623730527079,0.0783597183783343 l -1.970852392737672 14.220649145655281" fill="#ff1d02" stroke="none" /><path d="M 103.2404852339499 79.25152402106235 l 4.127003094266354 -26.424753820591103 a47.74508868968148,47.74508868968148 0 0,0 0.810918032662786,0.13380842360318163 l -4.581250333068016 26.349799134048297" fill="#ffe915" stroke="none" /><path d="M 104.66035177308747 79.52364482259891 l 10.519536850164458 -46.22006735406225 a68.40205988937632,68.40205988937632 0 0,0 1.1458202110501645,0.2711786239893191 l -11.313580748177145 46.03214281793207" fill="#35ff66" stroke="none" /><path d="M 105.01212808612495 79.60689891045804 l 7.2178140543275635 -29.36748804622412 a51.24146481022315,51.24146481022315 0 0,0 0.8547347454181071,0.21789091807006283 l -7.7222576884306955 29.23889413198519" fill="#e1ff1b" stroke="none" /><path d="M 105.36241919743992 79.69619591428918 l 5.595758437741596 -21.18729977043005 a42.91378981499142,42.91378981499142 0 0,0 0.712577575709406,0.19477436921524766 l -5.959633902674713 21.08783886038851" fill="#ff9d0e" stroke="none" /><path d="M 106.0581310904928 79.89281104454417 l 9.916659286068226 -32.91380445444107 a55.37526225443448,55.37526225443448 0 0,0 0.9103024057243253,0.2828353885836044 l -10.48174706450327 32.73822893097495" fill="#a6ff21" stroke="none" /><path d="M 106.40334571778207 80.00007090966166 l 5.926771814397376 -18.511419068533517 a40.437058935723826,40.437058935723826 0 0,0 0.6610827119347494,0.21794857632592157 l -6.244537348574543 18.40665676794836" fill="#ff740a" stroke="none" /><path d="M 109.08828744355905 81.06846463323043 l 10.322477918442528 -21.502440036069572 a44.851802403204275,44.851802403204275 0 0,0 0.6931285050576359,0.34011514720773445 l -10.691077690510596 21.321569728727006" fill="#ffbc11" stroke="none" /><path d="M 109.41281617654863 81.2277094730956 l 14.488032462470871 -28.893962173225958 a53.32281136753767,53.32281136753767 0 0,0 0.8169550157042063,0.41847608974865586 l -14.983247965763832 28.6402935581648" fill="#c3ff1e" stroke="none" /><path d="M 109.73455568895987 81.39251694778311 l 13.28690860420031 -25.39776180533918 a49.66336067137135,49.66336067137135 0 0,0 0.7540670741008483,0.40279651598812705 l -13.72212072482947 25.165286562849296" fill="#f8ff18" stroke="none" /><path d="M 110.05341064243156 81.56283822128135 l 10.367194514557804 -19.012616638736695 a42.65544535571238,42.65544535571238 0 0,0 0.6416108408463657,0.3570557382736843 l -10.692929444476205 18.83134550290283" fill="#ff990e" stroke="none" /><line stroke="#e1ed5e" stroke-width="0.3" x1="143.23703022742887" x2="145.7803849466894" y1="26.81831364943548" y2="22.513508569990506" /><path d="M 143.74570117128098 25.957352633546492 a86.0,86.0 0 0,1 28.547481713284135,27.462654790039103" fill="none" id="id38" stroke="none" /><text fill="#e1ed5e" style="font-size:6.75px; font-family:Arial;" text-anchor="middle"><textPath startOffset="19.985693538727396" xlink:href="#id38">February</textPath></text><path d="M 110.68208982089419 81.91981866633111 l 10.333548839435357 -17.49025143674323 a41.314800686629795,41.314800686629795 0 0,0 0.6091728342494371,0.3670198165539213 l -10.633083739902432 17.309785010730693" fill="#ff830c" stroke="none" /><path d="M 110.99172775467656 82.1063720568725 l 12.023484440185415 -19.57324289269492 a43.9711996948312,43.9711996948312 0 0,0 0.6415206397005173,0.40172016572724734 l -12.358624232258196 19.36337838564473" fill="#ffae10" stroke="none" /><path d="M 111.2981086023043 82.29822771554956 l 15.433965638133243 -24.18179491711963 a49.68739271409499,49.68739271409499 0 0,0 0.716996114056033,0.4663542171264834 l -15.847928777973555 23.912541775833617" fill="#f7ff18" stroke="none" /><path d="M 111.60114157652 82.49532879139004 l 7.032407760650363 -10.611023479293488 a33.72983024985695,33.72983024985695 0 0,0 0.4812047048248268,0.32491156474923966 l -7.214017159881732 10.488400002245577" fill="#ff0000" stroke="none" /><path d="M 112.19680574252982 82.90503203632743 l 16.66197786199879 -23.353325762095086 a49.6879649055884,49.6879649055884 0 0,0 0.6919751455946621,0.5027493715972204 l -17.061498323947237 23.06305715568119" fill="#f7ff18" stroke="none" /><path d="M 112.77801427241765 83.33499621200491 l 18.36363000420687 -23.94972779471985 a51.17966812893381,51.17966812893381 0 0,0 0.6945018692614575,0.54206972496468 l -18.77316442862776 23.630079680531946" fill="#e2ff1b" stroke="none" /><path d="M 113.06298171725822 83.55741782278167 l 21.407401307443816 -26.945835400909942 a55.41445737173374,55.41445737173374 0 0,0 0.7417531255993921,0.5997794420958039 l -21.868057831607697 26.57334986155001" fill="#a6ff21" stroke="none" /><path d="M 113.6212207817346 84.01681056812373 l 22.06354957719297 -25.889448389585585 a55.01563990082015,55.01563990082015 0 0,0 0.7154815442062143,0.620458544663416 l -22.50592492004595 25.5058248515025" fill="#abff21" stroke="none" /><path d="M 113.89432698308785 84.25364557470407 l 40.18436528858527 -45.54069146060939 a81.73497997329774,81.73497997329774 0 0,0 1.0469434067561376,0.9399561277034775 l -40.9623196829374 44.842236324136614" fill="#4aecff" stroke="none" /><path d="M 114.16331599549186 84.49514656593476 l 8.877880288719384 -9.718785680244972 a34.16326530612245,34.16326530612245 0 0,0 0.4307696817564883,0.4003534722167656 l -9.043857854270717 9.564527621953566" fill="#ff0801" stroke="none" /><path d="M 114.42810811169701 84.74124197986012 l 19.671422788129778 -20.803938944191426 a49.63160404348656,49.63160404348656 0 0,0 0.6157078333200908,0.5923104478292504 l -20.026613865062284 20.462245409599873" fill="#f8ff18" stroke="none" /><path d="M 114.94478906791727 85.2469230424477 l 24.518355547884266 -24.20383349853301 a55.45250810604615,55.45250810604615 0 0,0 0.6647322836945163,0.6850650499645662 l -24.93135209528189 23.778204253018334" fill="#a5ff21" stroke="none" /><path d="M 115.19652480421416 85.50635884689758 l 21.883848687772122 -20.871656777831454 a51.24117871447645,51.24117871447645 0 0,0 0.6032616113795297,0.6435174258202229 l -22.239877621122115 20.491869935133177" fill="#e1ff1b" stroke="none" /><path d="M 115.4437574822437 85.77008943001954 l 28.54618729954083 -26.302516913608216 a59.81632653061225,59.81632653061225 0 0,0 0.6911815251257527,0.7632199033167657 l -28.994712465282618 25.8072442230219" fill="#6bff28" stroke="none" /><path d="M 115.68641384162765 86.03803664274999 l 17.094733331782233 -15.215462424363684 a43.88537097081823,43.88537097081823 0 0,0 0.4973845409980593,0.5685965119724943 l -17.35410973635814 14.918950356188242" fill="#ffad10" stroke="none" /><path d="M 116.15771136456269 86.58626213691792 l 22.053134183637354 -18.307974088921476 a49.66221628838451,49.66221628838451 0 0,0 0.5403757766058758,0.6624368073677585 l -22.36500845231964 17.925653111945618" fill="#f8ff18" stroke="none" /><path d="M 116.60985879189232 87.15038557335679 l 25.57418614047703 -19.784540934251602 a53.333683005912654,53.333683005912654 0 0,0 0.5554933176120677,0.7309640917826982 l -25.91095539831321 19.34139206658787" fill="#c3ff1e" stroke="none" /><path d="M 116.82858285166822 87.43820079747576 l 29.647761914475442 -22.130754280178 a57.996757581537295,57.996757581537295 0 0,0 0.5902893070551578,0.8051539514427692 l -30.024313834044225 21.617137885063734" fill="#83ff25" stroke="none" /><path d="M 117.2510076193507 88.02491185347247 l 35.07405622594288 -24.347268532348924 a63.696357047491894,63.696357047491894 0 0,0 0.6174771390903954,0.9060715089381313 l -35.48795783070201 23.739919000140386" fill="#3bff2e" stroke="none" /><path d="M 117.45458315368197 88.32363383020206 l 23.832466246307558 -15.942895924302587 a49.673374022506195,49.673374022506195 0 0,0 0.46930307329473697,0.7147807776610494 l -24.103365954960218 15.530297082663864" fill="#f8ff18" stroke="none" /><path d="M 117.65298651832404 88.62581576622439 l 29.090800008759903 -18.74380397130503 a55.606427617776085,55.606427617776085 0 0,0 0.5115060612905278,0.8090797505152958 l -29.409133666296384 18.240276573075526" fill="#a3ff22" stroke="none" /><line stroke="#e1ed5e" stroke-width="0.3" x1="172.23445277983987" x2="176.4835382374775" y1="55.19839476539836" y2="52.563006222186495" /><path d="M 173.08426987136738 54.67131705675599 a86.0,86.0 0 0,1 12.851231095245387,41.99856678651699" fill="none" id="id39" stroke="none" /><text fill="#e1ed5e" style="font-size:6.75px; font-family:Arial;" text-anchor="middle"><textPath startOffset="22.20632615414155" xlink:href="#id39">March</textPath></text><path d="M 117.84615892207809 88.93136811851018 l 23.638222408095718 -14.661013796324998 a48.81565897386992,48.81565897386992 0 0,0 0.4367471960684514,0.7178975553935222 l -23.887085402450392 14.251948467724395" fill="#fff917" stroke="none" /><path d="M 118.3937258080291 89.86733742301442 l 37.630683235687336 -20.72984123761408 a63.96271218767881,63.96271218767881 0 0,0 0.522946649268802,0.9689407192634925 l -37.98193798417461 20.07901953501813" fill="#37ff2e" stroke="none" /><path d="M 118.56541770881063 90.18545643968196 l 31.34207332528661 -16.568878155417174 a56.45212664505055,56.45212664505055 0 0,0 0.4467529012598976,0.8629844066416585 l -31.622635659706624 16.026921026515172" fill="#97ff23" stroke="none" /><path d="M 118.73160827565052 90.50648371742162 l 34.14954753057515 -17.307605452417615 a59.28504672897196,59.28504672897196 0 0,0 0.45350233993326905,0.9142330442175841 l -34.44240988346182 16.717212819701082" fill="#72ff27" stroke="none" /><path d="M 118.89224826269711 90.83032412892265 l 31.0763868489457 -15.083455959643462 a55.54348655349991,55.54348655349991 0 0,0 0.41007440359908354,0.863721275991098 l -31.33141944638654 14.546292268011824" fill="#a4ff21" stroke="none" /><path d="M 119.196687751892 91.48605970444005 l 34.84810018206733 -15.455512336213882 a59.121686057600606,59.121686057600606 0 0,0 0.4045874064876982,0.9338435161327829 l -35.10897829839771 14.853369675494497" fill="#74ff27" stroke="none" /><path d="M 119.34039704204932 91.81776055985345 l 30.183108121820613 -12.769407844297259 a53.77312607285905,53.77312607285905 0 0,0 0.3533107250661394,0.8555699451029865 l -30.39844053377295 12.247963328740969" fill="#bcff1f" stroke="none" /><path d="M 119.61058180528143 92.48833698450437 l 42.15946472898586 -16.148816751195366 a66.14648102231547,66.14648102231547 0 0,0 0.3981243660945238,1.0667753661517403 l -42.43119368358201 15.42071824801429" fill="#32ff46" stroke="none" /><path d="M 119.7369772167798 92.82701384747503 l 34.63368677219815 -12.586879586437338 a57.84999046347511,57.84999046347511 0 0,0 0.3320780059787534,0.9388292410071443 l -34.84521785898672 11.988852719003578" fill="#85ff25" stroke="none" /><path d="M 119.97218684219823 93.5106431181261 l 37.107529728962554 -12.056967287488055 a60.01716574480259,60.01716574480259 0 0,0 0.3107875073581879,0.9852813286704148 l -37.309572720088944 11.416435792391221" fill="#68ff28" stroke="none" /><path d="M 120.08093135843002 93.85539295169968 l 39.57887499547895 -12.110824439371564 a62.390329963761204,62.390329963761204 0 0,0 0.30539799988236727,1.0296502341250986 l -39.78147889247302 11.427744818499935" fill="#4bff2c" stroke="none" /><path d="M 120.18372546131832 94.20196356495316 l 36.792224110723325 -10.569042683879704 a59.2801831012779,59.2801831012779 0 0,0 0.2732907603548582,0.9831722716871406 l -36.96870164164455 9.934159108773613" fill="#72ff27" stroke="none" /><path d="M 120.28053869075195 94.5502522615342 l 26.55876926580381 -7.136821903490705 a48.50095365248903,48.50095365248903 0 0,0 0.20971735711592593,0.8081265260616881 l -26.67768295479004 6.678598951880167" fill="#fff517" stroke="none" /><path d="M 120.45610955862082 95.25157060432595 l 39.79636038488127 -9.237837084851298 a61.85447263017357,61.85447263017357 0 0,0 0.23182353262016664,1.0392194407095 l -39.94947830450347 8.551439474591835" fill="#51ff2b" stroke="none" /><path d="M 120.53481517161879 95.60439243477599 l 34.969781429012144 -7.4855037417645605 a56.76196833873737,56.76196833873737 0 0,0 0.19629019552427435,0.9571807044204078 l -35.09345092045142 6.882447381180741" fill="#93ff23" stroke="none" /><path d="M 120.6074358757038 95.95851677861258 l 33.83373640621089 -6.635395049985877 a55.47825672325005,55.47825672325005 0 0,0 0.17571886117571234,0.9386971827586053 l -33.94294099129646 6.052019789764708" fill="#a5ff21" stroke="none" /><path d="M 120.73433829027371 96.67025291283417 l 43.61945246869958 -7.004889317811139 a65.17833301544917,65.17833301544917 0 0,0 0.16835906864470584,1.1092759082155232 l -43.73356743078358 6.253014297203533" fill="#30ff37" stroke="none" /><path d="M 120.78858239683441 97.02765380044208 l 40.50547743106806 -5.791462813830313 a61.91741369444974,61.91741369444974 0 0,0 0.14177318944858416,1.05637493492931 l -40.59916661957448 5.093369536836339" fill="#50ff2b" stroke="none" /><path d="M 120.83666639777658 97.38593545837742 l 36.93184293366844 -4.633285345489754 a58.221342742704564,58.221342742704564 0 0,0 0.11619218676208613,0.9954636988049032 l -37.00612547343412 3.996877908359998" fill="#80ff26" stroke="none" /><path d="M 120.87857604477298 97.74499172005257 l 34.238793979202406 -3.697989927710853 a55.43791722296396,55.43791722296396 0 0,0 0.09430484520928342,0.9496369215181988 l -34.297375950093915 3.1080774754882197" fill="#a5ff21" stroke="none" /><path d="M 120.94382443527127 98.46500227214037 l 42.95221671566934 -3.1480188954435837 a64.06742323097464,64.06742323097464 0 0,0 0.07114354502934804,1.1005591527256486 l -43.0000408517031 2.4082006784648997" fill="#36ff2e" stroke="none" /><path d="M 120.96714384426684 98.82574320788733 l 43.01089548054266 -2.4088085877602903 a64.0782948693496,64.0782948693496 0 0,0 0.05219754360783939,1.1018076468504077 l -43.04598663238399 1.6680898342868828" fill="#36ff2e" stroke="none" /><path d="M 120.98425023603335 99.18683210126433 l 34.34090475876726 -1.330756212362397 a55.36667938203318,55.36667938203318 0 0,0 0.028707110575614956,0.9526492427941616 l -34.35872356379852 0.7394368221432364" fill="#a6ff21" stroke="none" /><line stroke="#e1ed5e" stroke-width="0.3" x1="184.98032266829074" x2="189.97916517819016" y1="98.17113171792111" y2="98.06355123074" /><path d="M 185.9800911702706 98.14961562048488 a86.0,86.0 0 0,1 -9.607161424134198,41.387399972396054" fill="none" id="id40" stroke="none" /><text fill="#e1ed5e" style="font-size:6.75px; font-family:Arial;" text-anchor="middle"><textPath startOffset="21.466115282336823" xlink:href="#id40">April</textPath></text><path d="M 120.99513854157772 99.54816195383933 l 30.225597055994943 -0.6504874778880165 a51.23259584207514,51.23259584207514 0 0,0 0.011385817149329548,0.8818440858263076 l -30.232315880261986 0.1301071340012462" fill="#e1ff1b" stroke="none" /><path d="M 120.99824983174949 100.27111621757518 l 39.55144310765634 0.5106634000884498 a60.5547396528705,60.5547396528705 0 0,0 -0.022428141387891436,1.0421476006059793 l -39.53679290358344 -1.191400816484544" fill="#62ff29" stroke="none" /><path d="M 120.9904718944345 100.63252640178507 l 33.66619813067744 1.0144964473631886 a54.68148006866298,54.68148006866298 0 0,0 -0.03644876635717737,0.9405807032262472 l -33.64374723146906 -1.5938543976034418" fill="#b0ff20" stroke="none" /><path d="M 120.9764740272857 100.99374915477107 l 23.68105088069886 1.1218770259565 a44.707610146862486,44.707610146862486 0 0,0 -0.043033521150753,0.7683924284310519 l -23.658231008660575 -1.5293411707229752" fill="#ffba11" stroke="none" /><path d="M 120.95626037817324 101.35467743843564 l 41.10113016760546 2.656904081524642 a62.186915887850475,62.186915887850475 0 0,0 -0.07824725351468496,1.0676216064755188 l -41.04930635542644 -3.363998824496931" fill="#4dff2c" stroke="none" /><path d="M 120.89721153311464 102.0752229133903 l 49.156646033537356 4.881560299686969 a70.398436009918,70.398436009918 0 0,0 -0.13012882208716614,1.2048312778820323 l -49.06533490994914 -5.726987899453793" fill="#38ff82" stroke="none" /><path d="M 120.8583938346157 102.4346265915055 l 27.693452101475067 3.232426016663978 a48.881460995613196,48.881460995613196 0 0,0 -0.10474247479103117,0.8349005811247454 l -27.633708117437187 -3.7086443520761185" fill="#fffa17" stroke="none" /><path d="M 120.70491114924044 103.5080841355445 l 29.73302191247018 5.037739197289919 a51.156780469197024,51.156780469197024 0 0,0 -0.15457522472588847,0.8669399496116349 l -29.6419002454051 -5.548797897634771" fill="#e2ff1b" stroke="none" /><path d="M 120.64145759157962 103.86396538481128 l 41.48145022388914 7.765095418565054 a63.20198359717719,63.20198359717719 0 0,0 -0.209379344520314,1.0676207668178817 l -41.34164094639316 -8.47797991245088" fill="#41ff2d" stroke="none" /><path d="M 120.5718875245553 104.21870165774334 l 44.57756113056411 9.141573947222476 a66.50524508868969,66.50524508868969 0 0,0 -0.2396277761667722,1.1194611940567858 l -44.4135993156729 -9.907548960695431" fill="#32ff4b" stroke="none" /><path d="M 120.49622156327973 104.57218783832717 l 30.81469892667414 6.873978759415201 a52.5720961281709,52.5720961281709 0 0,0 -0.20462920882672686,0.8815372759815776 l -30.69180915191686 -7.403384692745344" fill="#cdff1d" stroke="none" /><path d="M 120.32669344350535 105.2749913415812 l 38.49228070961614 9.989152836159612 a60.767308792675955,60.767308792675955 0 0,0 -0.2714618158749603,1.0102104031449717 l -38.314630817399404 -10.650254172480132" fill="#5fff29" stroke="none" /><path d="M 120.23288151984713 105.62410040840565 l 36.254461387692615 10.077592304241882 a58.62902918176617,58.62902918176617 0 0,0 -0.27864803831238144,0.9700103765537319 l -36.075620712494135 -10.700160156300198" fill="#7aff26" stroke="none" /><path d="M 120.13307415673323 105.97154293290107 l 18.19826713374208 5.3976721412512 a39.98188060270837,39.98188060270837 0 0,0 -0.20138155012490064,0.658126557666685 l -18.102658811111045 -5.710125671469942" fill="#ff6d0a" stroke="none" /><path d="M 119.9155931802556 106.66101706037122 l 36.81191275883981 12.312200630540397 a59.81632653061225,59.81632653061225 0 0,0 -0.3349975456806517,0.9736596766231883 l -36.59452438221593 -12.944033010252886" fill="#6bff28" stroke="none" /><path d="M 119.79798401119884 107.00284435728193 l 40.539987858903444 14.33960271214548 a64.00133511348466,64.00133511348466 0 0,0 -0.37631486427569755,1.0354568856835842 l -40.287148733622516 -15.035307394835195" fill="#37ff2e" stroke="none" /><path d="M 119.67450827220406 107.3425965602758 l 12.332417721643944 4.602502217082493 a34.16326530612245,34.16326530612245 0 0,0 -0.21035741104030095,0.5491768213035152 l -12.251366031010136 -4.814102605219152" fill="#ff0801" stroke="none" /><path d="M 119.54520255179757 107.68017299344265 l 40.714689667584736 15.99859910342163 a64.74518405493038,64.74518405493038 0 0,0 -0.4165192907259549,1.033766721083407 l -40.43326776260139 -16.69706519234785" fill="#30ff31" stroke="none" /><path d="M 119.41010516605496 108.01547362559984 l 38.068684230887506 15.720601810422108 a62.186915887850475,62.186915887850475 0 0,0 -0.4170936231181026,0.985886117586715 l -37.79243962657709 -16.37356245367499" fill="#4dff2c" stroke="none" /><path d="M 119.26925614724726 108.34839909993367 l 39.527938010673594 17.125466576855025 a64.0782948693496,64.0782948693496 0 0,0 -0.4472021613486438,1.0083228159185074 l -39.22729476459367 -17.80333772926622" fill="#36ff2e" stroke="none" /><path d="M 118.97047184881838 109.00673069616215 l 36.906124901382306 17.522153938747657 a61.85447263017357,61.85447263017357 0 0,0 -0.4649298604041517,0.957893220108383 l -36.59904178436344 -18.154836114821315" fill="#51ff2b" stroke="none" /><path d="M 118.81262510543309 109.33194174019688 l 38.581489881016466 19.138223071040805 a64.06742323097464,64.06742323097464 0 0,0 -0.49857064417961733,0.983727180375654 l -38.246340567050574 -19.799504463119153" fill="#36ff2e" stroke="none" /><line stroke="#e1ed5e" stroke-width="0.3" x1="174.80103733775053" x2="179.2010983576182" y1="140.37084112569926" y2="142.7455964860345" /><path d="M 175.68104954172406 140.8457921977663 a86.0,86.0 0 0,1 -30.038265399797805,32.042727171017184" fill="none" id="id41" stroke="none" /><text fill="#e1ed5e" style="font-size:6.75px; font-family:Arial;" text-anchor="middle"><textPath startOffset="22.206326154141568" xlink:href="#id41">May</textPath></text><path d="M 118.48025628344425 109.97397251340804 l 25.22712841068519 13.615324457691706 a49.666793820331876,49.666793820331876 0 0,0 -0.41252669091304106,0.7488557704845134 l -24.98902531032064 -14.047550746574025" fill="#f8ff18" stroke="none" /><path d="M 116.27256486870786 113.27417163493432 l 15.845809638983019 12.926050597397902 a41.44926568758345,41.44926568758345 0 0,0 -0.45575244041611035,0.5489831739000852 l -15.620961198673365 -13.196895028411758" fill="#ff850c" stroke="none" /><path d="M 115.32070863581623 114.36230785411682 l 20.954568305824576 19.643736338331443 a49.722296395193595,49.722296395193595 0 0,0 -0.5907327238568635,0.6193808992456145 l -20.613329030588748 -20.001524354159564" fill="#f7ff18" stroke="none" /><path d="M 114.81725581225074 114.88116024355365 l 15.465038895838553 15.531737110962768 a42.91808125119207,42.91808125119207 0 0,0 -0.5279946826278573,0.5167539251011718 l -15.195394260834902 -15.795641138986511" fill="#ff9d0e" stroke="none" /><path d="M 114.55890576462653 115.13401014063108 l 14.556327282092813 15.131329803149429 a41.99628075529277,41.99628075529277 0 0,0 -0.5252818115846838,0.4966867392908837 l -14.29370963611732 -15.379651179186233" fill="#ff8e0d" stroke="none" /><path d="M 114.29624159901734 115.38237550388516 l 16.37478837355636 17.618836518264366 a45.053213808888046,45.053213808888046 0 0,0 -0.572605860169425,0.5230618769108644 l -16.06908296392007 -17.898091161761812" fill="#ffbf11" stroke="none" /><path d="M 113.75828350139079 115.86535959552629 l 20.700779109249073 23.87109587054193 a52.59670036238795,52.59670036238795 0 0,0 -0.6891032422774026,0.5872687328443746 l -20.286810390394624 -24.22388899360925" fill="#cdff1d" stroke="none" /><path d="M 112.92097659922987 116.55440617244103 l 20.32991619331433 26.04676879732688 a54.04148388327294,54.04148388327294 0 0,0 -0.738235675985375,0.5660476363614387 l -19.87855178883546 -26.39285577551569" fill="#b9ff1f" stroke="none" /><line stroke="#e1ed5e" stroke-width="0.3" x1="143.8653032363475" x2="146.44561519142675" y1="172.8068346515853" y2="177.08958963109032" /><path d="M 144.38136562736335 173.6633856474863 a86.0,86.0 0 0,1 -40.68145358897372,12.25698825130547" fill="none" id="id42" stroke="none" /><text fill="#e1ed5e" style="font-size:6.75px; font-family:Arial;" text-anchor="middle"><textPath startOffset="21.466115282336833" xlink:href="#id42">June</textPath></text><path d="M 110.8373102113329 117.98757091392108 l 14.79163951285234 24.55089496214249 a49.66250238413122,49.66250238413122 0 0,0 -0.7360269689081529,0.4348577067551961 l -14.366844672915805 -24.801871241191435" fill="#f8ff18" stroke="none" /><path d="M 109.57404056367764 118.69057910512821 l 9.017613531108376 17.60431428315501 a40.77951554453557,40.77951554453557 0 0,0 -0.6275114807050854,0.3146472833501798 l -8.713248142720529 -17.75692940741449" fill="#ff7a0b" stroke="none" /><path d="M 109.2508944713604 118.85261126421891 l 10.853372921584473 22.11833906761042 a45.63770741941637,45.63770741941637 0 0,0 -0.708226224261885,0.3399916264824757 l -10.471034029322354 -22.301884970592457" fill="#ffc912" stroke="none" /><path d="M 108.92500713936063 119.00905698771935 l 18.308289964782265 38.99417914786879 a64.0782948693496,64.0782948693496 0 0,0 -1.0024652686301767,0.4601826370116031 l -17.634356700384668 -39.30354885521447" fill="#36ff2e" stroke="none" /><path d="M 108.59647513512805 119.15986991738527 l 12.315110574088646 27.447984541194128 a51.084112149532714,51.084112149532714 0 0,0 -0.8053758755321397,0.3530531160180292 l -11.840814023898753 -27.65590221050661" fill="#e3ff1b" stroke="none" /><path d="M 107.59598834532513 119.57807347666477 l 13.123419825241903 33.824601345239145 a57.28123211901583,57.28123211901583 0 0,0 -0.9223090652848704,0.3487383696411635 l -12.53924053919676 -34.04548796498694" fill="#8cff24" stroke="none" /><path d="M 107.2578585660854 119.70592522655815 l 13.44803019180692 36.51295695435094 a59.91073812702652,59.91073812702652 0 0,0 -0.9707834425172135,0.34808840366616756 l -12.817527188659973 -36.739032899057065" fill="#6aff28" stroke="none" /><path d="M 106.91757812671514 119.82793768551818 l 10.16564126037958 29.13790025236084 a51.86028991035667,51.86028991035667 0 0,0 -0.8453974711888206,0.2868047223231538 l -9.662574056253533 -29.308567961582117" fill="#d8ff1c" stroke="none" /><path d="M 106.57524785965236 119.94407469862006 l 8.11859743287858 24.6253703442772 a46.92914362006485,46.92914362006485 0 0,0 -0.7693667829309525,0.24632694809226385 l -7.693509304856687 -24.761470139029168" fill="#ffdd14" stroke="none" /><path d="M 105.88484417918355 120.15858648285463 l 10.256506850534752 35.133756147674355 a57.60022887659737,57.60022887659737 0 0,0 -0.9541583017242516,0.26965466689694134 l -9.650217380705893 -35.30509960790982" fill="#88ff25" stroke="none" /><path d="M 105.53697534728816 120.25689768951611 l 10.867639864151624 39.75901192380176 a62.21752813274843,62.21752813274843 0 0,0 -1.0355057479542906,0.2734864796000149 l -10.181643673385837 -39.94018975270536" fill="#4dff2c" stroke="none" /><path d="M 105.18746579009965 120.34920634021253 l 10.619173995536555 41.656518142289514 a63.988746900629415,63.988746900629415 0 0,0 -1.0696685434697135,0.26289850307849155 l -9.90055216732363 -41.83313790368204" fill="#37ff2e" stroke="none" /><path d="M 104.83641907484287 120.43548508189849 l 8.57169328198766 36.21826551421405 a58.218767880984174,58.218767880984174 0 0,0 -0.9771877431057592,0.2224047488807211 l -7.946985389489038 -36.36044699667246" fill="#80ff26" stroke="none" /><path d="M 104.13013068566511 120.58985236759428 l 9.223951029015101 45.983966219886334 a67.89996185390044,67.89996185390044 0 0,0 -1.1479374013085977,0.22000493507483465 l -8.431046013134798 -46.13592835330963" fill="#34ff5f" stroke="none" /><path d="M 103.7750983002368 120.6578951692458 l 7.724905858067481 42.27182518617871 a63.971867251573535,63.971867251573535 0 0,0 -1.0849355389762572,0.18862995023252033 l -6.996121347619174 -42.398533714932235" fill="#37ff2e" stroke="none" /><path d="M 103.41894727170886 120.7198165907248 l 7.866764687075617 47.67488601751019 a69.31956894907495,69.31956894907495 0 0,0 -1.1789744751774385,0.18413156618801949 l -7.044954348289662 -47.80323589104531" fill="#37ff73" stroke="none" /><path d="M 103.06178313531738 120.77559828337769 l 5.342332294157832 36.25016689114191 a57.64171275987031,57.64171275987031 0 0,0 -0.9828499663967053,0.13621404959329325 l -4.717553736574296 -36.3367555062278" fill="#87ff25" stroke="none" /><path d="M 102.34483914955558 120.86867818915974 l 4.828575885311387 42.97352177935035 a64.24394430669466,64.24394430669466 0 0,0 -1.1000013446748798,0.11401963700969496 l -4.088141944030904 -43.0502707848158" fill="#34ff2f" stroke="none" /><path d="M 101.98527174616119 120.90594882070398 l 4.174582756280312 43.96053770439522 a65.15830631317948,65.15830631317948 0 0,0 -1.1174825840489888,0.09642109947323517 l -3.417255854489782 -44.02588305614712" fill="#30ff37" stroke="none" /><path d="M 101.62511606390274 120.93702456842531 l 3.1615837977890275 40.731957008952556 a61.85447263017357,61.85447263017357 0 0,0 -1.0622393448962386,0.07325824444688313 l -2.4599816921138586 -40.780343597915724" fill="#51ff2b" stroke="none" /><path d="M 101.26447882468166 120.96189622390904 l 1.7275342020207425 28.63819619528141 a49.69025367156209,49.69025367156209 0 0,0 -0.8542273551902294,0.04415379693078835 l -1.2343187784170335 -28.6636897989744" fill="#f7ff18" stroke="none" /><path d="M 100.90346689309514 120.98055641714683 l 1.3675211259971485 31.756951311553923 a52.786381842456606,52.786381842456606 0 0,0 -0.908125974686202,0.03127769474394621 l -0.8206747996362942 -31.775785804723963" fill="#caff1d" stroke="none" /><line stroke="#e1ed5e" stroke-width="0.3" x1="102.19456741930631" x2="102.32365962044197" y1="184.97166512339345" y2="189.96999836594603" /><path d="M 102.22038585953345 185.97133177190398 a86.0,86.0 0 0,1 -42.740103519485714,-10.115201625700543" fill="none" id="id43" stroke="none" /><text fill="#e1ed5e" style="font-size:6.75px; font-family:Arial;" text-anchor="middle"><textPath startOffset="22.20632615414155" xlink:href="#id43">July</textPath></text><path d="M 100.18074693466247 120.99922214144158 l 0.28882770161983184 33.55607152200551 a54.557314514590885,54.557314514590885 0 0,0 -0.9391492725645515,0.0 l 0.2888277016198087 -33.55607152200551" fill="#b1ff20" stroke="none" /><path d="M 99.81925306533755 120.99922214144158 l -0.39778016709860614 46.21419504548204 a67.21590692351708,67.21590692351708 0 0,0 -1.156882773456266,-0.01991678609683212 l 1.1932226304475397 -46.200500782106054" fill="#33ff55" stroke="none" /><path d="M 99.45781275523022 120.99299961872073 l -0.8745744253288298 33.86273055034133 a54.87402250619875,54.87402250619875 0 0,0 -0.9440413120589146,-0.032514691581699874 l 1.4573360890623874 -33.84265906033354" fill="#adff20" stroke="none" /><path d="M 99.09653310690486 120.98055641714683 l -1.6854737265043964 39.140533957363814 a60.17680717146672,60.17680717146672 0 0,0 -1.0345021616038197,-0.053471945250156375 l 2.358963956521705 -39.105722205351455" fill="#66ff29" stroke="none" /><path d="M 98.37488393609728 120.93702456842531 l -3.8785194178170355 49.96852726010033 a71.11882510013352,71.11882510013352 0 0,0 -1.2197070940646932,-0.1052414603356957 l 4.73807082962327 -49.89436154748597" fill="#39ff8c" stroke="none" /><path d="M 98.01472825383883 120.90594882070398 l -3.287563707928713 34.619763644780946 a55.77551020408164,55.77551020408164 0 0,0 -0.9550026370038033,-0.09898992809563258 l 3.8829989415381094 -34.55804434822955" fill="#a1ff22" stroke="none" /><path d="M 97.65516085044442 120.86867818915974 l -4.115400031604005 36.62637537226346 a57.85685676139615,57.85685676139615 0 0,0 -0.988725680005185,-0.1197209104847481 l 4.745253134660579 -36.55010893305336" fill="#85ff25" stroke="none" /><path d="M 97.2962882734958 120.8252237178851 l -3.548653871054475 27.333354380054597 a48.562750333778375,48.562750333778375 0 0,0 -0.8280444013265816,-0.11475940886609039 l 4.018626863567888 -27.268220405695903" fill="#fff617" stroke="none" /><path d="M 96.58105272829116 120.7198165907248 l -4.752440111709835 28.801171719683968 a50.1906351325577,50.1906351325577 0 0,0 -0.8512117297586423,-0.1479940701115 l 5.247500812940527 -28.715099071051462" fill="#f0ff19" stroke="none" /><path d="M 96.22490169976321 120.6578951692458 l -7.159273707635523 39.17660256184469 a60.82538622925806,60.82538622925806 0 0,0 -1.0283324746462599,-0.19708236621786782 l 7.832573796853478 -39.047562997278355" fill="#5eff2a" stroke="none" /><path d="M 95.86986931433489 120.58985236759428 l -7.110495827736286 35.447803107447875 a57.15391951172993,57.15391951172993 0 0,0 -0.9629307017156011,-0.20179149094435322 l 7.719617990881273 -35.32015563577698" fill="#8eff24" stroke="none" /><path d="M 95.51606077576429 120.51570834832081 l -8.586020950164876 39.28427502631448 a61.21161548731642,61.21161548731642 0 0,0 -1.0274219563043252,-0.2338378922561515 l 9.260963055862065 -39.13066040048064" fill="#59ff2a" stroke="none" /><path d="M 94.81253420990036 120.34920634021253 l -7.3206999645657005 28.7173815040952 a50.635800114438304,50.635800114438304 0 0,0 -0.8427474321849178,-0.22257725645225457 l 7.813937839562108 -28.587112898339367" fill="#e9ff1a" stroke="none" /><path d="M 94.46302465271185 120.25689768951611 l -12.5983878324383 46.09091378735123 a68.78170894526035,68.78170894526035 0 0,0 -1.1393815593598164,-0.32200060964986493 l 13.38990055990273 -45.86722438436284" fill="#36ff6c" stroke="none" /><path d="M 94.11515582081647 120.15858648285463 l -9.069628656089984 31.068094254372006 a53.36486744230403,53.36486744230403 0 0,0 -0.8795674336885894,-0.26500645256869326 l 9.603071064218819 -30.90737243269759" fill="#c2ff1e" stroke="none" /><path d="M 93.76903079525671 120.05430185196036 l -8.745444815948723 28.147112336101365 a50.47444211329392,50.47444211329392 0 0,0 -0.8274891922880964,-0.2649359081232292 l 9.22865535332776 -27.99240358131843" fill="#ecff1a" stroke="none" /><path d="M 93.08242187328487 119.8279376855182 l -14.96078706928657 42.882284565824385 a66.41712759870303,66.41712759870303 0 0,0 -1.0762118743332465,-0.385891288351459 l 15.696718504249542 -42.61840573643297" fill="#32ff4a" stroke="none" /><path d="M 92.7421414339146 119.70592522655815 l -12.863264442102148 34.92525032796658 a58.218767880984174,58.218767880984174 0 0,0 -0.9374047205335956,-0.3544462547723602 l 13.462539383396026 -34.698655823087584" fill="#80ff26" stroke="none" /><path d="M 92.40401165467489 119.57807347666478 l -16.380395673208117 42.21920512348867 a66.28552355521649,66.28552355521649 0 0,0 -1.0601862059870562,-0.4218699711119375 l 17.10470295523703 -41.930988307970665" fill="#32ff48" stroke="none" /><path d="M 92.06813273071674 119.44442032107085 l -8.289223813512569 20.320455006798507 a42.94611863436964,42.94611863436964 0 0,0 -0.6820836318271497,-0.28511101342237005 l 8.63777890483718 -20.174758950356164" fill="#ff9e0e" stroke="none" /><path d="M 91.40352486487194 119.15986991738527 l -15.374505685324726 34.266780784509784 a58.55779134083541,58.55779134083541 0 0,0 -0.9161004072684718,-0.4205367650893981 l 15.962074088360618 -33.997056949086314" fill="#7bff26" stroke="none" /><path d="M 91.07499286063937 119.00905698771935 l -12.182789165530076 25.947691682577315 a49.66536334159832,49.66536334159832 0 0,0 -0.7707291786758124,-0.36999684289945056 l 12.62763101220613 -25.734140563178304" fill="#f8ff18" stroke="none" /><path d="M 90.7491055286396 118.85261126421891 l -20.184296792543147 41.13404409157401 a66.81937821857716,66.81937821857716 0 0,0 -1.0282105220190894,-0.515566101040667 l 20.889361222245 -40.78051014962404" fill="#33ff50" stroke="none" /><path d="M 90.42595943632237 118.69057910512821 l -14.491624244391698 28.29075639486887 a52.786381842456606,52.786381842456606 0 0,0 -0.8051408727070979,-0.4212116512926907 l 14.97645601962529 -28.03711532463146" fill="#caff1d" stroke="none" /><line stroke="#e1ed5e" stroke-width="0.3" x1="58.666819895761336" x2="56.23545636021788" y1="174.27360380694188" y2="178.64263932499728" /><path d="M 58.180547188652646 175.14741091055294 a86.0,86.0 0 0,1 -31.652253787137756,-30.449443065178592" fill="none" id="id44" stroke="none" /><text fill="#e1ed5e" style="font-size:6.75px; font-family:Arial;" text-anchor="middle"><textPath startOffset="22.20632615414155" xlink:href="#id44">August</textPath></text><path d="M 89.7882731507175 118.34994917583269 l -22.604724852891845 40.619530693125846 a67.4856952126645,67.4856952126645 0 0,0 -1.0102005478705078,-0.5736182356956617 l 23.30057416768356 -40.224409291635546" fill="#34ff59" stroke="none" /><path d="M 89.4739219176387 118.17145234162733 l -15.362636152765349 26.52093291608122 a51.649151249284756,51.649151249284756 0 0,0 -0.7654702525186663,-0.4522533176921215 l 15.816874276312397 -26.25256102609535" fill="#dbff1b" stroke="none" /><path d="M 89.1626897886671 117.98757091392108 l -20.21103283479432 33.54590569708687 a60.163932862864776,60.163932862864776 0 0,0 -0.8824639397923082,-0.5420814275531985 l 20.78547597451894 -33.193035802705296" fill="#67ff28" stroke="none" /><path d="M 88.24862548938628 117.40417183066458 l -8.96506184906878 13.277551213503108 a37.02078962426092,37.02078962426092 0 0,0 -0.5250660626385929,-0.36114522569079743 l 9.192284796330265 -13.12126519844721" fill="#ff3a05" stroke="none" /><path d="M 87.95078237400918 117.19931262002967 l -36.14765287797246 51.59793786008904 a84.0,84.0 0 0,0 -1.1770906886044523,-0.8398229526231229 l 37.030470894425804 -50.968070645621694" fill="#4dd2ff" stroke="none" /><path d="M 87.65650970185807 116.9893568818739 l -17.388544280793035 23.933277971395967 a50.58315849704368,50.58315849704368 0 0,0 -0.7000107668067047,-0.5178512303897107 l 17.797940018018302 -23.630416792266487" fill="#eaff1a" stroke="none" /><path d="M 87.07902340077011 116.55440617244103 l -28.435935803378598 36.432233087601496 a67.21590692351708,67.21590692351708 0 0,0 -0.9059504202337602,-0.7197418050707964 l 29.058843716329715 -35.93735736852557" fill="#33ff55" stroke="none" /><path d="M 86.79598089348748 116.32954008644616 l -22.79286189652711 28.188156122903116 a57.25033377837117,57.25033377837117 0 0,0 -0.7609656337300194,-0.6262229102832134 l 23.274697658801816 -27.79163809376272" fill="#8dff24" stroke="none" /><path d="M 86.51685102203217 116.09983520530335 l -21.48979045438077 25.660332425117005 a54.47034140759108,54.47034140759108 0 0,0 -0.713651020183933,-0.6081888817289968 l 21.92830695114176 -25.286619153165056" fill="#b3ff20" stroke="none" /><path d="M 86.24171649860922 115.8653595955263 l -11.408192788052753 13.155353347621483 a38.41293152775128,38.41293152775128 0 0,0 -0.49581518275583897,-0.43749925133922596 l 11.63295032371518 -12.95703095450997" fill="#ff5207" stroke="none" /><path d="M 85.70375840098266 115.38237550388516 l -29.55209713714204 31.797270068662975 a64.40959374403968,64.40959374403968 0 0,0 -0.805623438000221,-0.7617672451088304 l 30.09505640953308 -31.283868186808213" fill="#32ff2f" stroke="none" /><path d="M 85.44109423537348 115.13401014063109 l -19.590318567156164 20.364173286558845 a49.257390806790006,49.257390806790006 0 0,0 -0.6059832981323007,-0.5930821997999817 l 19.93795181766426 -20.023940983836294" fill="#feff18" stroke="none" /><path d="M 85.18274418774928 114.88116024355367 l -25.417360985912175 25.526981958891746 a57.0231737554835,57.0231737554835 0 0,0 -0.6895985506805862,-0.6985596910471624 l 25.853000161648293 -25.085681773863918" fill="#90ff24" stroke="none" /><path d="M 84.9287848128048 114.62390073753433 l -27.015957067730884 26.214122058561813 a58.64362006484838,58.64362006484838 0 0,0 -0.6967237623619612,-0.7305120793716209 l 27.4631873814718 -25.745202862607695" fill="#7aff26" stroke="none" /><path d="M 84.43433777217949 114.09645910891817 l -39.721469758555834 35.97226163605461 a74.5891665077246,74.5891665077246 0 0,0 -0.8536593372494365,-0.9590953149802506 l 40.334787945453606 -35.2831921513335" fill="#3fffba" stroke="none" /><path d="M 84.19399662182784 113.82643327865904 l -24.64161999097782 21.55546260061126 a53.73908067900057,53.73908067900057 0 0,0 -0.6030484233707964,-0.701481556386676 l 25.009010923919394 -21.128103945063057" fill="#bdff1f" stroke="none" /><path d="M 83.95833913139862 113.55231037782056 l -34.59309576808775 29.22492718297133 a66.28552355521649,66.28552355521649 0 0,0 -0.7288377399071764,-0.8779320092001947 l 35.091029507888464 -28.625133916657376" fill="#32ff48" stroke="none" /><path d="M 83.72743513129214 113.27417163493432 l -30.09056667065549 24.546059567217597 a59.832347892428004,59.832347892428004 0 0,0 -0.6441439113419078,-0.8036685710531628 l 30.50862849405226 -24.024463162586173" fill="#6bff28" stroke="none" /><path d="M 83.28015986056508 112.70617746262583 l -33.18137262079352 25.216055025485762 a62.67556742323098,62.67556742323098 0 0,0 -0.6453754908936313,-0.8645859358074287 l 33.61050937838223 -24.641156210169026" fill="#47ff2c" stroke="none" /><path d="M 82.85270091963577 112.12312394758628 l -40.113307807518915 28.36007001563903 a70.12607285905017,70.12607285905017 0 0,0 -0.6883678592117479,-0.9916452420954825 l 40.595536573892794 -27.665383511356538" fill="#38ff7e" stroke="none" /><path d="M 82.6465618267979 111.8261652097733 l -25.61950193560419 17.459391012810187 a52.00305168796491,52.00305168796491 0 0,0 -0.4977358046879154,-0.7440474943276254 l 25.916240845702838 -17.01580660427674" fill="#d6ff1c" stroke="none" /><path d="M 82.44556493220864 111.52570212397912 l -33.644525759134055 22.089960770871453 a61.2482357428953,61.2482357428953 0 0,0 -0.5710526992950048,-0.8862864707230946 l 34.0197833218061 -21.50755270022691" fill="#59ff2a" stroke="none" /><path d="M 82.24976979558568 111.22182372390057 l -25.640161825888203 16.209895474530025 a51.33444592790387,51.33444592790387 0 0,0 -0.4657631977294761,-0.7509585769706449 l 25.915389663285637 -15.766140566194117" fill="#dfff1b" stroke="none" /><path d="M 82.05923443525364 110.91462005526583 l -32.219905984054385 19.601617933371127 a58.713999618539006,58.713999618539006 0 0,0 -0.5178550282666734,-0.86795481434052 l 32.55254188801929 -19.044101025144496" fill="#79ff26" stroke="none" /><line stroke="#e1ed5e" stroke-width="0.3" x1="26.63291911575756" x2="22.317208475507996" y1="142.92168965132927" y2="145.44649492493687" /><path d="M 25.769776987707644 143.4266507060508 a86.0,86.0 0 0,1 -11.730757126820373,-40.83630448921669" fill="none" id="id45" stroke="none" /><text fill="#e1ed5e" style="font-size:6.75px; font-family:Arial;" text-anchor="middle"><textPath startOffset="21.46611528233685" xlink:href="#id45">September</textPath></text><path d="M 81.69416730710424 110.29060199501025 l -35.61310193925934 20.01986274062646 a61.85447263017357,61.85447263017357 0 0,0 -0.5137561527446557,-0.932616647793711 l 35.952434501455514 -19.403875574434927" fill="#51ff2b" stroke="none" /><path d="M 81.51974371655577 109.97397251340807 l -35.19234766840304 18.9936493814432 a60.99074957085639,60.99074957085639 0 0,0 -0.49067781721334724,-0.9281775134041902 l 35.51407799384127 -18.385056852952882" fill="#5cff2a" stroke="none" /><path d="M 81.35079622478065 109.6543875284942 l -23.011829834785733 11.9128476283794 a46.91255006675567,46.91255006675567 0 0,0 -0.3650719683632178,-0.720321627967252 l 23.213480472935217 -11.514971788709463" fill="#ffdc14" stroke="none" /><path d="M 81.18737489456691 109.33194174019688 l -33.61396447580264 16.674098186044542 a58.52231546824337,58.52231546824337 0 0,0 -0.4398836624775369,-0.9062906339407806 l 33.896001394894895 -16.093018596138478" fill="#7cff26" stroke="none" /><path d="M 80.87730276802145 108.67885076344099 l -39.24474961207116 17.811259625143066 a64.09746328437917,64.09746328437917 0 0,0 -0.44733593763977264,-1.0086244461391167 l 39.54552663444221 -17.13308684251125" fill="#36ff2f" stroke="none" /><path d="M 80.73074385275274 108.34839909993369 l -31.711763621308982 13.739111507491483 a55.56008010680908,55.56008010680908 0 0,0 -0.37264679847242405,-0.8808269535040775 l 31.943561400973714 -13.191210028321246" fill="#a4ff21" stroke="none" /><path d="M 80.58989483394504 108.01547362559985 l -42.02279042074634 17.35346436353505 a66.46490558840358,66.46490558840358 0 0,0 -0.4275826185058505,-1.0612249933361895 l 42.31527565350958 -16.627540002356053" fill="#32ff4a" stroke="none" /><path d="M 80.45479744820244 107.68017299344265 l -14.686461496204391 5.770959121731417 a36.77961090978447,36.77961090978447 0 0,0 -0.22646733737905303,-0.5912347554375865 l 14.783623113176953 -5.517300799460673" fill="#ff3605" stroke="none" /><path d="M 80.32549172779594 107.34259656027581 l -46.884898401483106 17.49761106954695 a71.04358191874883,71.04358191874883 0 0,0 -0.4177218465834947,-1.149391117403395 l 47.179144509071826 -16.687972155137437" fill="#39ff8b" stroke="none" /><path d="M 80.20201598880116 107.00284435728193 l -38.54675740410983 13.634567157251702 a61.88708754529849,61.88708754529849 0 0,0 -0.3465947115022015,-1.0073664690135917 l 38.77574294655526 -12.969027985148813" fill="#51ff2b" stroke="none" /><path d="M 80.0844068197444 106.66101706037122 l -32.979757802872264 11.030488892976258 a55.77551020408164,55.77551020408164 0 0,0 -0.29669317587229416,-0.9131277029744057 l 33.16474322976081 -10.461162290024049" fill="#a1ff22" stroke="none" /><path d="M 79.97269907076064 106.31721596034903 l -44.332524139473 13.983817891684026 a67.4856952126645,67.4856952126645 0 0,0 -0.3399133234433862,-1.1108564082662624 l 44.56666423542252 -13.218634510865718" fill="#34ff59" stroke="none" /><path d="M 79.76711848015287 105.62410040840567 l -36.268519273819855 10.081499951456271 a58.64362006484838,58.64362006484838 0 0,0 -0.2619748004078816,-0.9749056893355933 l 36.43668215056952 -9.45570332894514" fill="#7aff26" stroke="none" /><path d="M 79.58551787078972 104.9243191809786 l -31.122615299135553 7.507302439010239 a53.01525843982453,53.01525843982453 0 0,0 -0.20635415342460076,-0.8889682921632258 l 31.24723001849071 -6.970465489498439" fill="#c7ff1e" stroke="none" /><path d="M 79.50377843672027 104.57218783832718 l -38.84737931291522 8.665866276719347 a60.80221247377456,60.80221247377456 0 0,0 -0.2190789454528072,-1.0234638980191169 l 38.99079229709247 -7.995888559284068" fill="#5eff29" stroke="none" /><path d="M 79.4281124754447 104.21870165774334 l -32.48111638181979 6.660941508734974 a54.15706656494374,54.15706656494374 0 0,0 -0.17941479765544902,-0.9148321879133724 l 32.5909611124509 -6.100845593753647" fill="#b7ff1f" stroke="none" /><path d="M 79.35854240842038 103.8639653848113 l -28.719809029323933 5.3761875805208685 a50.218672515735264,50.218672515735264 0 0,0 -0.1517406396250765,-0.8510420910199759 l 28.808096111288197 -4.881026738767679" fill="#f0ff19" stroke="none" /><path d="M 79.23777060512086 103.15116336523772 l -36.79736173998826 5.584877040278275 a58.218767880984174,58.218767880984174 0 0,0 -0.14184850034642382,-0.9920880810443907 l 36.88804429135128 -4.950643487253483" fill="#80ff26" stroke="none" /><path d="M 79.18660465613746 102.79330883721812 l -30.864233350436642 4.142204303881615 a52.14094983787908,52.14094983787908 0 0,0 -0.11172685948287417,-0.8905729991160974 l 30.930961719166365 -3.6103135504781094" fill="#d4ff1c" stroke="none" /><path d="M 79.1416061653843 102.43462659150553 l -37.22922935425019 4.345457875893339 a58.48197596795728,58.48197596795728 0 0,0 -0.10810170051175691,-1.0008874888728394 l 37.298513356262994 -3.703974065135717" fill="#7cff26" stroke="none" /><path d="M 79.10278846688536 102.07522291339032 l -30.477496338717227 3.026604704874163 a51.627407972534805,51.627407972534805 0 0,0 -0.08020785848914702,-0.8850870348146983 l 30.52507879348345 -2.5015362815108984" fill="#dbff1b" stroke="none" /><line stroke="#e1ed5e" stroke-width="0.3" x1="15.007084014347285" x2="10.007500721073583" y1="101.09737516637583" y2="101.16192664675087" /><path d="M 14.007167355692545 101.11028546245083 a86.0,86.0 0 0,1 10.666146001902534,-42.60595125391555" fill="none" id="id46" stroke="none" /><text fill="#e1ed5e" style="font-size:6.75px; font-family:Arial;" text-anchor="middle"><textPath startOffset="22.20632615414155" xlink:href="#id46">October</textPath></text><line stroke="#e1ed5e" stroke-width="0.3" x1="26.266209847984243" x2="21.928928074336255" y1="57.711370442889674" y2="55.22380399835377" /><path d="M 25.398753493254645 57.213857153982495 a86.0,86.0 0 0,1 29.58750427330803,-30.492523968695096" fill="none" id="id47" stroke="none" /><text fill="#e1ed5e" style="font-size:6.75px; font-family:Arial;" text-anchor="middle"><textPath startOffset="21.46611528233685" xlink:href="#id47">November</textPath></text><line stroke="#e1ed5e" stroke-width="0.3" x1="56.762969772571076" x2="54.21961505331055" y1="26.818313649435495" y2="22.513508569990535" /><path d="M 56.25429882871897 25.957352633546506 a86.0,86.0 0 0,1 42.265352541879196,-11.944610805530505" fill="none" id="id48" stroke="none" /><text fill="#e1ed5e" style="font-size:6.75px; font-family:Arial;" text-anchor="middle"><textPath startOffset="22.20632615414155" xlink:href="#id48">December</textPath></text></svg>