<?xml version="1.0" encoding="utf-8" ?>
<svg baseProfile="full" height="200mm" version="1.1" viewBox="0,0,200,200" width="200mm" xmlns="http://www.w3.org/2000/svg" xmlns:ev="http://www.w3.org/2001/xml-events" xmlns:xlink="http://www.w3.org/1999/xlink"><defs /><rect fill="#1a1a1a" height="200" width="200" x="0" y="0" /><text alignment-baseline="middle" fill="#e1ed5e" style="dominant-baseline: central; font-size:9.0px; font-family:Arial;" text-anchor="middle" x="100.0" y="100.0">2024</text><line stroke="#e1ed5e" stroke-width="0.3" x1="100.0" x2="100.0" y1="15.0" y2="10.0" /><path d="M 100.0 14.0 a86.0,86.0 0 0,1 42.35913384403234,11.155469271406648" fill="none" id="id49" stroke="none" /><text fill="#e1ed5e" style="font-size:6.75px; font-family:Arial;" text-anchor="middle"><textPath startOffset="22.145653131862478" xlink:href="#id49">January</textPath></text><path d="M 100.0 79.0 l 0.0 -27.53910701630049 a48.53910701630049,48.53910701630049 0 0,0 0.8332383170408444,0.007152348814796341 l -0.47274539219198963 27.53504906568013" fill="#ffb410" stroke="none" /><path d="M 100.72087961077811 79.0123766808444 l 1.5626527101957797 -45.49492865368525 a66.52175761871013,66.52175761871013 0 0,0 1.1409249263721164,0.048996225436231396 l -2.3434033971687325 45.46139985982318" fill="#32ff2f" stroke="none" /><path d="M 101.08105385017728 79.02784411241856 l 1.7149583475793957 -33.269733788234696 a54.313905031892276,54.313905031892276 0 0,0 0.9307221658794051,0.05598993431228527 l -2.2858248655912634 33.235391876097715" fill="#e7ff1a" stroke="none" /><path d="M 101.44090949804482 79.04949213459386 l 2.181207570943304 -31.714279372256467 a52.789199149539336,52.789199149539336 0 0,0 0.9035273769204435,0.06993873328014281 l -2.7253039426389805 31.67216287198127" fill="#fffd18" stroke="none" /><path d="M 101.80034050326958 79.07731436759882 l 3.7715174076006575 -43.83074920163661 a64.9927143869596,64.9927143869596 0 0,0 1.1107577890606168,0.10518991747455943 l -4.523374760046287 43.75954752865686" fill="#46ff2c" stroke="none" /><path d="M 102.51750503828377 79.15144685158666 l 3.902380048368614 -32.31730487387018 a53.552062367115525,53.552062367115525 0 0,0 0.9117166657014909,0.11803997557859837 l -4.456574535960897 32.24555330209119" fill="#f4ff19" stroke="none" /><path d="M 102.87502721639298 79.19773525538626 l 4.173991117749465 -30.20092045668559 a51.487994330262225,51.487994330262225 0 0,0 0.8744988066770737,0.1285212095612178 l -4.6918150300342205 30.124818173825492" fill="#ffe715" stroke="none" /><path d="M 103.94208987418118 79.37332000966035 l 9.568202865860075 -50.064880531862805 a71.97099929128277,71.97099929128277 0 0,0 1.2115238661579746,0.2423387039363591 l -10.426223217549007 49.89325243126359" fill="#38ff84" stroke="none" /><path d="M 104.29559338865022 79.4440306129975 l 7.241177933564794 -34.651657748027276 a56.40017009213324,56.40017009213324 0 0,0 0.9460123626439428,0.20617899138015777 l -7.834952712827871 34.5222472985134" fill="#c6ff1e" stroke="none" /><path d="M 104.64783097203109 79.52079915486377 l 9.63082151999812 -42.435176622938236 a64.51433026222537,64.51433026222537 0 0,0 1.077904957715275,0.254382635037769 l -10.35785863145328 42.26359784425424" fill="#4dff2c" stroke="none" /><path d="M 104.9986988182912 79.60360301121754 l 7.337929939279364 -29.941258226991554 a51.82732813607371,51.82732813607371 0 0,0 0.8622949579530829,0.21919200633347122 l -7.850830190457842 29.810880988822817" fill="#ffed16" stroke="none" /><path d="M 105.69591212413111 79.78721728523813 l 9.864002651754877 -35.003865571077554 a57.36714386959603,57.36714386959603 0 0,0 0.945574403272604,0.275242927843646 l -10.463437067409085 34.82937894893139" fill="#b6ff1f" stroke="none" /><path d="M 106.04205211174951 79.88797359093562 l 5.689744867424431 -18.93931017442752 a40.77550673281361,40.77550673281361 0 0,0 0.6686394139452514,0.20714619962712416 l -6.014024914241313 18.83884738699375" fill="#ff2203" stroke="none" /><path d="M 106.38641147887787 79.99465700312896 l 12.123719914785626 -37.97737995671677 a60.865598866052444,60.865598866052444 0 0,0 0.9926230319560151,0.3262949066025879 l -12.773865684389385 37.76366412871216" fill="#81ff25" stroke="none" /><path d="M 106.72888874123014 80.10723608172694 l 17.49660951784639 -51.72561709574324 a75.60467753366407,75.60467753366407 0 0,0 1.2258550622195379,0.42641602439206894 l -18.381970352110947 51.417642638782574" fill="#3fffbb" stroke="none" /><path d="M 107.40779381753099 80.34994680014964 l 12.243852423098728 -32.478273209444694 a55.70951098511694,55.70951098511694 0 0,0 0.8919563255294255,0.34502786811902364 l -12.79958101112168 32.263305453187634" fill="#d1ff1d" stroke="none" /><path d="M 107.74402155503746 80.48000691201159 l 12.147003910717833 -30.61838486525663 a53.939872430900074,53.939872430900074 0 0,0 0.8577609410598034,0.34884390736206977 l -12.670819312968076 30.405353701315267" fill="#eeff19" stroke="none" /><path d="M 108.07796709384702 80.6158196554323 l 13.441436273027445 -32.254553872203736 a55.943217576187095,55.943217576187095 0 0,0 0.8832766062082263,0.3770182603166763 l -13.993147954406101 32.019060962227655" fill="#cdff1d" stroke="none" /><path d="M 108.73861861582097 80.90454125486305 l 18.204213858578022 -39.77949261852178 a64.74701630049611,64.74701630049611 0 0,0 1.0066967412027434,0.47118490598123364 l -18.88439931365227 39.46113148097001" fill="#4aff2c" stroke="none" /><path d="M 109.06512990194946 81.05736502329252 l 17.489634039844983 -36.546608496116015 a61.51594613749114,61.51594613749114 0 0,0 0.9486337458844399,0.46402430175530024 l -18.114428034991487 36.24099044426349" fill="#78ff26" stroke="none" /><path d="M 109.71004243097381 81.37971332152246 l 22.098550469322 -42.37688432802378 a68.79274273564846,68.79274273564846 0 0,0 1.0424104824381548,0.5550248678943939 l -22.822749767546714 41.99128899240681" fill="#33ff52" stroke="none" /><line stroke="#e1ed5e" stroke-width="0.3" x1="143.13028292997686" x2="145.6673583964461" y1="26.7553504044142" y2="22.446841604673864" /><path d="M 143.63769802327073 25.89364864446614 a86.0,86.0 0 0,1 29.32050498858742,28.57503671076993" fill="none" id="id50" stroke="none" /><text fill="#e1ed5e" style="font-size:6.75px; font-family:Arial;" text-anchor="middle"><textPath startOffset="20.669276256404974" xlink:href="#id50">February</textPath></text><path d="M 110.65571695917076 81.90426304109057 l 19.526339708629823 -33.15999369085826 a59.481984408221116,59.481984408221116 0 0,0 0.8754253788353608,0.5256677869764989 l -20.09269784402262 32.81991190334583" fill="#96ff23" stroke="none" /><path d="M 110.96478420261332 82.08984904055464 l 16.17708093118577 -26.42404594626198 a51.982707299787386,51.982707299787386 0 0,0 0.757056027376183,0.4724589527044335 l -16.628301087351666 26.142451196716003" fill="#fff016" stroke="none" /><path d="M 111.5731344415666 82.4767994020092 l 22.281582207776466 -33.737155360880514 a61.430985116938345,61.430985116938345 0 0,0 0.8749636035397212,0.5887145608464821 l -22.85744209941319 33.34969112597692" fill="#79ff26" stroke="none" /><path d="M 114.65682725009322 84.96080404539774 l 21.875459354439013 -22.446148420440245 a52.342707299787385,52.342707299787385 0 0,0 0.6381026662389506,0.6326488300683956 l -22.257553940807924 22.06731958014319" fill="#fff617" stroke="none" /><path d="M 115.16444852881244 85.47280134310134 l 31.263605599119366 -29.94982695258642 a64.29440113394756,64.29440113394756 0 0,0 0.756666007794092,0.803553078826614 l -31.773127440649716 29.40873241381531" fill="#50ff2b" stroke="none" /><path d="M 115.8921839302757 86.27271002978787 l 27.2987719953269 -23.580029066782725 a57.0727143869596,57.0727143869596 0 0,0 0.6340654543754062,0.7469275109193263 l -27.699532013209417 23.107934773413845" fill="#bbff1f" stroke="none" /><path d="M 116.1254893667686 86.54754324733833 l 21.324045428537346 -17.7892771124425 a48.77000708717222,48.77000708717222 0 0,0 0.5307876307394231,0.6474746046405634 l -21.626279878515398 17.420600226103442" fill="#ffb811" stroke="none" /><path d="M 116.57777611688842 87.10902102172516 l 36.44002307792147 -28.33598235090087 a67.16062367115521,67.16062367115521 0 0,0 0.6999033185754218,0.916195911213588 l -36.921078373851195 27.706265526446398" fill="#30ff37" stroke="none" /><path d="M 116.7966241395341 87.39550010848427 l 21.118545011578007 -15.847749886888192 a47.4034868887314,47.4034868887314 0 0,0 0.48283381477067816,0.655056800655498 l -21.387480845932508 15.482886776963818" fill="#ff9f0e" stroke="none" /><path d="M 117.21940702142032 87.97951657250589 l 25.277538597996944 -17.64568509398081 a51.82732813607371,51.82732813607371 0 0,0 0.5029972089319854,0.7338879600854799 l -25.576725543744253 17.20916239882528" fill="#ffed16" stroke="none" /><path d="M 117.42321728460499 88.27688183743584 l 23.21435107907451 -15.61965142957288 a48.97998582565556,48.97998582565556 0 0,0 0.46338696026509935,0.7016269188107088 l -23.479062478260335 15.218844632423112" fill="#ffbc11" stroke="none" /><path d="M 117.62189284568427 88.57770195909679 l 19.905370441648067 -12.902420630413316 a44.72121899362155,44.72121899362155 0 0,0 0.4120364135328568,0.6477896795028628 l -20.123924546806812 12.558817276231782" fill="#ff6e0a" stroke="none" /><line stroke="#e1ed5e" stroke-width="0.3" x1="172.87174338648825" x2="177.1583165268699" y1="56.24261187166439" y2="53.66864786411523" /><path d="M 173.72905801456457 55.72781907015455 a86.0,86.0 0 0,1 12.242430191666344,42.057860355516425" fill="none" id="id51" stroke="none" /><text fill="#e1ed5e" style="font-size:6.75px; font-family:Arial;" text-anchor="middle"><textPath startOffset="22.145653131862474" xlink:href="#id51">March</textPath></text><path d="M 118.00360718960297 89.18935116829356 l 28.76195184994388 -17.27072568789198 a54.54888731396173,54.54888731396173 0 0,0 0.4751631225186857,0.8069308626175548 l -29.054188682592336 16.774443656980868" fill="#e4ff1b" stroke="none" /><path d="M 118.18653347947321 89.5 l 39.89120463117077 -23.031197732104896 a67.06239546420979,67.06239546420979 0 0,0 0.5670497093421653,1.0019225027538778 l -40.28068770553431 22.3430184592519" fill="#30ff35" stroke="none" /><path d="M 118.36410011445183 89.81374322990088 l 24.054089267257268 -13.342397837090084 a48.5067044649185,48.5067044649185 0 0,0 0.3976502261176194,0.7316316277780387 l -24.27958484299023 12.927511375837442" fill="#ffb310" stroke="none" /><path d="M 118.53625476483649 90.13048839642627 l 29.56312121684256 -15.740696898544051 a54.49250177179306,54.49250177179306 0 0,0 0.43254573079649705,0.8294634720946876 l -29.828975016614002 15.230887183344866" fill="#e4ff1a" stroke="none" /><path d="M 118.8641267826498 90.77261029715802 l 31.160932335194502 -15.24237349937593 a55.68909992912828,55.68909992912828 0 0,0 0.41268471688169317,0.8623523365809356 l -31.417996310036106 14.70520866072989" fill="#d1ff1c" stroke="none" /><path d="M 119.0197475246899 91.09779779509293 l 20.02856248198812 -9.374378542975995 a43.11384833451453,43.11384833451453 0 0,0 0.3079879538123975,0.6730092620561404 l -20.18653490065557 9.029180298705171" fill="#ff4f07" stroke="none" /><path d="M 119.31412917781788 91.75594674310238 l 57.94238753345363 -24.732159770692828 a84.0,84.0 0 0,0 0.5546966218540672,1.3310699622348887 l -58.358409999844184 23.733857299016663" fill="#4dd2ff" stroke="none" /><path d="M 119.58574465831526 92.42381321644754 l 35.74405340519807 -13.82656772685347 a59.325074415308286,59.325074415308286 0 0,0 0.35925376885962756,0.9529633038155008 l -35.97613785787214 13.210936142843812" fill="#98ff23" stroke="none" /><path d="M 119.71291397450082 92.76114493625339 l 30.556952625501626 -11.22093626198046 a53.552062367115525,53.552062367115525 0 0,0 0.30947948488901367,0.8656691993973683 l -30.745072280434584 10.694732106202176" fill="#f4ff19" stroke="none" /><path d="M 119.83427380445688 93.10060997987247 l 40.51204141966847 -14.092190973134915 a63.893068745570524,63.893068745570524 0 0,0 0.35145623336154674,1.0390179042533148 l -40.74798307460238 13.394671394407439" fill="#56ff2b" stroke="none" /><path d="M 119.94978838288452 93.4421083053983 l 25.410984882797766 -8.353095457268898 a47.74868887313961,47.74868887313961 0 0,0 0.24928290837476091,0.7808751599843644 l -25.550632506949785 7.915651263593148" fill="#ffa60f" stroke="none" /><path d="M 120.26092885502905 94.47779374421319 l 50.48029809243923 -13.75862972100897 a73.3217009213324,73.3217009213324 0 0,0 0.3205573061841816,1.2172083044630195 l -50.70904487942814 12.890040912173152" fill="#3bff99" stroke="none" /><path d="M 120.35273937422433 94.82641323984039 l 17.521118402422754 -4.453799782095327 a39.078327427356484,39.078327427356484 0 0,0 0.1596860921975104,0.6515737491784097 l -17.594992021136555 4.152370208308822" fill="#ff0000" stroke="none" /><path d="M 120.43855184770803 95.1765574152323 l 30.036911312371686 -7.088629283450497 a51.862026931254434,51.862026931254434 0 0,0 0.19704887841513777,0.8682337162551725 l -30.15417105234449 6.571961233256299" fill="#ffee16" stroke="none" /><path d="M 120.592083275326 95.88100663000786 l 21.321281113371768 -4.264853359977805 a42.7436428065202,42.7436428065202 0 0,0 0.13774384714687307,0.7207340132819533 l -21.391351252800796 3.8982167816625375" fill="#ff4806" stroke="none" /><path d="M 120.65975698304385 96.23510406497455 l 32.77415152929028 -5.972542173066436 a54.313905031892276,54.313905031892276 0 0,0 0.1592824644808828,0.9186989274579722 l -32.8718488112634 5.409050212687871" fill="#e7ff1a" stroke="none" /><path d="M 120.7213421655516 96.59031103205396 l 52.13722140478982 -8.57915994161857 a73.83835577604536,73.83835577604536 0 0,0 0.19506865721042402,1.2524807121037231 l -52.276811554138504 7.682891047583406" fill="#3cffa1" stroke="none" /><path d="M 120.82617615685814 97.30363454192243 l 30.810005053145535 -3.9889719919198963 a52.067158043940466,52.067158043940466 0 0,0 0.10715399738321327,0.8873888137406797 l -30.873941136788414 3.4594895012558036" fill="#fff116" stroke="none" /><path d="M 120.9064616781168 98.02013634271609 l 41.947374955483774 -3.972460020805622 a63.13505315379163,63.13505315379163 0 0,0 0.09291789398901304,1.0798467745552756 l -42.009386472170526 3.2517921988746843" fill="#60ff29" stroke="none" /><path d="M 120.93736805541906 98.37931529534042 l 34.78863365709156 -2.692860263755113 a55.89270021261517,55.89270021261517 0 0,0 0.06583638109755086,0.9572465320589282 l -34.829733999354175 2.095270307541851" fill="#ceff1d" stroke="none" /><path d="M 120.98066250479742 99.09900007780936 l 25.720503659672865 -1.1045490956622739 a46.74420978029766,46.74420978029766 0 0,0 0.027546391767436965,0.8019831405591353 l -25.73567473843715 0.6628596905390186" fill="#ff930d" stroke="none" /><path d="M 120.99303781780057 99.45929381324524 l 27.752638712070848 -0.714809527836052 a48.76184266477675,48.76184266477675 0 0,0 0.014369809462193147,0.836969360549997 l -27.760819953131705 0.2382932513169885" fill="#ffb811" stroke="none" /><line stroke="#e1ed5e" stroke-width="0.3" x1="184.99686870605535" x2="189.99668451229388" y1="99.2704041080226" y2="99.22748670261217" /><path d="M 185.99683186730306 99.26182062694052 a86.0,86.0 0 0,1 -10.086455211305974,41.156179273409016" fill="none" id="id52" stroke="none" /><text fill="#e1ed5e" style="font-size:6.75px; font-family:Arial;" text-anchor="middle"><textPath startOffset="21.40746469413373" xlink:href="#id52">April</textPath></text><path d="M 120.99303781780057 100.54070618675476 l 38.29604497687482 0.986370273180597 a59.30874557051736,59.30874557051736 0 0,0 -0.03495068048855178,1.017550927886593 l -38.27346960938942 -1.6436274656313008" fill="#99ff23" stroke="none" /><path d="M 120.98066250479742 100.90099992219065 l 44.68301208604994 1.9188807981430003 a65.72419560595324,65.72419560595324 0 0,0 -0.058082695461514414,1.126788775036586 l -44.643487801131855 -2.685641366556317" fill="#3cff2e" stroke="none" /><line stroke="#e1ed5e" stroke-width="0.3" x1="174.33088141563837" x2="178.70328620479359" y1="141.23008692659167" y2="143.65538615756765" /><path d="M 175.20536237346943 141.71514677278685 a86.0,86.0 0 0,1 -30.301960400862466,31.631185727798858" fill="none" id="id53" stroke="none" /><text fill="#e1ed5e" style="font-size:6.75px; font-family:Arial;" text-anchor="middle"><textPath startOffset="22.145653131862474" xlink:href="#id53">May</textPath></text><line stroke="#e1ed5e" stroke-width="0.3" x1="143.1302829299769" x2="145.66735839644613" y1="173.24464959558577" y2="177.55315839532614" /><path d="M 143.63769802327073 174.10635135553383 a86.0,86.0 0 0,1 -40.68552437913181,11.842963189579606" fill="none" id="id54" stroke="none" /><text fill="#e1ed5e" style="font-size:6.75px; font-family:Arial;" text-anchor="middle"><textPath startOffset="21.407464694133747" xlink:href="#id54">June</textPath></text><line stroke="#e1ed5e" stroke-width="0.3" x1="101.45913802915013" x2="101.54496967792366" y1="184.9874750549273" y2="189.98673829345242" /><path d="M 101.47630435890484 185.9873277026323 a86.0,86.0 0 0,1 -42.54439059252881,-10.42667462771756" fill="none" id="id55" stroke="none" /><text fill="#e1ed5e" style="font-size:6.75px; font-family:Arial;" text-anchor="middle"><textPath startOffset="22.145653131862474" xlink:href="#id55">July</textPath></text><line stroke="#e1ed5e" stroke-width="0.3" x1="58.13341422392154" x2="55.67067388415222" y1="173.97424548756322" y2="178.32567169271397" /><path d="M 57.64086615596768 174.84453072859336 a86.0,86.0 0 0,1 -31.369924170532247,-30.572349798747897" fill="none" id="id56" stroke="none" /><text fill="#e1ed5e" style="font-size:6.75px; font-family:Arial;" text-anchor="middle"><textPath startOffset="22.145653131862474" xlink:href="#id56">August</textPath></text><line stroke="#e1ed5e" stroke-width="0.3" x1="26.387840678322732" x2="22.057713659400548" y1="142.50000000000003" y2="145.00000000000006" /><path d="M 25.521815274538298 143.00000000000003 a86.0,86.0 0 0,1 -11.493303480769221,-40.785679425670985" fill="none" id="id57" stroke="none" /><text fill="#e1ed5e" style="font-size:6.75px; font-family:Arial;" text-anchor="middle"><textPath startOffset="21.40746469413373" xlink:href="#id57">September</textPath></text><line stroke="#e1ed5e" stroke-width="0.3" x1="15.003131293944662" x2="10.003315487706104" y1="100.72959589197737" y2="100.7725132973878" /><path d="M 14.003168132696942 100.73817937305945 a86.0,86.0 0 0,1 10.791469493833604,-42.45332614584628" fill="none" id="id58" stroke="none" /><text fill="#e1ed5e" style="font-size:6.75px; font-family:Arial;" text-anchor="middle"><textPath startOffset="22.145653131862435" xlink:href="#id58">October</textPath></text><line stroke="#e1ed5e" stroke-width="0.3" x1="26.387840678322718" x2="22.05771365940052" y1="57.49999999999999" y2="54.99999999999999" /><path d="M 25.521815274538284 56.99999999999999 a86.0,86.0 0 0,1 29.574782752854787,-30.34633250058573" fill="none" id="id59" stroke="none" /><text fill="#e1ed5e" style="font-size:6.75px; font-family:Arial;" text-anchor="middle"><textPath startOffset="21.40746469413373" xlink:href="#id59">November</textPath></text><line stroke="#e1ed5e" stroke-width="0.3" x1="56.869717070023135" x2="54.33264160355391" y1="26.7553504044142" y2="22.446841604673864" /><path d="M 56.362301976729285 25.89364864446614 a86.0,86.0 0 0,1 42.16139366436587,-11.88097634709845" fill="none" id="id60" stroke="none" /><text fill="#e1ed5e" style="font-size:6.75px; font-family:Arial;" text-anchor="middle"><textPath startOffset="22.145653131862474" xlink:href="#id60">December</textPath></text></svg>