<?xml version="1.0" encoding="utf-8" ?>
<svg baseProfile="full" height="200mm" version="1.1" viewBox="0,0,200,200" width="200mm" xmlns="http://www.w3.org/2000/svg" xmlns:ev="http://www.w3.org/2001/xml-events" xmlns:xlink="http://www.w3.org/1999/xlink"><defs /><rect fill="#1a1a1a" height="200" width="200" x="0" y="0" /><text alignment-baseline="middle" fill="#e1ed5e" style="dominant-baseline: central; font-size:9.0px; font-family:Arial;" text-anchor="middle" x="100.0" y="100.0">2022</text><line stroke="#e1ed5e" stroke-width="0.3" x1="100.0" x2="100.0" y1="15.0" y2="10.0" /><path d="M 100.0 14.0 a86.0,86.0 0 0,1 42.46469731375804,11.215312516191453" fill="none" id="id25" stroke="none" /><text fill="#e1ed5e" style="font-size:6.75px; font-family:Arial;" text-anchor="middle"><textPath startOffset="22.20632615414155" xlink:href="#id25">January</textPath></text><path d="M 108.09893153111575 80.62456947434976 l 2.127940673537715 -5.090766173838163 a26.51761105432333,26.51761105432333 0 0,0 0.4196301360928917,0.1796637246718209 l -2.215254567420922 5.053382921203551" fill="#ff0000" stroke="none" /><path d="M 109.73455568895987 81.39251694778311 l 12.607903433084129 -24.09985180126564 a48.19856771635119,48.19856771635119 0 0,0 0.7318262888856764,0.39091625877335123 l -13.020874768498116 23.879256815990534" fill="#ccff1d" stroke="none" /><path d="M 110.05341064243156 81.56283822128135 l 9.85363997934995 -18.07079814702414 a41.58271037820663,41.58271037820663 0 0,0 0.6254750723604647,0.34807620058110633 l -10.16323914078245 17.898506548882853" fill="#ffdc14" stroke="none" /><path d="M 110.36928655335952 81.73862282372117 l 12.863756422324022 -22.65439446802926 a47.05182945602779,47.05182945602779 0 0,0 0.7008555236823623,0.4059807564106973 l -13.251808678471711 22.429609554228513" fill="#daff1c" stroke="none" /><line stroke="#e1ed5e" stroke-width="0.3" x1="143.23703022742887" x2="145.7803849466894" y1="26.81831364943548" y2="22.513508569990506" /><path d="M 143.74570117128098 25.957352633546492 a86.0,86.0 0 0,1 28.547481713284135,27.462654790039103" fill="none" id="id26" stroke="none" /><text fill="#e1ed5e" style="font-size:6.75px; font-family:Arial;" text-anchor="middle"><textPath startOffset="19.985693538727396" xlink:href="#id26">February</textPath></text><path d="M 110.99172775467656 82.1063720568725 l 20.560604853194718 -33.470972147413214 a60.28160445325681,60.28160445325681 0 0,0 0.8794823366070844,0.5507317584994916 l -21.133706342174065 33.11209604759078" fill="#40ff2d" stroke="none" /><path d="M 111.2981086023043 82.29822771554956 l 15.928024780356674 -24.95588222133499 a50.60570942991909,50.60570942991909 0 0,0 0.7302475543259467,0.4749733224908272 l -16.3552393604669 24.67800997468463" fill="#aeff20" stroke="none" /><path d="M 111.60114157652 82.49532879139004 l 18.84787247805156 -28.43908149331189 a55.117790859493354,55.117790859493354 0 0,0 0.7863348283898203,0.5309367862518453 l -19.334612000847923 28.110432794761373" fill="#79ff26" stroke="none" /><path d="M 111.90073688211348 82.69761687909136 l 22.16818010526227 -32.23013407270921 a60.11789554058548,60.11789554058548 0 0,0 0.8475731820633455,0.5937791788691349 l -22.719684426909264 31.84377005107614" fill="#42ff2d" stroke="none" /><path d="M 112.48926042617603 83.11751280151076 l 23.475792070424458 -31.73364519428832 a60.47324474439341,60.47324474439341 0 0,0 0.8315181911740119,0.6262822624122987 l -24.018556415356855 31.324846342370176" fill="#3eff2d" stroke="none" /><path d="M 112.77801427241765 83.33499621200491 l 23.785811146216766 -31.021301463708554 a60.09074003374426,60.09074003374426 0 0,0 0.8154240307616681,0.6364513900511377 l -24.316267732137863 30.607271684434192" fill="#42ff2d" stroke="none" /><path d="M 113.06298171725822 83.55741782278167 l 13.106981341633764 -16.497965201953463 a42.0707336297245,42.0707336297245 0 0,0 0.5631400115816251,0.4553533922695862 l -13.38902475177988 16.26990571241975" fill="#ffe315" stroke="none" /><path d="M 113.6212207817346 84.01681056812373 l 23.06309089959237 -27.062313770515363 a56.55664478626584,56.55664478626584 0 0,0 0.7355224008981597,0.6378377781007898 l -23.525507099137297 26.661310998994903" fill="#69ff28" stroke="none" /><path d="M 113.89432698308785 84.25364557470407 l 23.269605351539322 -26.371299138713 a56.169872781684504,56.169872781684504 0 0,0 0.719479933638295,0.645956188289489 l -23.720096272773606 25.966843941654215" fill="#6dff28" stroke="none" /><path d="M 114.42810811169701 84.74124197986012 l 26.801962379389416 -28.344995424621466 a60.010049384844635,60.010049384844635 0 0,0 0.7444582579237295,0.7161682542891231 l -27.285903880925563 27.87944408357004" fill="#43ff2d" stroke="none" /><path d="M 114.68862486808459 84.99185889309783 l 18.361368999129574 -18.760777086328467 a47.25084052759271,47.25084052759271 0 0,0 0.5763797026272492,0.5739045450113015 l -18.681584501924146 18.441936690667045" fill="#d8ff1c" stroke="none" /><path d="M 114.94478906791727 85.2469230424477 l 16.557171297125624 -16.344775509094028 a44.265674454118894,44.265674454118894 0 0,0 0.5306310548279093,0.5468619457867185 l -16.83606661565664 16.057349367757197" fill="#feff18" stroke="none" /><path d="M 115.19652480421416 85.50635884689758 l 14.191894880828132 -13.53547829752717 a40.6117070407271,40.6117070407271 0 0,0 0.4781210043347603,0.5100261514013602 l -14.422783207133355 13.289182729247756" fill="#ffcf13" stroke="none" /><path d="M 115.68641384162765 86.03803664274999 l 34.10098364911039 -30.35216901466487 a66.65228635820638,66.65228635820638 0 0,0 0.7554184030663006,0.863573821979735 l -34.61839391575454 29.760679636482188" fill="#36ff6c" stroke="none" /><path d="M 115.9244219780498 86.31012108654704 l 29.553894683483716 -25.406839896325174 a59.973583418515005,59.973583418515005 0 0,0 0.6662476420325983,0.7886270628426253 l -29.98685293900343 24.894353883853444" fill="#43ff2d" stroke="none" /><path d="M 116.15771136456269 86.58626213691792 l 14.960891760846367 -12.420167420373334 a40.444506705747614,40.444506705747614 0 0,0 0.44007765568995827,0.5394831705081536 l -15.172467908612735 12.16080008025708" fill="#ffcd13" stroke="none" /><path d="M 116.60985879189232 87.15038557335679 l 31.785156324316656 -24.589432599957576 a61.186270766881364,61.186270766881364 0 0,0 0.6372814068894731,0.8385876301797012 l -32.20371367143024 24.038660193896842" fill="#36ff2e" stroke="none" /><path d="M 116.82858285166822 87.43820079747576 l 34.8937294490042 -26.046639020596228 a64.54307934826784,64.54307934826784 0 0,0 0.6569175790583086,0.8960348395767089 l -35.33690964057614 25.442141737348024" fill="#33ff52" stroke="none" /><path d="M 117.04232023915458 87.72973835380427 l 37.992773879129096 -27.354331430213218 a67.81570585844653,67.81570585844653 0 0,0 0.673918190083318,0.9532094871765419 l -38.4580046890163 26.696295442704884" fill="#37ff7b" stroke="none" /><path d="M 117.2510076193507 88.02491185347247 l 33.11087005352044 -22.984488572966608 a61.30653086860676,61.30653086860676 0 0,0 0.594309989503472,0.8720765755954313 l -33.501604508692644 22.41113397410077" fill="#35ff2f" stroke="none" /><path d="M 117.45458315368197 88.32363383020206 l 36.15851712805384 -24.18849435857229 a64.50312195963005,64.50312195963005 0 0,0 0.609411258414701,0.92817515586882 l -36.569525021826465 23.562501138725793" fill="#33ff51" stroke="none" /><path d="M 117.65298651832404 88.62581576622439 l 37.1949962987291 -23.965505215630333 a65.24718284707939,65.24718284707939 0 0,0 0.6001883404166655,0.9493538189974478 l -37.60201223539172 23.32170374891868" fill="#34ff5b" stroke="none" /><line stroke="#e1ed5e" stroke-width="0.3" x1="172.23445277983987" x2="176.4835382374775" y1="55.19839476539836" y2="52.563006222186495" /><path d="M 173.08426987136738 54.67131705675599 a86.0,86.0 0 0,1 12.851231095245387,41.99856678651699" fill="none" id="id27" stroke="none" /><text fill="#e1ed5e" style="font-size:6.75px; font-family:Arial;" text-anchor="middle"><textPath startOffset="22.20632615414155" xlink:href="#id27">March</textPath></text><path d="M 118.03404312379186 89.2402003453031 l 27.489150746620556 -16.401078376106724 a53.01013559280287,53.01013559280287 0 0,0 0.46078511464201544,0.7876311266126687 l -27.7673955357329 15.92546783714016" fill="#91ff23" stroke="none" /><path d="M 118.21658344932153 89.55222093294921 l 23.301809831983526 -13.364315084893875 a47.86222736733211,47.86222736733211 0 0,0 0.40373465946890835,0.718198909271264 l -23.52840213274487 12.961232665687817" fill="#d0ff1d" stroke="none" /><path d="M 118.56541770881063 90.18545643968196 l 36.50447349428124 -19.297963066355976 a62.29149989531891,62.29149989531891 0 0,0 0.49296474651950484,0.9522509827482973 l -36.83124767396087 18.666739361347332" fill="#30ff35" stroke="none" /><path d="M 118.73160827565052 90.50648371742162 l 28.77286591698081 -14.582606419032425 a53.25725070505795,53.25725070505795 0 0,0 0.407392574447505,0.8212785706543123 l -29.01961850438172 14.085168259879163" fill="#8fff24" stroke="none" /><path d="M 118.89224826269711 90.83032412892265 l 36.47423782650164 -17.70339526894723 a61.54355964974938,61.54355964974938 0 0,0 0.4543726021668933,0.9570245796240224 l -36.77356862251029 17.072928273682667" fill="#33ff2f" stroke="none" /><path d="M 119.04729006885535 91.15688171328212 l 35.71621988686865 -16.582031148380867 a60.37781253463713,60.37781253463713 0 0,0 0.4295383475950559,0.946430811460113 l -35.99636055142705 15.964778328078692" fill="#3fff2d" stroke="none" /><path d="M 119.34039704204932 91.81776055985345 l 37.47557715984135 -15.854594133348659 a61.691363194128016,61.691363194128016 0 0,0 0.40533667748651014,0.9815549155504433 l -37.742935524214055 15.207164647344912" fill="#31ff2f" stroke="none" /><path d="M 119.47837535516314 92.15188598940014 l 29.912748093881692 -12.052270948198432 a53.2494919888176,53.2494919888176 0 0,0 0.33523458602116224,0.8531354556396019 l -30.115776229784558 11.535586487663045" fill="#8fff24" stroke="none" /><path d="M 119.61058180528143 92.48833698450437 l 37.604599006150835 -14.404115001369966 a61.26890109484106,61.26890109484106 0 0,0 0.36876704599693616,0.9881123438314676 l -37.846970640649396 13.754679520509164" fill="#36ff2f" stroke="none" /><path d="M 119.7369772167798 92.82701384747503 l 37.125784278721476 -13.492579618853462 a60.501564058670674,60.501564058670674 0 0,0 0.3472989120695574,0.9818607921951045 l -37.35253627160085 12.851521200231744" fill="#3eff2e" stroke="none" /><path d="M 120.08093135843002 93.85539295169968 l 40.16693247255712 -12.29076540196757 a63.0053017894309,63.0053017894309 0 0,0 0.308408260697667,1.0397993371134775 l -40.37254663036649 11.597536678107563" fill="#31ff3e" stroke="none" /><path d="M 120.18372546131832 94.20196356495316 l 39.18760815484211 -11.257147760930403 a61.77244177883964,61.77244177883964 0 0,0 0.28478045612432284,1.0245068205609875 l -39.3755753815328 10.580929636950463" fill="#30ff2f" stroke="none" /><path d="M 120.28053869075195 94.5502522615342 l 39.47972672125426 -10.608916986633837 a61.88028793458047,61.88028793458047 0 0,0 0.26756938711341705,1.031053996970288 l -39.65649244023798 9.927766564114698" fill="#2fff30" stroke="none" /><path d="M 120.37134235888165 94.90015583598534 l 35.1097635695621 -8.789520085901453 a57.193247453786384,57.193247453786384 0 0,0 0.23086244907845194,0.9570738954580287 l -35.255858818901366 8.183860958784019" fill="#62ff29" stroke="none" /><path d="M 120.53481517161879 95.60439243477599 l 38.49414840740383 -8.239916870072399 a60.36617446027661,60.36617446027661 0 0,0 0.2087540043915914,1.0179586628890698 l -38.63028170771042 7.576082551019918" fill="#3fff2d" stroke="none" /><path d="M 120.67395015179393 96.31383870115 l 36.19653518275916 -6.45383519663615 a57.76739245557212,57.76739245557212 0 0,0 0.16611739501060538,0.9804342687191596 l -36.30226443928999 5.829815139601152" fill="#5bff2a" stroke="none" /><path d="M 120.73433829027371 96.67025291283417 l 40.4945081723479 -6.503051544034028 a62.01334991810245,62.01334991810245 0 0,0 0.16018375053064443,1.0554107763938199 l -40.600447816317846 5.805041655248125" fill="#30ff31" stroke="none" /><path d="M 120.83666639777658 97.38593545837742 l 19.27710482642118 -2.4184097028719616 a40.42821340164288,40.42821340164288 0 0,0 0.08068248344563947,0.6912382461999514 l -19.315877662870406 2.0862277183471574" fill="#ffcd13" stroke="none" /><path d="M 120.91429891909075 98.10471618934814 l 40.405918617013796 -3.6616423866563124 a61.57149102821463,61.57149102821463 0 0,0 0.08656809783863738,1.056350062582498 l -40.46296119867193 2.9655784068660456" fill="#32ff2f" stroke="none" /><path d="M 120.94382443527127 98.46500227214037 l 39.03492041016618 -2.860915604118539 a60.13961994605846,60.13961994605846 0 0,0 0.06678192354100705,1.033086798800379 l -39.078382924711605 2.188569741065125" fill="#41ff2d" stroke="none" /><path d="M 120.96714384426684 98.82574320788733 l 40.550232576952645 -2.271000112314059 a61.613776031724534,61.613776031724534 0 0,0 0.05018997100058499,1.05943096209875 l -40.583316156186726 1.572658043592309" fill="#32ff2f" stroke="none" /><path d="M 120.98425023603335 99.18683210126433 l 40.86978571106601 -1.5837591238488204 a61.90046059680538,61.90046059680538 0 0,0 0.032094815634015256,1.0650706810365878 l -40.89099222115567 0.8800182953872335" fill="#2fff30" stroke="none" /><line stroke="#e1ed5e" stroke-width="0.3" x1="184.98032266829074" x2="189.97916517819016" y1="98.17113171792111" y2="98.06355123074" /><path d="M 185.9800911702706 98.14961562048488 a86.0,86.0 0 0,1 -9.607161424134198,41.387399972396054" fill="none" id="id28" stroke="none" /><text fill="#e1ed5e" style="font-size:6.75px; font-family:Arial;" text-anchor="middle"><textPath startOffset="21.466115282336823" xlink:href="#id28">April</textPath></text><path d="M 120.99980553446 99.90962569577887 l 38.85761871140137 -0.1672267987896473 a59.85797854653383,59.85797854653383 0 0,0 -0.004434343784272056,1.0303853284980553 l -38.854740070327594 -0.5016680079120927" fill="#45ff2d" stroke="none" /><path d="M 120.99824983174949 100.27111621757518 l 38.10065570340951 0.49193174403631534 a59.103831327972024,59.103831327972024 0 0,0 -0.02189075691165995,1.0171774556072548 l -38.08654288381285 -1.147699015433685" fill="#4dff2c" stroke="none" /><path d="M 120.9904718944345 100.63252640178507 l 41.10719171060218 1.2387231783526687 a62.12585130358749,62.12585130358749 0 0,0 -0.04141092443112012,1.0686319542609697 l -41.079778653319856 -1.9461323796276446" fill="#30ff33" stroke="none" /><path d="M 120.9764740272857 100.99374915477107 l 40.60857717761487 1.923809463602787 a61.65412135617434,61.65412135617434 0 0,0 -0.059345465496733064,1.05965315247293 l -40.569445361230606 -2.6225343324111403" fill="#31ff2f" stroke="none" /><path d="M 120.89721153311464 102.0752229133903 l 31.883952859417075 3.1662745739290825 a53.04078252195224,53.04078252195224 0 0,0 -0.09804386209930566,0.9077643965951668 l -31.824726695816718 -3.7146352924090404" fill="#91ff24" stroke="none" /><path d="M 120.8583938346157 102.4346265915055 l 40.51369049408857 4.728825669848096 a61.78873508294437,61.78873508294437 0 0,0 -0.1323999916323249,1.055358202823415 l -40.4262889932094 -5.425501626958906" fill="#30ff2f" stroke="none" /><path d="M 120.81339534386255 102.79330883721812 l 39.16478176793792 5.256198194128835 a60.51591768371532,60.51591768371532 0 0,0 -0.14744544556612052,1.0312331028751593 l -39.06850227135519 -5.929576768984404" fill="#3dff2e" stroke="none" /><path d="M 120.70491114924044 103.5080841355445 l 40.32114364293485 6.831710762785852 a61.89580536706117,61.89580536706117 0 0,0 -0.18702424070576995,1.0489312637334904 l -40.19757295988989 -7.524760777252561" fill="#2fff30" stroke="none" /><path d="M 120.64145759157962 103.86396538481128 l 40.31921161871045 7.547530853689858 a62.019556891094716,62.019556891094716 0 0,0 -0.20546212998728913,1.0476469743068806 l -40.183319555747495 -8.240441555064685" fill="#30ff31" stroke="none" /><path d="M 120.5718875245553 104.21870165774334 l 38.26190186604409 7.846414124033203 a60.058153425534805,60.058153425534805 0 0,0 -0.21639799577990346,1.0109393936814297 l -38.121169831539746 -8.503867337130801" fill="#42ff2d" stroke="none" /><path d="M 120.49622156327973 104.57218783832717 l 43.23834678743315 9.645379892119008 a65.30110592494982,65.30110592494982 0 0,0 -0.25417502106735346,1.0949793383798174 l -43.065911200435245 -10.38822788784739" fill="#34ff5b" stroke="none" /><path d="M 120.32669344350535 105.2749913415812 l 39.71789687606993 10.307213158371603 a62.03352258032734,62.03352258032734 0 0,0 -0.2771182897407765,1.0312602466596017 l -39.534590509987375 -10.989364338206752" fill="#30ff32" stroke="none" /><path d="M 120.23288151984713 105.62410040840565 l 38.28098360686848 10.64090131335806 a60.73238586682102,60.73238586682102 0 0,0 -0.2886447280468252,1.0048101649618162 l -38.09214624193556 -11.29826895382446" fill="#3bff2e" stroke="none" /><path d="M 120.13307415673323 105.97154293290107 l 39.657933545963566 11.762687156281022 a62.36559563541423,62.36559563541423 0 0,0 -0.3141243016635813,1.0265763929470404 l -39.44958247179385 -12.443590521780118" fill="#30ff36" stroke="none" /><path d="M 120.02730092923936 106.31721596034902 l 38.727036897683256 12.21567781157627 a61.607956994544274,61.607956994544274 0 0,0 -0.32771839025468585,1.008613494516429 l -38.51102625641232 -12.880490206070494" fill="#32ff2f" stroke="none" /><path d="M 119.79798401119884 107.00284435728193 l 38.56777680606218 13.642002035483342 a61.90938312048178,61.90938312048178 0 0,0 -0.3640146110243824,1.0016118714845297 l -38.32723793403257 -14.303861703974002" fill="#2fff30" stroke="none" /><path d="M 119.67450827220406 107.3425965602758 l 36.377693068231835 13.576284616522445 a59.8284954248205,59.8284954248205 0 0,0 -0.3683888905591905,0.9617471470119275 l -36.13860989807914 -14.200455330367516" fill="#45ff2d" stroke="none" /><path d="M 119.54520255179757 107.68017299344265 l 36.57332751539642 14.371275074775175 a60.29557014248944,60.29557014248944 0 0,0 -0.3878939951481117,0.9627210850026041 l -36.32053090599092 -14.998695527620592" fill="#40ff2d" stroke="none" /><path d="M 119.41010516605496 108.01547362559984 l 38.202282502281335 15.775771703198151 a62.33145728395671,62.33145728395671 0 0,0 -0.41806307615708627,0.9881776181990741 l -37.92506844493194 -16.43102384706339" fill="#30ff35" stroke="none" /><path d="M 118.97047184881838 109.00673069616215 l 50.2887235736666 23.87589480595701 a76.66878902449537,76.66878902449537 0 0,0 -0.5762818412766728,1.1873112820730558 l -49.87028847577522 -24.73799504399534" fill="#43ffe1" stroke="none" /><path d="M 118.81262510543309 109.33194174019688 l 38.90716568652919 19.299773499341146 a64.4309658985948,64.4309658985948 0 0,0 -0.5013997216239953,0.9893092185680582 l -38.56918729511892 -19.966636929611898" fill="#33ff50" stroke="none" /><path d="M 118.64920377521936 109.65438752849418 l 52.02434011679716 26.932149300075864 a79.58218697274597,79.58218697274597 0 0,0 -0.6402481370963343,1.2111081915760695 l -51.55303947147594 -27.823672506738067" fill="#47feff" stroke="none" /><line stroke="#e1ed5e" stroke-width="0.3" x1="174.80103733775053" x2="179.2010983576182" y1="140.37084112569926" y2="142.7455964860345" /><path d="M 175.68104954172406 140.8457921977663 a86.0,86.0 0 0,1 -30.038265399797805,32.042727171017184" fill="none" id="id29" stroke="none" /><text fill="#e1ed5e" style="font-size:6.75px; font-family:Arial;" text-anchor="middle"><textPath startOffset="22.206326154141568" xlink:href="#id29">May</textPath></text><path d="M 117.94076556474637 110.91462005526583 l 44.75823191332587 27.229556838943722 a73.39034347713641,73.39034347713641 0 0,0 -0.6658788352051502,1.0736087027875703 l -44.282888438452765 -27.995961873096565" fill="#3fffbc" stroke="none" /><path d="M 117.75023020441432 111.22182372390056 l 39.47583955613807 24.956910854136076 a67.70320447296149,67.70320447296149 0 0,0 -0.6312361033140472,0.9796924502587746 l -39.04039858944697 -25.6327249043163" fill="#37ff79" stroke="none" /><path d="M 117.55443506779139 111.5257021239791 l 33.67574472684141 22.110458184831096 a61.28558233475782,61.28558233475782 0 0,0 -0.5865815110658045,0.8768597706188298 l -33.29016011036489 -22.686854869655733" fill="#35ff2f" stroke="none" /><path d="M 117.35343817320211 111.8261652097733 l 32.20277857333546 21.94581706639059 a59.96970406039483,59.96970406039483 0 0,0 -0.5886714472745214,0.8480251249901342 l -31.8202462188988 -22.49688345356774" fill="#43ff2d" stroke="none" /><path d="M 116.93607887273984 112.41649034213515 l 37.06387620198901 27.17295215510764 a66.95759184226407,66.95759184226407 0 0,0 -0.6894678497675343,0.923654855989336 l -36.590647085526385 -27.806919890606295" fill="#36ff70" stroke="none" /><path d="M 116.71984013943494 112.70617746262583 l 43.630363026449324 33.15672463071703 a75.79942486976441,75.79942486976441 0 0,0 -0.7983960019039565,1.0320344573249924 l -43.0531602073273 -33.90283708215528" fill="#42ffd7" stroke="none" /><path d="M 116.498646956653 112.99209946851258 l 38.34184446472071 30.192842988922596 a69.80271308759961,69.80271308759961 0 0,0 -0.7514830056704997,0.9375905953683354 l -37.81644354699536 -30.84836141786918" fill="#3aff93" stroke="none" /><path d="M 116.0416608686014 113.55231037782055 l 45.06912711108719 38.07528435303175 a79.99960590647669,79.99960590647669 0 0,0 -0.8977383982498572,1.044272573191331 l -44.40704620326655 -38.84543402538461" fill="#48faff" stroke="none" /><path d="M 115.80600337817218 113.82643327865902 l 41.498861490771425 36.30147519358661 a76.13576521878349,76.13576521878349 0 0,0 -0.8713598759803075,0.9789820578864986 l -40.867842765142775 -37.01043142121397" fill="#42ffdb" stroke="none" /><path d="M 115.56566222782051 114.09645910891815 l 40.70106575879782 36.85939607072001 a75.9107624478134,75.9107624478134 0 0,0 -0.8854578063512072,0.9609895687535783 l -40.06056154445089 -37.554536894274925" fill="#42ffd8" stroke="none" /><path d="M 115.32070863581623 114.36230785411682 l 29.470462976704262 27.62691151800163 a61.394980233746715,61.394980233746715 0 0,0 -0.7294116831684655,0.7647852336526564 l -28.990544742156832 -28.130103868236795" fill="#34ff2f" stroke="none" /><path d="M 115.07121518719521 114.62390073753431 l 29.028687265106242 28.167114319123677 a61.44812743999311,61.44812743999311 0 0,0 -0.7431108588651639,0.7527673767155139 l -28.539535781185542 -28.662622189819857" fill="#34ff2f" stroke="none" /><path d="M 114.55890576462653 115.13401014063108 l 30.253222935237094 31.44828259010274 a64.63773568640008,64.63773568640008 0 0,0 -0.8084769957588473,0.7644654620797081 l -29.70741010508744 -31.964382688928367" fill="#33ff53" stroke="none" /><path d="M 114.29624159901734 115.38237550388516 l 41.16681636420937 44.294398861955386 a81.47065850564661,81.47065850564661 0 0,0 -1.035455021923255,0.9458636121252845 l -40.39826179281925 -44.99645524066725" fill="#4aebff" stroke="none" /><path d="M 114.0293411484842 115.62618273729858 l 30.973434759128395 34.49887962844421 a67.36298476582225,67.36298476582225 0 0,0 -0.8694881977053883,0.7672222408157398 l -30.37500420851642 -35.02692501103224" fill="#37ff75" stroke="none" /><path d="M 113.75828350139079 115.86535959552629 l 38.76859241711685 44.705988188699244 a80.17456495769653,80.17456495769653 0 0,0 -1.050418605727543,0.8951895241459931 l -37.99330833481226 -45.366702103068185" fill="#48f8ff" stroke="none" /><path d="M 113.48314897796784 116.09983520530334 l 27.886799887725044 33.29881493776341 a64.43368144927894,64.43368144927894 0 0,0 -0.8564459628728357,0.7047967209000499 l -27.309483796307518 -33.77390677752064" fill="#33ff51" stroke="none" /><path d="M 112.92097659922987 116.55440617244103 l 28.657471855813597 36.716065951602424 a67.57596152661979,67.57596152661979 0 0,0 -0.9231239050674366,0.7078120463830245 l -28.021219222252668 -37.20391733981282" fill="#37ff78" stroke="none" /><path d="M 112.63410532772338 116.77436683061366 l 28.91627569952121 38.3922884428203 a69.06369536570648,69.06369536570648 0 0,0 -0.9557594224622882,0.7070479717568672 l -28.25113130664036 -38.88434636331694" fill="#39ff8a" stroke="none" /><path d="M 112.34349029814194 116.9893568818739 l 28.4381101249351 39.141700628328884 a69.38180273156074,69.38180273156074 0 0,0 -0.9722461184989494,0.6936717908135047 l -27.760136678587266 -39.62541668098661" fill="#39ff8e" stroke="none" /><path d="M 112.04921762599082 117.19931262002967 l 27.74322008097691 39.60126956539795 a69.35231960984741,69.35231960984741 0 0,0 -0.9836243300584028,0.6765457833796688 l -27.057438866295627 -40.072956138142715" fill="#39ff8d" stroke="none" /><path d="M 111.45004920935366 117.60387380957326 l 27.82015490910204 42.772086602259876 a72.02364561139916,72.02364561139916 0 0,0 -1.0450912143198123,0.6670266597583113 l -27.079781892735298 -43.244627690841995" fill="#3dffad" stroke="none" /><path d="M 111.1453310114006 117.79835938074945 l 27.05569285724839 43.20615908813356 a71.97825712139311,71.97825712139311 0 0,0 -1.055752397429024,0.648529351664762 l -26.30796125988706 -43.6654769066267" fill="#3dffac" stroke="none" /><line stroke="#e1ed5e" stroke-width="0.3" x1="143.8653032363475" x2="146.44561519142675" y1="172.8068346515853" y2="177.08958963109032" /><path d="M 144.38136562736335 173.6633856474863 a86.0,86.0 0 0,1 -40.68145358897372,12.25698825130547" fill="none" id="id30" stroke="none" /><text fill="#e1ed5e" style="font-size:6.75px; font-family:Arial;" text-anchor="middle"><textPath startOffset="21.466115282336833" xlink:href="#id30">June</textPath></text><path d="M 110.8373102113329 117.98757091392108 l 20.739824172463532 34.4235839677564 a61.18859838175347,61.18859838175347 0 0,0 -0.906850368721068,0.5357831823705331 l -20.14420593271408 -34.77548572242068" fill="#36ff2e" stroke="none" /><path d="M 110.5260780823613 118.17145234162733 l 19.52235595228221 33.70196933819444 a59.94797965492185,59.94797965492185 0 0,0 -0.8973676821479788,0.5095487897815034 l -18.93933950321303 -34.03302129377057" fill="#44ff2d" stroke="none" /><path d="M 109.89434966115114 118.52300852407294 l 22.121820579486005 41.413805373253616 a67.95187132846465,67.95187132846465 0 0,0 -1.0364572655645814,0.5422254553478411 l -21.405672411394928 -41.788460247546176" fill="#38ff7c" stroke="none" /><path d="M 109.57404056367764 118.69057910512821 l 26.91016503685839 52.53440958477147 a80.02559760588184,80.02559760588184 0 0,0 -1.231426626271074,0.6174628744097342 l -26.00188450290456 -52.989840300090506" fill="#48faff" stroke="none" /><path d="M 109.2508944713604 118.85261126421891 l 20.934394008700508 42.66268451335884 a68.5221369721302,68.5221369721302 0 0,0 -1.063356971465244,0.510475966400055 l -20.19692436923503 -43.01671475625845" fill="#38ff83" stroke="none" /><path d="M 108.92500713936063 119.00905698771935 l 21.665776607647395 46.145171178817684 a71.97825712139311,71.97825712139311 0 0,0 -1.1260552892028235,0.5169167537487891 l -20.868253322677152 -46.51127500290055" fill="#3dffac" stroke="none" /><path d="M 108.2653958097858 119.30500536409082 l 18.94778802107235 44.25524896840202 a69.14089459229794,69.14089459229794 0 0,0 -1.0981172220194768,0.45901308786408507 l -18.18319933955541 -44.57484709928608" fill="#39ff8b" stroke="none" /><path d="M 107.93186726928326 119.44442032107085 l 20.68865504290412 50.71679730316772 a75.77420904198328,75.77420904198328 0 0,0 -1.2119504665142873,0.48226010243310724 l -19.812583500347966 -51.0654042500069" fill="#42ffd7" stroke="none" /><path d="M 107.59598834532513 119.57807347666477 l 11.80203805022711 30.418841843529687 a53.628117341346574,53.628117341346574 0 0,0 -0.8634887370319807,0.3264975545513378 l -11.276679092434854 -30.617487648187655" fill="#8aff24" stroke="none" /><path d="M 107.2578585660854 119.70592522655815 l 20.727787631615005 56.27834015521317 a80.97410066626436,80.97410066626436 0 0,0 -1.3120905977299295,0.47046900639851036 l -19.755977473255342 -56.626796702651646" fill="#49f0ff" stroke="none" /><path d="M 106.57524785965236 119.94407469862006 l 15.21391002657122 46.14690799565743 a69.59012426261407,69.59012426261407 0 0,0 -1.1408759226708136,0.3652724427650112 l -14.417312758809466 -46.40195328508215" fill="#3aff90" stroke="none" /><path d="M 106.2309692047433 120.05430185196036 l 12.831273681872101 41.297304978733024 a64.24475670882646,64.24475670882646 0 0,0 -1.0588913360915593,0.31903527334630605 l -12.118507371340296 -41.512055621185056" fill="#33ff4e" stroke="none" /><path d="M 105.88484417918355 120.15858648285463 l 13.98454051834369 47.90416889188174 a70.90367492210495,70.90367492210495 0 0,0 -1.174532312963972,0.3319345637297869 l -13.157877037275114 -48.13779224895005" fill="#3bffa0" stroke="none" /><path d="M 105.53697534728816 120.25689768951611 l 13.62266138150492 49.83819514371158 a72.66645525191197,72.66645525191197 0 0,0 -1.2094105046454233,0.3194163064378804 l -12.762760434048 -50.06530279945304" fill="#3effb4" stroke="none" /><path d="M 104.83641907484287 120.43548508189849 l 14.262221569989615 60.262647139965445 a82.92735747977191,82.92735747977191 0 0,0 -1.3919153607483203,0.3167954044189689 l -13.222786059848431 -60.4992192779621" fill="#4cddff" stroke="none" /><path d="M 104.48393922423573 120.51570834832081 l 9.542127934214228 43.65882406759679 a65.68942967277923,65.68942967277923 0 0,0 -1.1067371958125556,0.23192753998671717 l -8.789199276972296 -43.81660758831005" fill="#34ff60" stroke="none" /><path d="M 104.13013068566511 120.58985236759428 l 9.817370334251748 48.94232681833198 a70.91725267552556,70.91725267552556 0 0,0 -1.19894863740062,0.22978135987963588 l -8.973454082279424 -49.10406537656008" fill="#3bffa0" stroke="none" /><path d="M 103.7750983002368 120.6578951692458 l 11.321180364822416 61.95117015998094 a83.97711178709098,83.97711178709098 0 0,0 -1.4242159397990042,0.24761819683604955 l -10.253115453551361 -62.13686693533799" fill="#4dd2ff" stroke="none" /><path d="M 103.41894727170886 120.7198165907248 l 9.361567657012444 56.7338275322418 a78.5010098646535,78.5010098646535 0 0,0 -1.3351307330556306,0.20851996215294855 l -8.383601060348296 -56.88656580174185" fill="#46fff4" stroke="none" /><path d="M 102.70371172650421 120.8252237178851 l 5.774010655473323 44.47406965429572 a65.84731954827029,65.84731954827029 0 0,0 -1.1252760595927134,0.13625525980109285 l -5.007607172829229 -44.566870442822164" fill="#35ff62" stroke="none" /><path d="M 101.98527174616119 120.90594882070398 l 4.641338891621369 48.87572369646818 a70.09560462567273,70.09560462567273 0 0,0 -1.202158586060872,0.10372730122485524 l -3.799335987818955 -48.9483752499717" fill="#3aff96" stroke="none" /><path d="M 101.62511606390274 120.93702456842531 l 3.8236229660273815 49.26127416884736 a70.40944469759481,70.40944469759481 0 0,0 -1.2091556071823415,0.08339045006277383 l -2.9751045980661095 -49.319792963426416" fill="#3bff9a" stroke="none" /><path d="M 101.26447882468166 120.96189622390904 l 3.0787479781282876 51.03794097409436 a72.13071589551596,72.13071589551596 0 0,0 -1.2400023367694641,0.06409395699957349 l -2.1997575729453436 -51.08337473785613" fill="#3dffae" stroke="none" /><path d="M 100.90346689309514 120.98055641714683 l 1.9110562899844734 44.37907422484846 a65.42020221923914,65.42020221923914 0 0,0 -1.125475602435231,0.038763655391414256 l -1.1468603358745901 -44.40539467866597" fill="#34ff5d" stroke="none" /><line stroke="#e1ed5e" stroke-width="0.3" x1="102.19456741930631" x2="102.32365962044197" y1="184.97166512339345" y2="189.96999836594603" /><path d="M 102.22038585953345 185.97133177190398 a86.0,86.0 0 0,1 -42.740103519485714,-10.115201625700543" fill="none" id="id31" stroke="none" /><text fill="#e1ed5e" style="font-size:6.75px; font-family:Arial;" text-anchor="middle"><textPath startOffset="22.20632615414155" xlink:href="#id31">July</textPath></text><path d="M 100.18074693466247 120.99922214144158 l 0.3703543623534593 43.027858484215784 a64.02945233315681,64.02945233315681 0 0,0 -1.1022025940317999,0.0 l 0.37035436235342967 -43.027858484215784" fill="#32ff4b" stroke="none" /><path d="M 99.81925306533755 120.99922214144158 l -0.44424893761324774 51.61294792889325 a72.61485978891366,72.61485978891366 0 0,0 -1.249806544785971,-0.021516553090816706 l 1.3326151722918866 -51.597653898523276" fill="#3effb3" stroke="none" /><path d="M 99.45781275523022 120.99299961872073 l -1.1798126388947798 45.681278040756474 a66.69651104077636,66.69651104077636 0 0,0 -1.147432954920951,-0.03951991100745913 l 1.9659659454903737 -45.65420133132292" fill="#36ff6d" stroke="none" /><path d="M 99.09653310690486 120.98055641714683 l -1.8746723845124609 43.534157175573604 a64.57450214904125,64.57450214904125 0 0,0 -1.1101031310506044,-0.05737965182551042 l 2.623763583976554 -43.4954377169859" fill="#33ff52" stroke="none" /><path d="M 98.37488393609728 120.93702456842531 l -3.8336499755719875 49.390456169965354 a70.5390152588086,70.5390152588086 0 0,0 -1.209763198398858,-0.10438345917591658 l 4.683257491712387 -49.31714845851077" fill="#3bff9b" stroke="none" /><path d="M 98.01472825383883 120.90594882070398 l -4.637268056441889 48.83285567495748 a70.0525437505388,70.0525437505388 0 0,0 -1.1994576789311575,-0.12432869270776345 l 5.47715833197864 -48.745797613793954" fill="#3aff95" stroke="none" /><path d="M 97.65516085044442 120.86867818915974 l -4.721977989855855 42.024818250443225 a63.28927080382764,63.28927080382764 0 0,0 -1.0815611288841949,-0.13096199048278867 l 5.444666541791439 -41.93731073123509" fill="#31ff42" stroke="none" /><path d="M 97.2962882734958 120.8252237178851 l -3.3020817997950425 25.43414356692577 a46.647600339905665,46.647600339905665 0 0,0 -0.7953891414982706,-0.11023368740929189 l 3.739399532480144 -25.373535314023872" fill="#dfff1b" stroke="none" /><path d="M 96.58105272829116 120.7198165907248 l -6.998485990286464 42.41286413844444 a63.98639145802288,63.98639145802288 0 0,0 -1.0851818633127088,-0.18867277687581546 l 7.727516825071223 -42.28611278304762" fill="#32ff4b" stroke="none" /><path d="M 96.22490169976321 120.6578951692458 l -10.696538026704518 58.533035077696645 a80.50237071885121,80.50237071885121 0 0,0 -1.3609975575689273,-0.26083842110956573 l 11.702503198845141 -58.340239458238614" fill="#48f5ff" stroke="none" /><path d="M 95.86986931433489 120.58985236759428 l -8.288236738971625 41.319169738478955 a63.14224313107305,63.14224313107305 0 0,0 -1.063822131632157,-0.2229342710323668 l 8.99825033203317 -41.170379486720044" fill="#31ff40" stroke="none" /><path d="M 95.51606077576429 120.51570834832081 l -7.159867830844344 32.75908813308331 a54.5323957191591,54.5323957191591 0 0,0 -0.9153128903018332,-0.2083222338297674 l 7.72270087053904 -32.63098916567586" fill="#80ff26" stroke="none" /><path d="M 95.16358092515715 120.4354850818985 l -5.699331442566418 24.08157789245042 a45.74681338440129,45.74681338440129 0 0,0 -0.7647270748599717,-0.18795130928328746 l 6.1130118021696 -23.979905324853103" fill="#ebff1a" stroke="none" /><path d="M 94.46302465271185 120.25689768951611 l -15.944025970478373 58.33085440793099 a81.47065850564661,81.47065850564661 0 0,0 -1.3495763241955803,-0.3814037497712084 l 16.94573346277857 -58.04776186482126" fill="#4aebff" stroke="none" /><path d="M 94.11515582081647 120.15858648285463 l -17.65453253755061 60.475759448563906 a84.0,84.0 0 0,0 -1.3845001022390167,-0.4171385235770977 l 18.692907614229874 -60.16290555588108" fill="#4dd2ff" stroke="none" /><path d="M 93.76903079525671 120.05430185196036 l -14.26963236576853 45.92664565919887 a69.09240261579576,69.09240261579576 0 0,0 -1.1327161636667313,-0.3626599456086005 l 15.058069874526202 -45.67421286693056" fill="#39ff8a" stroke="none" /><path d="M 93.42475214034765 119.94407469862007 l -13.835398814132713 41.96560089049656 a65.18744073202872,65.18744073202872 0 0,0 -1.0626492378540073,-0.36050831706540226 l 14.555717784923946 -41.721229586533035" fill="#34ff5a" stroke="none" /><path d="M 92.7421414339146 119.70592522655815 l -15.235121000064964 41.365115138468994 a65.08153425534798,65.08153425534798 0 0,0 -1.0479049909687093,-0.3962280019186349 l 15.944896211793957 -41.096738886443724" fill="#34ff59" stroke="none" /><path d="M 92.40401165467489 119.57807347666478 l -16.519513613623527 42.5777708736654 a66.67013140555918,66.67013140555918 0 0,0 -1.0663377141260542,-0.4243177831531042 l 17.24997240379144 -42.28710624610623" fill="#36ff6d" stroke="none" /><path d="M 92.06813273071674 119.44442032107085 l -9.59425864342164 23.51965702378866 a46.40126109927462,46.40126109927462 0 0,0 -0.7369592805675353,-0.30804903904639824 l 9.997689383486637 -23.351022941722288" fill="#e2ff1b" stroke="none" /><path d="M 91.7346041902142 119.30500536409082 l -23.221671211352653 54.23750992875129 a79.99960590647669,79.99960590647669 0 0,0 -1.261248359579177,-0.5528942161668702 l 24.15184024558957 -53.82975115928996" fill="#48faff" stroke="none" /><path d="M 91.40352486487194 119.15986991738527 l -10.745937993888688 23.950604272890555 a47.25084052759271,47.25084052759271 0 0,0 -0.739210159057337,-0.33933512805446225 l 11.156616148713445 -23.76208207450202" fill="#d8ff1c" stroke="none" /><path d="M 91.07499286063937 119.00905698771935 l -21.65044343241199 46.11251359128845 a71.9421790908755,71.9421790908755 0 0,0 -1.1164307048654376,-0.5359545837176225 l 22.440986805277667 -45.73300473107126" fill="#3dffac" stroke="none" /><path d="M 90.7491055286396 118.85261126421891 l -22.858307541353152 46.5834722868396 a72.88951834382196,72.88951834382196 0 0,0 -1.1216172868424674,-0.5624021920157383 l 23.65677873587838 -46.18310225391456" fill="#3effb6" stroke="none" /><path d="M 90.42595943632237 118.69057910512821 l -22.890079653804538 44.686341325441354 a71.20781659872658,71.20781659872658 0 0,0 -1.086119593704616,-0.5682064382441264 l 23.65589015003565 -44.28570546825251" fill="#3cffa3" stroke="none" /><path d="M 90.10565033884886 118.52300852407294 l -20.12568406334481 37.67687925178536 a63.715224325422724,63.715224325422724 0 0,0 -0.9629408922648314,-0.5250721521303795 l 20.771247767478282 -37.32486644789521" fill="#32ff47" stroke="none" /><line stroke="#e1ed5e" stroke-width="0.3" x1="58.666819895761336" x2="56.23545636021788" y1="174.27360380694188" y2="178.64263932499728" /><path d="M 58.180547188652646 175.14741091055294 a86.0,86.0 0 0,1 -31.652253787137756,-30.449443065178592" fill="none" id="id32" stroke="none" /><text fill="#e1ed5e" style="font-size:6.75px; font-family:Arial;" text-anchor="middle"><textPath startOffset="22.20632615414155" xlink:href="#id32">August</textPath></text><path d="M 89.4739219176387 118.17145234162733 l -21.848751563879098 37.718088794380414 a64.58924370989791,64.58924370989791 0 0,0 -0.9572498965951527,-0.565560111802047 l 22.49476933150263 -37.33641011028462" fill="#33ff52" stroke="none" /><path d="M 89.1626897886671 117.98757091392108 l -23.020091724534637 38.208330689567525 a65.60718728063154,65.60718728063154 0 0,0 -0.9623037293509993,-0.5911255472593344 l 23.674374653817946 -37.80641667547982" fill="#34ff5f" stroke="none" /><path d="M 88.8546689885994 117.79835938074946 l -21.742516363445432 34.72136625485445 a61.967185556472366,61.967185556472366 0 0,0 -0.8991680530948652,-0.5738915941491352 l 22.336966218587218 -34.341960231881515" fill="#2fff31" stroke="none" /><path d="M 88.54995079064634 117.60387380957326 l -24.25860990386003 37.29639058619572 a65.49158240865034,65.49158240865034 0 0,0 -0.9397271809182468,-0.6227999337556416 l 24.897011783518238 -36.87329263134876" fill="#34ff5e" stroke="none" /><path d="M 87.95078237400918 117.19931262002967 l -27.0721208468294 38.64332807197952 a68.18269313661499,68.18269313661499 0 0,0 -0.9554430144652881,-0.6816832222355754 l 27.733291189143575 -38.171600587899725" fill="#38ff7f" stroke="none" /><path d="M 87.65650970185807 116.9893568818739 l -34.69437578048725 47.75271156629563 a80.02559760588184,80.02559760588184 0 0,0 -1.1074591150240678,-0.8192717776866353 l 35.51121986592988 -47.14842983986922" fill="#48faff" stroke="none" /><path d="M 87.36589467227662 116.77436683061367 l -33.669527385584104 44.70320523130806 a76.96439611325263,76.96439611325263 0 0,0 -1.0513749606542728,-0.806149486901443 l 34.43403107473186 -44.11701640257925" fill="#44ffe4" stroke="none" /><path d="M 87.07902340077011 116.55440617244103 l -22.88592514644442 29.321537547626548 a58.19567359203931,58.19567359203931 0 0,0 -0.7843737793568114,-0.6231539686893742 l 23.387256418518593 -28.923249664932044" fill="#57ff2a" stroke="none" /><path d="M 86.51685102203217 116.09983520530335 l -27.88032391129502 33.29108216306167 a64.42359511816647,64.42359511816647 0 0,0 -0.8440550066680665,-0.7193219880648462 l 28.44924439454014 -32.80623578477387" fill="#33ff50" stroke="none" /><path d="M 86.24171649860922 115.8653595955263 l -28.59792718339802 32.97768928845095 a64.65053756819665,64.65053756819665 0 0,0 -0.83447726650284,-0.7363291646806612 l 29.161346802807447 -32.48053698199799" fill="#33ff53" stroke="none" /><path d="M 85.97065885151581 115.62618273729859 l -26.227329675589324 29.212565428734578 a60.25871624034779,60.25871624034779 0 0,0 -0.7658608815760851,-0.6995957569335123 l 26.726290106632263 -28.75677690521449" fill="#40ff2d" stroke="none" /><path d="M 85.70375840098266 115.38237550388516 l -40.28447034057022 43.34501802182535 a80.17456495769653,80.17456495769653 0 0,0 -1.0028088194139335,-0.9482183309264414 l 41.02461499437498 -42.645165054152976" fill="#48f8ff" stroke="none" /><path d="M 85.18274418774928 114.88116024355367 l -41.33463097220376 41.5129005599645 a79.58218697274597,79.58218697274597 0 0,0 -0.9624115457291548,-0.9749178146927149 l 42.04308314298845 -40.79524225129112" fill="#47feff" stroke="none" /><path d="M 84.9287848128048 114.62390073753433 l -34.89094247111089 33.85537748608737 a69.61650389783125,69.61650389783125 0 0,0 -0.8270886494481031,-0.8671991422894902 l 35.468537671937945 -33.24977122721538" fill="#3aff90" stroke="none" /><path d="M 84.67929136418377 114.36230785411682 l -34.88890963551844 32.706402346713816 a68.82201135481964,68.82201135481964 0 0,0 -0.8027713757296094,-0.8712497790822117 l 35.44672741924378 -32.101001312830256" fill="#39ff87" stroke="none" /><path d="M 84.43433777217949 114.09645910891817 l -32.21614178771697 29.175342411451624 a64.46355250680426,64.46355250680426 0 0,0 -0.7377735412019086,-0.8288963946239628 l 32.713574178567214 -28.616471847086796" fill="#33ff51" stroke="none" /><path d="M 83.95833913139862 113.55231037782056 l -41.15210830492255 34.766109882151 a74.87187034323082,74.87187034323082 0 0,0 -0.8232483027478333,-0.9916556140384615 l 41.74445260756392 -34.05259301099878" fill="#41ffcd" stroke="none" /><path d="M 83.72743513129214 113.27417163493432 l -36.82414555136231 30.038904886995926 a68.5221369721302,68.5221369721302 0 0,0 -0.7376965617677145,-0.9203898868369523 l 37.33576002518488 -29.400587166580713" fill="#38ff83" stroke="none" /><path d="M 83.50135304334701 112.99209946851258 l -46.023562796759535 36.241923796649154 a79.58024729368589,79.58024729368589 0 0,0 -0.8382194374030275,-1.0835116159606697 l 46.64058905138063 -35.444334186575226" fill="#47ffff" stroke="none" /><path d="M 83.28015986056508 112.70617746262583 l -34.142560539907066 25.946506044953562 a63.882812596214244,63.882812596214244 0 0,0 -0.6578065940838397,-0.8812394299925626 l 34.58412840068599 -25.35495373545169" fill="#32ff4a" stroke="none" /><path d="M 82.85270091963577 112.12312394758628 l -45.853223778213845 32.41818508293549 a77.1556484685772,77.1556484685772 0 0,0 -0.7573712086966571,-1.0910497135414876 l 46.40445589407264 -31.624094107206986" fill="#44ffe6" stroke="none" /><path d="M 82.6465618267979 111.8261652097733 l -49.970182555740756 34.054095134836174 a81.47065850564661,81.47065850564661 0 0,0 -0.7797785409418017,-1.165663116966208 l 50.548964202093295 -33.188895103664144" fill="#4aebff" stroke="none" /><path d="M 82.44556493220864 111.52570212397912 l -49.3410009766683 32.395783604535666 a80.02559760588184,80.02559760588184 0 0,0 -0.7461248960274859,-1.158002407895493 l 49.89133073607283 -31.541659596718727" fill="#48faff" stroke="none" /><path d="M 82.24976979558568 111.22182372390057 l -50.479915507133875 31.91376713962692 a80.72194238845306,80.72194238845306 0 0,0 -0.7323992561755432,-1.1808608019549793 l 51.02177940297737 -31.040110006306676" fill="#49f3ff" stroke="none" /><line stroke="#e1ed5e" stroke-width="0.3" x1="26.63291911575756" x2="22.317208475507996" y1="142.92168965132927" y2="145.44649492493687" /><path d="M 25.769776987707644 143.4266507060508 a86.0,86.0 0 0,1 -11.730757126820373,-40.83630448921669" fill="none" id="id33" stroke="none" /><text fill="#e1ed5e" style="font-size:6.75px; font-family:Arial;" text-anchor="middle"><textPath startOffset="21.46611528233685" xlink:href="#id33">September</textPath></text><path d="M 81.87401531095188 110.60418214915194 l -40.93498234376329 23.948051181344116 a68.42554095493787,68.42554095493787 0 0,0 -0.586009378711397,-1.0217567466608641 l 41.34114371862706 -23.239874588824946" fill="#38ff82" stroke="none" /><path d="M 81.69416730710424 110.29060199501025 l -37.12556513361422 20.87009211977118 a63.589533122329094,63.589533122329094 0 0,0 -0.5281673661189693,-0.9587771860879788 l 37.4793089091847 -20.22794441528538" fill="#32ff46" stroke="none" /><path d="M 81.51974371655577 109.97397251340807 l -36.35033796996101 19.618627913200864 a62.30662939198759,62.30662939198759 0 0,0 -0.5012642265113283,-0.9482030102034611 l 36.68265470469722 -18.990009887911278" fill="#30ff35" stroke="none" /><path d="M 81.18737489456691 109.33194174019688 l -36.84979908181428 18.27922345989549 a62.13438589145186,62.13438589145186 0 0,0 -0.46703383167666807,-0.9622280241054734 l 37.15898617010566 -17.642206479824733" fill="#30ff33" stroke="none" /><path d="M 81.02952815118164 109.00673069616217 l -33.171283134950606 15.748939532110553 a57.720064286505995,57.720064286505995 0 0,0 -0.4184028048592005,-0.901202418805779 l 33.43746055664963 -15.175617046025947" fill="#5cff2a" stroke="none" /><path d="M 80.87730276802145 108.67885076344099 l -44.922524394986674 20.388122052633054 a70.33263340681536,70.33263340681536 0 0,0 -0.4908511647664479,-1.1067397956253109 l 45.2668166444844 -19.611833920515046" fill="#3bff99" stroke="none" /><path d="M 80.58989483394504 108.01547362559985 l -34.45061197027169 14.22650569232394 a58.27248488281875,58.27248488281875 0 0,0 -0.37487906516165254,-0.9304190961228427 l 34.690393649690726 -13.631387228358292" fill="#56ff2b" stroke="none" /><path d="M 80.45479744820244 107.68017299344265 l -33.92494402451411 13.330608276411255 a57.45006096134189,57.45006096134189 0 0,0 -0.3537438819049111,-0.9235136506927352 l 34.14938218601253 -12.744671058885361" fill="#5fff29" stroke="none" /><path d="M 80.32549172779594 107.34259656027581 l -55.29998135089097 20.638149997579625 a80.02559760588184,80.02559760588184 0 0,0 -0.4705342763278479,-1.2947082420238265 l 55.647039888224036 -19.683193958549683" fill="#48faff" stroke="none" /><path d="M 80.20201598880116 107.00284435728193 l -40.19345025517692 14.217027155893422 a63.633757804899076,63.633757804899076 0 0,0 -0.35637682759019196,-1.0357978772723337 l 40.43221791371034 -13.523056575531792" fill="#32ff46" stroke="none" /><path d="M 79.97269907076064 106.31721596034903 l -40.12440230137794 12.656449089835345 a63.073190556533945,63.073190556533945 0 0,0 -0.31768833016668835,-1.0382238443085086 l 40.33631740405076 -11.96389827297479" fill="#31ff3f" stroke="none" /><path d="M 79.86692584326677 105.97154293290107 l -46.311599785645534 13.736188733940848 a69.30576731240532,69.30576731240532 0 0,0 -0.32939170876363894,-1.1466557503387218 l 46.541184131295275 -12.93697550809753" fill="#39ff8d" stroke="none" /><path d="M 79.76711848015287 105.62410040840567 l -58.26169852247064 16.194907390388906 a81.47065850564661,81.47065850564661 0 0,0 -0.36394853314843084,-1.3543878840228871 l 58.53183513196085 -15.18962857319048" fill="#4aebff" stroke="none" /><path d="M 79.67330655649465 105.27499134158121 l -51.60690599825616 13.392536423260548 a74.31634626042194,74.31634626042194 0 0,0 -0.3106730649807516,-1.2409844624397008 l 51.82979037753197 -12.502224121423454" fill="#40ffc7" stroke="none" /><path d="M 79.58551787078972 104.9243191809786 l -41.011364371534555 9.892636361511387 a63.18763162107908,63.18763162107908 0 0,0 -0.24594863089978863,-1.059540264842584 l 41.1755735683649 -9.18522743932023" fill="#31ff41" stroke="none" /><path d="M 79.50377843672027 104.57218783832718 l -57.584237847873034 12.845584790080428 a79.99960590647669,79.99960590647669 0 0,0 -0.28824986107521267,-1.3466073876234548 l 57.79682174767269 -11.85246358304081" fill="#48faff" stroke="none" /><path d="M 79.35854240842038 103.8639653848113 l -58.8212523813792 11.011009376857915 a80.8429783618025,80.8429783618025 0 0,0 -0.24427498042630258,-1.3700238158974307 l 59.00207380414469 -9.99686681022727" fill="#49f1ff" stroke="none" /><path d="M 79.29508885075956 103.50808413554451 l -58.754606270427054 9.95493777595904 a80.59198389142723,80.59198389142723 0 0,0 -0.21997100615236784,-1.3697596652895392 l 58.91725903094071 -8.942098880976287" fill="#48f4ff" stroke="none" /><path d="M 79.23777060512086 103.15116336523772 l -41.90787438573388 6.360519189325604 a63.38780650008005,63.38780650008005 0 0,0 -0.1544427273120376,-1.0801720751087545 l 42.01115116406251 -5.638201642236449" fill="#31ff43" stroke="none" /><path d="M 79.18660465613746 102.79330883721812 l -58.501099922807875 7.851272543551937 a80.02559760588184,80.02559760588184 0 0,0 -0.17147767208970127,-1.3668457649414227 l 58.627579104144424 -6.843109024323105" fill="#48faff" stroke="none" /><path d="M 79.10278846688536 102.07522291339032 l -47.862409784388106 4.753034600680762 a69.09783371716401,69.09783371716401 0 0,0 -0.10734974863819009,-1.1845955309121643 l 47.937134129303374 -3.9284576812200305" fill="#39ff8a" stroke="none" /><path d="M 79.07016306316243 101.71520430193888 l -53.04193782904845 4.346797360252391 a74.21975024322961,74.21975024322961 0 0,0 -0.0933876769761743,-1.2742006554850172 l 53.10890206468896 -3.4331235682706134" fill="#40ffc6" stroke="none" /><path d="M 79.04373962182676 101.35467743843564 l -47.32482554323635 3.0592229856094915 a68.42360127587779,68.42360127587779 0 0,0 -0.06586146034295412,-1.1760006176500444 l 47.37047335446684 -2.2441506516240097" fill="#38ff82" stroke="none" /><path d="M 79.0235259727143 100.99374915477108 l -47.7292994782356 2.2611498458995185 a68.78282983780589,68.78282983780589 0 0,0 -0.045848234008955435,-1.1831391977228596 l 47.76114984509576 -1.4392334011626622" fill="#39ff86" stroke="none" /><path d="M 79.0095281055655 100.63252640178507 l -49.30249504233422 1.4856802622156742 a70.32487469057502,70.32487469057502 0 0,0 -0.02604678414419039,-1.2102917103074677 l 49.320763889163416 -0.6367987361180775" fill="#3bff99" stroke="none" /><line stroke="#e1ed5e" stroke-width="0.3" x1="15.007084014347285" x2="10.007500721073583" y1="101.09737516637583" y2="101.16192664675087" /><path d="M 14.007167355692545 101.11028546245083 a86.0,86.0 0 0,1 10.666146001902534,-42.60595125391555" fill="none" id="id34" stroke="none" /><text fill="#e1ed5e" style="font-size:6.75px; font-family:Arial;" text-anchor="middle"><textPath startOffset="22.20632615414155" xlink:href="#id34">October</textPath></text><path d="M 79.00175016825051 100.2711162175752 l -60.465618799617864 0.7806941051587033 a81.47065850564661,81.47065850564661 0 0,0 -0.00603543448872423,-1.4024224216331602 l 60.47009853139609 0.26023779467813235" fill="#4aebff" stroke="none" /><path d="M 79.00019446554 99.90962569577889 l -38.74279077439106 -0.16673262778907277 a59.74314954617668,59.74314954617668 0 0,0 0.013277183509393426,-1.0283324947720875 l 38.73418058376395 0.8336013806216322" fill="#46ff2d" stroke="none" /><path d="M 79.00486145842228 99.54816195383935 l -59.011933296900324 -1.2700005093193472 a80.02559760588184,80.02559760588184 0 0,0 0.04149253133821145,-1.376935113579048 l 58.981329071106465 2.2856057703233894" fill="#48faff" stroke="none" /><path d="M 79.03285615573316 98.82574320788736 l -41.60880233999865 -2.3302849030043635 a62.67400460596806,62.67400460596806 0 0,0 0.0695962260379934,-1.0766228127889508 l 41.56252552295624 3.046166780046326" fill="#30ff3a" stroke="none" /><path d="M 79.05617556472873 98.46500227214037 l -58.98261127274543 -4.322905521229345 a80.140814542051,80.140814542051 0 0,0 0.11267613888000051,-1.374934292530165 l 58.89946065004593 5.337553730967287" fill="#48f9ff" stroke="none" /><path d="M 79.08570108090925 98.10471618934814 l -47.46574048948537 -4.30141358590828 a68.6602421212084,68.6602421212084 0 0,0 0.11679719999636555,-1.1761318647027148 l 47.38466616380678 5.117820981315425" fill="#38ff85" stroke="none" /><path d="M 79.16333360222342 97.38593545837743 l -52.975182323553206 -6.646002918814673 a74.39044200051725,74.39044200051725 0 0,0 0.17033286110671558,-1.2691776616422914 l 52.85293346338865 7.556898922521624" fill="#40ffc7" stroke="none" /><path d="M 79.21141760316559 97.0276538004421 l -47.41736907383715 -6.779723314905595 a68.89959851722311,68.89959851722311 0 0,0 0.17797129352178787,-1.1726084602801923 l 47.29364188687606 7.594930887577879" fill="#39ff88" stroke="none" /><path d="M 79.26566170972629 96.67025291283419 l -58.4259737148884 -9.382682633437815 a80.17456495769653,80.17456495769653 0 0,0 0.23055203482005965,-1.3607311603104215 l 58.25580981854812 10.386999582064064" fill="#48f8ff" stroke="none" /><path d="M 79.32604984820605 96.31383870115002 l -47.41369161156383 -8.453852010424287 a69.16145519033486,69.16145519033486 0 0,0 0.21905829168217464,-1.1702181535102816 l 47.26114759597179 9.268748241397141" fill="#39ff8b" stroke="none" /><path d="M 79.46518482838121 95.60439243477599 l -40.309301745428854 -8.628461966679422 a62.222447320779814,62.222447320779814 0 0,0 0.23320265993406664,-1.0454017980380366 l 40.15480469849275 9.321041934267418" fill="#30ff34" stroke="none" /><path d="M 79.54389044137918 95.25157060432595 l -46.38769681033943 -10.7678687631492 a68.62106060419464,68.62106060419464 0 0,0 0.276991197645262,-1.148307338833788 l 46.19547281243335 11.564761333642386" fill="#38ff84" stroke="none" /><path d="M 79.62865764111835 94.90015583598534 l -53.26694957198232 -13.335063400527432 a75.9107624478134,75.9107624478134 0 0,0 0.32823693718015157,-1.2648308152286185 l 53.02951630293186 14.249990641304914" fill="#42ffd8" stroke="none" /><path d="M 79.71946130924805 94.55025226153421 l -45.46955269055948 -12.218491615186961 a68.0826056971145,68.0826056971145 0 0,0 0.3138712821807019,-1.1291619999090516 l 45.25249463781242 12.999364918514955" fill="#38ff7e" stroke="none" /><path d="M 79.91906864156998 93.8553929516997 l -46.092982272140624 -14.104090029055278 a69.20257638640871,69.20257638640871 0 0,0 0.3583524138635207,-1.1360750805751305 l 45.843374374508905 14.895415276056823" fill="#39ff8b" stroke="none" /><path d="M 80.02781315780177 93.51064311812611 l -45.28847525609612 -14.715117623062236 a68.61912092513455,68.61912092513455 0 0,0 0.37466924306085375,-1.1202133479505634 l 45.02846871926349 15.492504073935121" fill="#38ff84" stroke="none" /><path d="M 80.14247586403 93.16781622104843 l -46.3380543268217 -15.943080363498854 a70.00405177403663,70.00405177403663 0 0,0 0.4018463224852715,-1.1360736668736233 l 46.05675492352662 16.73835165679909" fill="#3aff95" stroke="none" /><path d="M 80.38941819471856 92.48833698450439 l -47.64777982219202 -18.251068174042967 a72.02364561139916,72.02364561139916 0 0,0 0.45342811956486667,-1.1539251065233396 l 47.32655815274546 19.068542285462073" fill="#3dffad" stroke="none" /><path d="M 80.52162464483688 92.15188598940014 l -54.748702177627834 -22.059029502607164 a80.02559760588184,80.02559760588184 0 0,0 0.525799855408731,-1.273266055942654 l 54.360880635332904 22.99817012900313" fill="#48faff" stroke="none" /><path d="M 80.65960295795068 91.81776055985345 l -53.73493002724038 -22.733352517348987 a79.34593406322739,79.34593406322739 0 0,0 0.5429879933855175,-1.253291152492753 l 53.33565132401218 23.654942814428342" fill="#47fffd" stroke="none" /><path d="M 80.803312248108 91.48605970444005 l -44.022187911385046 -19.524320257827437 a69.15757583221468,69.15757583221468 0 0,0 0.49199912351258,-1.084054851704789 l 43.679586470909115 20.2791971183743" fill="#39ff8b" stroke="none" /><path d="M 81.10775173730289 90.83032412892265 l -54.66162437770179 -26.530954450762025 a81.76005862141159,81.76005862141159 0 0,0 0.6254254646605605,-1.260819572776522 l 54.19683890008782 27.46793361203751" fill="#4ae8ff" stroke="none" /><line stroke="#e1ed5e" stroke-width="0.3" x1="26.266209847984243" x2="21.928928074336255" y1="57.711370442889674" y2="55.22380399835377" /><path d="M 25.398753493254645 57.213857153982495 a86.0,86.0 0 0,1 29.58750427330803,-30.492523968695096" fill="none" id="id35" stroke="none" /><text fill="#e1ed5e" style="font-size:6.75px; font-family:Arial;" text-anchor="middle"><textPath startOffset="21.46611528233685" xlink:href="#id35">November</textPath></text><path d="M 82.95767976084542 87.72973835380427 l -31.93365070046737 -22.991837021858125 a60.349493220359854,60.349493220359854 0 0,0 0.6142353817640909,-0.8378163704346213 l 31.533152706189647 23.538115835964245" fill="#3fff2d" stroke="none" /><path d="M 83.17141714833178 87.43820079747576 l -47.30081712761008 -35.30798594924204 a80.02559760588184,80.02559760588184 0 0,0 0.8335011235404911,-1.0967897766757937 l 46.68604006384548 36.116960501798864" fill="#48faff" stroke="none" /><path d="M 83.39014120810768 87.1503855733568 l -38.686514911502016 -29.928418197392126 a69.91172305077649,69.91172305077649 0 0,0 0.7445462656643131,-0.9454981475365982 l 38.165614565243736 30.589908738881775" fill="#3aff94" stroke="none" /><path d="M 83.6137871275137 86.86637796730984 l -34.35153528729707 -27.532907342093093 a65.02373181935738,65.02373181935738 0 0,0 0.7075247986449246,-0.8673417444647933 l 33.87251199657575 28.120133256165968" fill="#34ff58" stroke="none" /><path d="M 84.07557802195018 86.31012108654704 l -33.2228325566762 -28.56094591626234 a64.81191886599589,64.81191886599589 0 0,0 0.7345601917733184,-0.839729280765451 l 32.72628050132504 29.128590753230736" fill="#33ff55" stroke="none" /><path d="M 84.31358615837235 86.03803664274999 l -29.03567778416775 -25.843706112078696 a59.87116836414242,59.87116836414242 0 0,0 0.6918152260622201,-0.7639196517184331 l 28.586518917489485 26.339678551066687" fill="#44ff2d" stroke="none" /><path d="M 84.5562425177563 85.77008943001954 l -40.300429897860745 -37.13290072300528 a75.79942486976441,75.79942486976441 0 0,0 0.8923854668405276,-0.9519345962481617 l 39.65527710904976 37.82110473613149" fill="#42ffd7" stroke="none" /><path d="M 84.80347519578584 85.50635884689758 l -29.655765781457518 -28.28410000934591 a61.98115124570499,61.98115124570499 0 0,0 0.7429938450174252,-0.7657204682932824 l 29.164507672736974 28.790384673189315" fill="#30ff31" stroke="none" /><path d="M 85.05521093208273 85.24692304244772 l -27.654918146572157 -27.300160197446466 a59.859918225593916,59.859918225593916 0 0,0 0.7301889549671109,-0.7270532915411965 l 27.18089339143773 27.772149339637775" fill="#44ff2d" stroke="none" /><path d="M 85.57189188830299 84.74124197986013 l -22.055553878303826 -23.325328381505447 a53.10168844443897,53.10168844443897 0 0,0 0.6695670693937729,-0.6222896189461579 l 21.650778925115194 23.701522586526252" fill="#90ff24" stroke="none" /><path d="M 85.83668400450813 84.49514656593479 l -26.220859353936795 -28.704477209110596 a59.877763272946716,59.877763272946716 0 0,0 0.7669743051310549,-0.6885971039569098 l 25.72287406120977 29.151573321836786" fill="#44ff2d" stroke="none" /><path d="M 86.10567301691215 84.25364557470407 l -27.01008295208624 -30.610359158660994 a61.82326137021393,61.82326137021393 0 0,0 0.8040150508612759,-0.6972339292110201 l 26.47917410257819 31.070758081291693" fill="#30ff2f" stroke="none" /><path d="M 86.37877921826538 84.01681056812374 l -39.22305668201385 -46.02447571266901 a81.47065850564661,81.47065850564661 0 0,0 1.0751894744675288,-0.9004402640725968 l 38.42500967058721 46.69281713413542" fill="#4aebff" stroke="none" /><path d="M 86.93701828274178 83.55741782278169 l -24.1900604000625 -30.448412514764257 a59.88784960405916,59.88784960405916 0 0,0 0.8126708323173972,-0.6343024749948705 l 23.662357012585677 30.860293378982348" fill="#44ff2d" stroke="none" /><path d="M 87.22198572758235 83.33499621200491 l -27.964131642209306 -36.47064010183157 a66.95759184226407,66.95759184226407 0 0,0 0.9206791514061715,-0.6934364491585988 l 27.332206337044745 36.94659314049602" fill="#36ff70" stroke="none" /><path d="M 88.39885842347998 82.49532879139004 l -32.21156634042166 -48.603223586600414 a79.30830428946169,79.30830428946169 0 0,0 1.144430063278112,-0.7443691475493268 l 31.370169251359265 49.15049165830928" fill="#47fffd" stroke="none" /><path d="M 88.70189139769569 82.29822771554957 l -31.369960539886176 -49.1501646510995 a79.30791635364967,79.30791635364967 0 0,0 1.1570679350486903,-0.7245558347778768 l 30.519273452465246 49.682864827200305" fill="#47fffd" stroke="none" /><path d="M 89.00827224532344 82.1063720568725 l -20.345776198326167 -33.12124878203011 a59.87116836414242,59.87116836414242 0 0,0 0.88278023168611,-0.5318652120954581 l 19.77263390042241 33.466560603584185" fill="#44ff2d" stroke="none" /><line stroke="#e1ed5e" stroke-width="0.3" x1="56.762969772571076" x2="54.21961505331055" y1="26.818313649435495" y2="22.513508569990535" /><path d="M 56.25429882871897 25.957352633546506 a86.0,86.0 0 0,1 42.265352541879196,-11.944610805530505" fill="none" id="id36" stroke="none" /><text fill="#e1ed5e" style="font-size:6.75px; font-family:Arial;" text-anchor="middle"><textPath startOffset="22.20632615414155" xlink:href="#id36">December</textPath></text><path d="M 89.94658935756843 81.56283822128135 l -18.62045821681562 -34.14845098322434 a59.8952203844875,59.8952203844875 0 0,0 0.9094232242320315,-0.48578239106401366 l 18.02988994605528 34.46391210079011" fill="#44ff2d" stroke="none" /><path d="M 90.26544431104013 81.39251694778311 l -24.376370925650573 -46.59513216283838 a73.5862510622052,73.5862510622052 0 0,0 1.127409739853558,-0.5775030575848582 l 23.57070069820825 47.007827745735746" fill="#3fffbe" stroke="none" /><path d="M 90.58718382345135 81.22770947309562 l -21.300816173115585 -42.4809219857225 a68.5221369721302,68.5221369721302 0 0,0 1.0589239187287363,-0.519609368064102 l 20.566420987376425 42.84128651392143" fill="#38ff83" stroke="none" /><path d="M 90.91171255644093 81.06846463323043 l -20.184641058190355 -42.04601234630791 a67.63997093560266,67.63997093560266 0 0,0 1.0539653465328762,-0.494850862329557 l 19.45789750035787 42.38722819127748" fill="#37ff78" stroke="none" /><path d="M 91.56875222667455 80.76684994638697 l -18.75996499590211 -42.79475962125607 a67.72609268587051,67.72609268587051 0 0,0 1.0717371724244655,-0.458861925551512 l 18.020544065687336 43.11134107477037" fill="#37ff7a" stroke="none" /><path d="M 91.90106846888425 80.62456947434976 l -14.998817440963911 -35.88233141344651 a59.89095309055531,59.89095309055531 0 0,0 0.954593717387357,-0.3894027457431135 l 14.378939853988175 36.1351950453732" fill="#44ff2d" stroke="none" /><path d="M 92.23578459929587 80.48803036053334 l -15.142271071661064 -38.053495192319126 a61.95554748211185,61.95554748211185 0 0,0 0.9942886915777908,-0.38576856513054747 l 14.484999215083597 38.30850646134022" fill="#2fff31" stroke="none" /><path d="M 92.57280143429618 80.3572730644239 l -16.55444162139114 -43.78156494178877 a67.80678333477013,67.80678333477013 0 0,0 1.0952980637935248,-0.40340752049575707 l 15.798361231825043 44.06003573009085" fill="#37ff7a" stroke="none" /><path d="M 93.59665428221793 80.00007090966166 l -13.353032882291261 -41.70627708654824 a64.79174620377098,64.79174620377098 0 0,0 1.0650980246264694,-0.3309311408829587 l 12.633149484954062 41.92994836231372" fill="#33ff55" stroke="none" /><path d="M 93.94186890950719 79.89281104454417 l -11.764371452179725 -39.04643795218792 a61.780200495079995,61.780200495079995 0 0,0 1.020873043942909,-0.29802083570902066 l 11.090508190513395 39.24315711681564" fill="#30ff2f" stroke="none" /><path d="M 94.28887869178378 79.79150937346287 l -15.899725429279792 -56.26030948421058 a79.46386655008067,79.46386655008067 0 0,0 1.3194865712598838,-0.3606655238193228 l 14.928940968796185 56.5256615488562" fill="#47fffe" stroke="none" /><path d="M 94.63758080256005 79.69619591428918 l -12.05043550002422 -45.62673534676163 a68.19122772447938,68.19122772447938 0 0,0 1.1374657591210553,-0.2899653487315599 l 11.263260852218165 45.82740369166205" fill="#38ff7f" stroke="none" /><path d="M 99.27714615592234 79.0124445844662 l -0.9850785368836276 -28.6010658321641 a49.618024852522815,49.618024852522815 0 0,0 0.8538396474257279,-0.022052159020674308 l 0.4926122542630207 28.613784783327134" fill="#baff1f" stroke="none" /><path d="M 99.63851952072746 79.00311137660856 l -0.40323154363118485 -23.422033267469285 a44.42550400867006,44.42550400867006 0 0,0 0.7647120229037148,-0.006582117809334014 l 5.7375937005262565e-15 23.42550400867006" fill="#fcff18" stroke="none" /></svg>