<?xml version="1.0" encoding="utf-8" ?>
<svg baseProfile="full" height="200mm" version="1.1" viewBox="0,0,200,200" width="200mm" xmlns="http://www.w3.org/2000/svg" xmlns:ev="http://www.w3.org/2001/xml-events" xmlns:xlink="http://www.w3.org/1999/xlink"><defs /><rect fill="#1a1a1a" height="200" width="200" x="0" y="0" /><text alignment-baseline="middle" fill="#e1ed5e" style="dominant-baseline: central; font-size:9.0px; font-family:Arial;" text-anchor="middle" x="100.0" y="100.0">2021</text><line stroke="#e1ed5e" stroke-width="0.3" x1="100.0" x2="100.0" y1="15.0" y2="10.0" /><path d="M 100.0 14.0 a86.0,86.0 0 0,1 42.46469731375804,11.215312516191453" fill="none" id="id13" stroke="none" /><text fill="#e1ed5e" style="font-size:6.75px; font-family:Arial;" text-anchor="middle"><textPath startOffset="22.20632615414155" xlink:href="#id13">January</textPath></text><path d="M 101.80526077348638 79.07773832637324 l 2.1608690309994443 -25.0436213831286 a46.13667294911219,46.13667294911219 0 0,0 0.790639491144796,0.07508074647224838 l -2.5916336492344847 25.002715092141173" fill="#edff1a" stroke="none" /><path d="M 102.52436894288641 79.15227682838746 l 3.0108627413428803 -24.86547503926544 a46.04709850213273,46.04709850213273 0 0,0 0.7860574575220478,0.10205281798644887 l -3.438434927372774 24.809963898114855" fill="#eeff19" stroke="none" /><path d="M 103.2404852339499 79.25152402106235 l 1.9123395252271373 -12.244502856253929 a33.392937208610256,33.392937208610256 0 0,0 0.5671564487404626,0.09358567362615104 l -2.122825180106475 12.209770919688152" fill="#ff5d08" stroke="none" /><path d="M 103.59715602781102 79.31037775812273 l 4.300101903695142 -24.73272866152793 a46.10375954766393,46.10375954766393 0 0,0 0.7807010395546671,0.14266812486315394 l -4.72519806435271 24.655045055314037" fill="#eeff19" stroke="none" /><path d="M 104.307194497241 79.44645832069477 l 8.568928673630259 -40.89015082863542 a62.77835532189266,62.77835532189266 0 0,0 1.0557444260762612,0.23074484012339921 l -9.27151582386005 40.73659249041615" fill="#30ff37" stroke="none" /><path d="M 105.01212808612495 79.60689891045804 l 5.986313560973996 -24.356819200329426 a46.08167840492014,46.08167840492014 0 0,0 0.7686667780818456,0.19595027681281682 l -6.4046892277408665 24.25016592734774" fill="#eeff19" stroke="none" /><path d="M 105.36241919743992 79.69619591428918 l 6.409157467127683 -24.267084085697107 a46.099176668981244,46.099176668981244 0 0,0 0.7654704861677535,0.20923199968478196 l -6.825925842519147 24.15316554518603" fill="#eeff19" stroke="none" /><path d="M 106.0581310904928 79.89281104454417 l 7.257137454122509 -24.086740924895906 a46.15625433984724,46.15625433984724 0 0,0 0.7587530542380789,0.2357482673723852 l -7.670675881071307 23.958252522641" fill="#edff1a" stroke="none" /><path d="M 106.40334571778207 80.00007090966166 l 7.692653439035323 -24.026896262996686 a46.228330522765596,46.228330522765596 0 0,0 0.755760950834314,0.24916250312309113 l -8.105097212112055 23.89092003561436" fill="#ecff1a" stroke="none" /><path d="M 107.08798089147638 80.2323363322302 l 8.479140398655742 -23.64746719252421 a46.121674437059816,46.121674437059816 0 0,0 0.7450136730482784,0.2743948232127058 l -8.884936397476597 23.49800910150518" fill="#edff19" stroke="none" /><path d="M 107.4271985657038 80.35727306442388 l 8.882284089686049 -23.49099453777459 a46.11417518103363,46.11417518103363 0 0,0 0.7400596841982314,0.2871316599518863 l -9.285326938883948 23.33462017393216" fill="#edff19" stroke="none" /><path d="M 108.43124777332544 80.76684994638697 l 17.57289152509176 -40.0868375197386 a64.76940779684556,64.76940779684556 0 0,0 1.017243279415086,0.4564074075436766 l -18.260316922973626 39.7784097816784" fill="#33ff51" stroke="none" /><path d="M 108.76106565485865 80.91482961587045 l 11.884319077180946 -25.888888797628702 a49.486340640809445,49.486340640809445 0 0,0 0.7710956619391937,0.3620397525444518 l -12.328192950419737 25.680484062444247" fill="#c2ff1e" stroke="none" /><path d="M 109.41281617654863 81.2277094730956 l 15.497859626857858 -30.907893876159033 a55.575736534074004,55.575736534074004 0 0,0 0.8514719225889883,0.4361569900989781 l -16.0275920370356 30.636544360747553" fill="#79ff26" stroke="none" /><path d="M 109.73455568895987 81.39251694778311 l 11.632605749689906 -22.235582316916584 a46.09459379029858,46.09459379029858 0 0,0 0.6998804551572406,0.3738519007499043 l -12.013631251375458 22.032051689664925" fill="#eeff19" stroke="none" /><path d="M 110.05341064243156 81.56283822128135 l 3.0532211112854326 -5.599366580867475 a27.377700624938,27.377700624938 0 0,0 0.4118074344769241,0.22917039143195905 l -3.1491526348343917 5.545980791875335" fill="#ff0000" stroke="none" /><line stroke="#e1ed5e" stroke-width="0.3" x1="143.23703022742887" x2="145.7803849466894" y1="26.81831364943548" y2="22.513508569990506" /><path d="M 143.74570117128098 25.957352633546492 a86.0,86.0 0 0,1 28.547481713284135,27.462654790039103" fill="none" id="id14" stroke="none" /><text fill="#e1ed5e" style="font-size:6.75px; font-family:Arial;" text-anchor="middle"><textPath startOffset="19.985693538727396" xlink:href="#id14">February</textPath></text><path d="M 110.68208982089419 81.91981866633111 l 19.17456845183741 -32.4542931595614 a58.69542704096815,58.69542704096815 0 0,0 0.865444321497085,0.5214205201793869 l -19.73037483955213 32.1194260299234" fill="#55ff2b" stroke="none" /><path d="M 110.99172775467656 82.1063720568725 l 13.129886481679904 -21.37437433698456 a46.08501140759846,46.08501140759846 0 0,0 0.6723602313330445,0.4210319151783063 l -13.49586586538521 21.145198080483308" fill="#eeff19" stroke="none" /><path d="M 111.60114157652 82.49532879139004 l 15.508773392533437 -23.400798731272005 a49.07346493403432,49.07346493403432 0 0,0 0.7001037963543745,0.47271320849447956 l -15.909281883294353 23.130373610478856" fill="#c7ff1e" stroke="none" /><path d="M 111.90073688211348 82.69761687909136 l 23.10355533900072 -33.5900684041939 a61.76845551036603,61.76845551036603 0 0,0 0.8708436301253346,0.6100816148529248 l -23.67833010870971 33.18740194657704" fill="#34ff2f" stroke="none" /><path d="M 112.19680574252982 82.90503203632743 l 9.186139002155729 -12.875235964783293 a36.81634758456502,36.81634758456502 0 0,0 0.5127196802787104,0.37251265266779243 l -9.406403998788228 12.715204077298825" fill="#ff900d" stroke="none" /><path d="M 112.48926042617603 83.11751280151076 l 14.946476885780985 -20.20405501016305 a46.131673445094734,46.131673445094734 0 0,0 0.6343189590873034,0.47775588917341616 l -15.292041998626672 19.943782531483784" fill="#edff1a" stroke="none" /><path d="M 114.68862486808459 84.99185889309783 l 18.212088081654887 -18.60824891611861 a47.037416922924315,47.037416922924315 0 0,0 0.5737762984884262,0.5713123207172096 l -18.529700180310634 18.292000744751284" fill="#e1ff1b" stroke="none" /><path d="M 114.94478906791727 85.2469230424477 l 17.888976260545345 -17.659496046700085 a46.137089574446975,46.137089574446975 0 0,0 0.5530644864104295,0.5699815689868135 l -18.190305010658886 17.348950282163155" fill="#edff1a" stroke="none" /><path d="M 115.4437574822437 85.77008943001954 l 27.770881671969125 -25.58814868052553 a58.762087094534266,58.762087094534266 0 0,0 0.6789997201982438,0.7497684500573553 l -28.207225032783406 25.106327443198627" fill="#55ff2b" stroke="none" /><path d="M 115.68641384162765 86.03803664274999 l 18.753986130823648 -16.69230901368119 a46.10667592500744,46.10667592500744 0 0,0 0.5225601911205291,0.597376632113647 l -19.038538185522025 16.367016825364594" fill="#eeff19" stroke="none" /><path d="M 116.38621287248628 86.86637796730983 l 29.35084275751263 -23.524830179970877 a58.61501835135403,58.61501835135403 0 0,0 0.6242385557233449,0.7927195733507991 l -29.75143539382994 23.016118212667042" fill="#56ff2a" stroke="none" /><path d="M 116.60985879189232 87.15038557335679 l 19.86592495046167 -15.368551836615667 a46.11667493304236,46.11667493304236 0 0,0 0.4803250649866611,0.6320514824511957 l -20.127525955672446 15.024315578283439" fill="#edff19" stroke="none" /><path d="M 117.2510076193507 88.02491185347247 l 30.863577345609098 -21.42449110139284 a58.57085606586648,58.57085606586648 0 0,0 0.5677901580880228,0.833161995368578 l -31.227791969365853 20.890051082753857" fill="#57ff2a" stroke="none" /><path d="M 117.65298651832404 88.62581576622439 l 32.575635115869304 -20.989155288570668 a59.75198888999107,59.75198888999107 0 0,0 0.549639777284025,0.8693981313853042 l -32.932102489399284 20.42530950947116" fill="#4aff2c" stroke="none" /><line stroke="#e1ed5e" stroke-width="0.3" x1="172.23445277983987" x2="176.4835382374775" y1="55.19839476539836" y2="52.563006222186495" /><path d="M 173.08426987136738 54.67131705675599 a86.0,86.0 0 0,1 12.851231095245387,41.99856678651699" fill="none" id="id15" stroke="none" /><text fill="#e1ed5e" style="font-size:6.75px; font-family:Arial;" text-anchor="middle"><textPath startOffset="22.20632615414155" xlink:href="#id15">March</textPath></text><path d="M 118.03404312379186 89.2402003453031 l 21.557488351112607 -12.862021795346736 a46.10292629699435,46.10292629699435 0 0,0 0.40074491305351695,0.68500295978063 l -21.775692938636453 12.489039423212212" fill="#eeff19" stroke="none" /><path d="M 118.3937258080291 89.86733742301442 l 33.080242797810655 -18.223112692517024 a58.76750322388652,58.76750322388652 0 0,0 0.48047163489019395,0.8902409684566354 l -33.389022531919316 17.65099074072793" fill="#54ff2b" stroke="none" /><path d="M 118.56541770881063 90.18545643968196 l 18.43981891030445 -9.748146191920696 a41.85793076083722,41.85793076083722 0 0,0 0.3312568209470543,0.6398827411412641 l -18.60488516441162 9.429290728519089" fill="#ffd714" stroke="none" /><path d="M 119.47837535516314 92.15188598940014 l 35.75704933267026 -14.407022902505787 a59.55034222795358,59.55034222795358 0 0,0 0.37490187377560064,0.9540843762567416 l -35.99974475632756 13.789389521353261" fill="#4cff2c" stroke="none" /><path d="M 119.7369772167798 92.82701384747503 l 39.20807986694532 -14.249345827566266 a62.717111397678806,62.717111397678806 0 0,0 0.36001688378562663,1.017816210856922 l -39.447549831540755 13.572331990282729" fill="#30ff36" stroke="none" /><path d="M 119.85752413597 93.16781622104841 l 23.83139271963291 -8.199433809271682 a46.20249975200873,46.20249975200873 0 0,0 0.2522716026702116,0.7542599822482718 l -23.96900161607489 7.788000724101095" fill="#ecff1a" stroke="none" /><path d="M 120.53481517161879 95.60439243477599 l 33.67742279856894 -7.208866171594949 a55.44033330026783,55.44033330026783 0 0,0 0.19171981137965205,0.9348938881923379 l -33.79652190586359 6.6280966272392" fill="#7aff26" stroke="none" /><path d="M 120.6074358757038 95.95851677861258 l 24.65042632059686 -4.834385266349245 a46.120007935720665,46.120007935720665 0 0,0 0.14607804481504785,0.7803547565315299 l -24.729990089321767 4.409352432355153" fill="#edff19" stroke="none" /><path d="M 120.67395015179393 96.31383870115 l 24.634013413684038 -4.3922398097198805 a46.02251760738022,46.02251760738022 0 0,0 0.1323435317363072,0.7810990158454711 l -24.705968806940568 3.9675550055585713" fill="#efff19" stroke="none" /><path d="M 120.78858239683441 97.02765380044208 l 24.949185892901582 -3.567228224379661 a46.20291637734352,46.20291637734352 0 0,0 0.10579147974375722,0.7882694038629671 l -25.00689337170318 3.13724047845203" fill="#ecff1a" stroke="none" /><path d="M 120.83666639777658 97.38593545837742 l 37.23109855072611 -4.6708284669516065 a58.52294415236583,58.52294415236583 0 0,0 0.11679409193411107,1.000620454741519 l -37.305982995663804 4.029264273885235" fill="#57ff2a" stroke="none" /><path d="M 120.96714384426684 98.82574320788733 l 42.798680604085455 -2.396923575575602 a63.865747445689905,63.865747445689905 0 0,0 0.052024404584121116,1.0981529557075784 l -42.833598616903075 1.6598595132450238" fill="#32ff45" stroke="none" /><path d="M 120.98425023603335 99.18683210126433 l 11.08682805348287 -0.42962948737683915 a32.09514929074496,32.09514929074496 0 0,0 0.016641037712824658,0.5522350267427392 l -11.092580785651341 0.23872431320910087" fill="#ff4a06" stroke="none" /><line stroke="#e1ed5e" stroke-width="0.3" x1="184.98032266829074" x2="189.97916517819016" y1="98.17113171792111" y2="98.06355123074" /><path d="M 185.9800911702706 98.14961562048488 a86.0,86.0 0 0,1 -9.607161424134198,41.387399972396054" fill="none" id="id16" stroke="none" /><text fill="#e1ed5e" style="font-size:6.75px; font-family:Arial;" text-anchor="middle"><textPath startOffset="21.466115282336823" xlink:href="#id16">April</textPath></text><path d="M 120.99980553446 99.90962569577887 l 43.64609914494789 -0.18783439854804146 a64.64650332308304,64.64650332308304 0 0,0 -0.004789082878279655,1.1128142008842152 l -43.642865764780105 -0.5634892805398584" fill="#33ff4f" stroke="none" /><path d="M 120.9904718944345 100.63252640178507 l 31.403045235341953 0.9462986495825884 a52.417299871044534,52.417299871044534 0 0,0 -0.03493954285207263,0.901634350643385 l -31.38210355963868 -1.4867102472399796" fill="#9eff22" stroke="none" /><path d="M 120.95626037817324 101.35467743843564 l 21.912502792017072 1.4164919034371681 a42.9582382700129,42.9582382700129 0 0,0 -0.054052594705289995,0.7375047097672457 l -21.884873638647445 -1.7934697497011842" fill="#ffe615" stroke="none" /><path d="M 120.92983693683757 101.71520430193887 l 28.089705566971293 2.3019569609673782 a49.183870647753196,49.183870647753196 0 0,0 -0.07641160173995486,0.8431956579243249 l -28.045919368954262 -2.785134007440274" fill="#c6ff1e" stroke="none" /><path d="M 120.8583938346157 102.4346265915055 l 41.89679761503158 4.890264244756973 a63.181232020632876,63.181232020632876 0 0,0 -0.1353838135644377,1.0791421994309407 l -41.806412292220294 -5.6107241984753085" fill="#31ff3c" stroke="none" /><path d="M 120.76222939487914 103.15116336523771 l 6.570346613981097 0.9972067620058844 a27.645590715206822,27.645590715206822 0 0,0 -0.07545698854483374,0.46987073969800003 l -6.552207871074975 -1.1101567313970893" fill="#ff0400" stroke="none" /><path d="M 120.70491114924044 103.5080841355445 l 24.589983059755593 4.166341446406118 a45.94044241642695,45.94044241642695 0 0,0 -0.138813548182568,0.778540097096508 l -24.514623069233835 -4.589000294235845" fill="#f0ff19" stroke="none" /><path d="M 120.64145759157962 103.86396538481128 l 24.725521802686135 4.628479357288672 a46.15500446384287,46.15500446384287 0 0,0 -0.15290508352657478,0.7796597266983802 l -24.642186786183895 -5.053402811054998" fill="#edff1a" stroke="none" /><path d="M 120.5718875245553 104.21870165774334 l 24.629534697834305 5.050808232116598 a46.14208907846444,46.14208907846444 0 0,0 -0.16625645358973276,0.7766948015478712 l -24.538944205520128 -5.474016853080638" fill="#edff1a" stroke="none" /><path d="M 120.49622156327973 104.57218783832717 l 24.495841348944246 5.464401697622596 a46.09792679297689,46.09792679297689 0 0,0 -0.179429449896797,0.7729773740504056 l -24.398151333116896 -5.885247729021566" fill="#eeff19" stroke="none" /><path d="M 120.32669344350535 105.2749913415812 l 33.2377026149619 8.625534398660145 a55.33867671857951,55.33867671857951 0 0,0 -0.2472108436033548,0.919963513739205 l -33.084303695016764 -9.196388845574898" fill="#7bff26" stroke="none" /><path d="M 120.02730092923936 106.31721596034902 l 12.019956506524132 3.791457538587015 a33.60374962801309,33.60374962801309 0 0,0 -0.17875234420757002,0.5501431469991264 l -11.952911911300315 -3.9977995855639366" fill="#ff6108" stroke="none" /><path d="M 119.9155931802556 106.66101706037122 l 29.65311513100254 9.917852006365644 a52.26773137585557,52.26773137585557 0 0,0 -0.29272211693318084,0.8507874919934891 l -29.47800218312613 -10.426812201448435" fill="#a0ff22" stroke="none" /><path d="M 119.79798401119884 107.00284435728193 l 23.58947175368673 8.343950528908595 a46.021684356710644,46.021684356710644 0 0,0 -0.2705981659870973,0.7445699355086149 l -23.442349326694405 -8.748768261423342" fill="#efff19" stroke="none" /><path d="M 119.54520255179757 107.68017299344265 l 26.810333293003385 10.534963613522828 a49.805892272592004,49.805892272592004 0 0,0 -0.3204117066954818,0.7952355792453728 l -26.625018972050512 -10.994898560611015" fill="#beff1e" stroke="none" /><path d="M 119.26925614724726 108.34839909993367 l 34.39029885428464 14.899586045648906 a58.47919849221307,58.47919849221307 0 0,0 -0.40812609032396807,0.920216591539339 l -34.128731679229396 -15.489350973680933" fill="#58ff2a" stroke="none" /><path d="M 118.97047184881838 109.00673069616215 l 38.11068246965971 18.09404934082087 a63.18789802598949,63.18789802598949 0 0,0 -0.47495256784590306,0.978542966066274 l -37.79357664519909 -18.747381262852418" fill="#31ff3c" stroke="none" /><path d="M 118.81262510543309 109.33194174019688 l 22.47176559811568 11.147046527834814 a46.084594782263665,46.084594782263665 0 0,0 -0.35862884674658535,0.7076087377585194 l -22.276558081582824 -11.532209477296028" fill="#eeff19" stroke="none" /><path d="M 118.64920377521936 109.65438752849418 l 22.299867273881976 11.54427626460473 a46.11084217835532,46.11084217835532 0 0,0 -0.3709671966509971,0.7017301334254917 l -22.097847569006085 -11.926421413116355" fill="#eeff19" stroke="none" /><line stroke="#e1ed5e" stroke-width="0.3" x1="174.80103733775053" x2="179.2010983576182" y1="140.37084112569926" y2="142.7455964860345" /><path d="M 175.68104954172406 140.8457921977663 a86.0,86.0 0 0,1 -30.038265399797805,32.042727171017184" fill="none" id="id17" stroke="none" /><text fill="#e1ed5e" style="font-size:6.75px; font-family:Arial;" text-anchor="middle"><textPath startOffset="22.206326154141568" xlink:href="#id17">May</textPath></text><path d="M 118.12598468904814 110.60418214915192 l 18.010191274310046 10.536439928101895 a41.86584664219819,41.86584664219819 0 0,0 -0.3692550215819173,0.6188926556804517 l -17.826155377029902 -10.844894677668451" fill="#ffd814" stroke="none" /><path d="M 117.94076556474637 110.91462005526583 l 20.950172822953498 12.745452563296228 a45.52256720563436,45.52256720563436 0 0,0 -0.4130313688459485,0.6659380786305602 l -20.727676814439587 -13.104186973292062" fill="#f5ff19" stroke="none" /><path d="M 117.55443506779139 111.5257021239791 l 24.979503129398605 16.400773432048425 a50.88245213768475,50.88245213768475 0 0,0 -0.48701023184582154,0.7280142181935285 l -24.693489792142064 -16.828324564447758" fill="#b1ff20" stroke="none" /><path d="M 117.35343817320211 111.8261652097733 l 20.677806767596305 14.091683536637117 a46.022934232715016,46.022934232715016 0 0,0 -0.45176790059374006,0.6508053552474695 l -20.432177959840427 -14.445530154071607" fill="#efff19" stroke="none" /><path d="M 116.93607887273984 112.41649034213515 l 20.19998265549542 14.809383650011359 a46.04709850213273,46.04709850213273 0 0,0 -0.47415077392702404,0.6352024462873221 l -19.942070614873302 -15.154898975807997" fill="#eeff19" stroke="none" /><path d="M 116.498646956653 112.99209946851258 l 24.49216857808784 19.28671431070175 a52.17440730086301,52.17440730086301 0 0,0 -0.5616999495180753,0.7008070523392944 l -24.156550716514907 -19.705449196619295" fill="#a1ff22" stroke="none" /><path d="M 116.27256486870786 113.27417163493432 l 19.474132685451746 15.885816513490889 a46.131673445094734,46.131673445094734 0 0,0 -0.5072375204798656,0.6110002694884146 l -19.197799165078337 -16.218678040093074" fill="#edff1a" stroke="none" /><path d="M 115.32070863581623 114.36230785411682 l 13.458393750157157 12.61649176003541 a39.44733657375261,39.44733657375261 0 0,0 -0.4686596209857258,0.4913877389270604 l -13.239227577792466 -12.846286615544978" fill="#ffb610" stroke="none" /><path d="M 115.07121518719521 114.62390073753431 l 20.22272726854003 19.622515672699056 a49.17803789306616,49.17803789306616 0 0,0 -0.5947249411580128,0.6024532254938264 l -19.881961702326482 -19.967709392173546" fill="#c6ff1e" stroke="none" /><path d="M 114.81725581225074 114.88116024355365 l 17.765714810304004 17.84233546908372 a46.1787521079258,46.1787521079258 0 0,0 -0.5681087050623345,0.5560139389358619 l -17.455956152865877 -18.145499510942155" fill="#edff1a" stroke="none" /><path d="M 114.29624159901734 115.38237550388516 l 23.595251162857885 25.38786232603334 a55.65947822636644,55.65947822636644 0 0,0 -0.7074066578598323,0.6461992095049869 l -23.15474495553119 -25.790254302124907" fill="#78ff26" stroke="none" /><path d="M 114.0293411484842 115.62618273729858 l 11.346774141459289 12.638281750847156 a37.98456502331118,37.98456502331118 0 0,0 -0.4902860390993073,0.43262042492484637 l -11.127545749453393 -12.831725317544292" fill="#ffa10e" stroke="none" /><path d="M 113.48314897796784 116.09983520530334 l 16.00082377571872 19.10611729938756 a45.921277651026685,45.921277651026685 0 0,0 -0.6103809679902203,0.5023019821312188 l -15.66957267918381 -19.378714400375955" fill="#f0ff19" stroke="none" /><path d="M 113.20401910651253 116.32954008644616 l 15.671668347328877 19.381306133749458 a45.92461065370499,45.92461065370499 0 0,0 -0.6189817593049576,0.4917565451684349 l -15.335729095306567 -19.64819659292302" fill="#f0ff19" stroke="none" /><path d="M 112.63410532772338 116.77436683061366 l 22.70755159328978 30.148933412411747 a58.74375557980359,58.74375557980359 0 0,0 -0.8129437269309167,0.6013963344438311 l -22.1852228959403 -30.535339695595347" fill="#55ff2b" stroke="none" /><path d="M 112.34349029814194 116.9893568818739 l 14.721825339815473 20.2628542340564 a46.04626525146315,46.04626525146315 0 0,0 -0.6452455961012911,0.46036560048513436 l -14.370852415865297 -20.513264096385754" fill="#eeff19" stroke="none" /><path d="M 112.04921762599082 117.19931262002967 l 14.411490586610626 20.571271896116038 a46.11709155837714,46.11709155837714 0 0,0 -0.6540789629466085,0.44988147492508673 l -14.055254739041134 -20.816294160406215" fill="#edff19" stroke="none" /><path d="M 111.45004920935366 117.60387380957326 l 13.475189348256318 20.717424747225195 a45.71421485963694,45.71421485963694 0 0,0 -0.6633311034699049,0.4233692946594102 l -13.116576442739483 -20.946308470708413" fill="#f3ff19" stroke="none" /><path d="M 111.1453310114006 117.79835938074945 l 13.381915143536641 21.370036895604745 a46.2141652613828,46.2141652613828 0 0,0 -0.6778535313462684,0.41639300301680704 l -13.012082412258065 -21.59721836544993" fill="#ecff1a" stroke="none" /><line stroke="#e1ed5e" stroke-width="0.3" x1="143.8653032363475" x2="146.44561519142675" y1="172.8068346515853" y2="177.08958963109032" /><path d="M 144.38136562736335 173.6633856474863 a86.0,86.0 0 0,1 -40.68145358897372,12.25698825130547" fill="none" id="id18" stroke="none" /><text fill="#e1ed5e" style="font-size:6.75px; font-family:Arial;" text-anchor="middle"><textPath startOffset="21.466115282336833" xlink:href="#id18">June</textPath></text><path d="M 110.21172684928248 118.3499491758327 l 4.558557004973818 8.191493034528548 a30.374486658069635,30.374486658069635 0 0,0 -0.45905567459387553,0.25031375543700374 l -4.416878518511294 -8.268747441725322" fill="#ff2f04" stroke="none" /><path d="M 109.89434966115114 118.52300852407294 l 10.433184892177026 19.531750878969866 a43.14363654399365,43.14363654399365 0 0,0 -0.65806187062531,0.34426686878642704 l -10.09543211902522 -19.70844716670101" fill="#ffe915" stroke="none" /><path d="M 109.2508944713604 118.85261126421891 l 11.112635836651135 22.646696943501446 a46.22624739609165,46.22624739609165 0 0,0 -0.7173594491558808,0.3443761294567565 l -10.72116371949502 -22.83462734945776" fill="#ecff1a" stroke="none" /><path d="M 108.92500713936063 119.00905698771935 l 10.69442676724736 22.777681260674004 a46.16333697053864,46.16333697053864 0 0,0 -0.7221968389045258,0.33152514722296517 l -10.300761932575416 -22.958393478231045" fill="#edff1a" stroke="none" /><path d="M 108.2653958097858 119.30500536409082 l 9.896993633560598 23.115833721847064 a46.14542208114274,46.14542208114274 0 0,0 -0.7328959655998651,0.3063505730603664 l -9.497626208463272 -23.2827693379274" fill="#edff1a" stroke="none" /><path d="M 107.59598834532513 119.57807347666477 l 9.025369348309136 23.262192649885 a45.95169130046622,45.95169130046622 0 0,0 -0.739887392148507,0.27976210206307206 l -8.623611735400353 -23.414103002054702" fill="#f0ff19" stroke="none" /><path d="M 107.2578585660854 119.70592522655815 l 8.67213665032488 23.545853756966917 a46.09209403828985,46.09209403828985 0 0,0 -0.7468684767068977,0.2678004634394828 l -8.265548612988248 -23.69164176144636" fill="#eeff19" stroke="none" /><path d="M 106.91757812671514 119.82793768551818 l 8.094410433759723 23.20110633254365 a45.572562245808946,45.572562245808946 0 0,0 -0.7428984478258392,0.252031488506077 l -7.693842252996657 -23.33700080794785" fill="#f5ff19" stroke="none" /><path d="M 106.2309692047433 120.05430185196036 l 7.402621344859507 23.825250625948662 a45.94877492312271,45.94877492312271 0 0,0 -0.7573343283192971,0.22817862061437832 l -6.991412042099965 -23.949144615668768" fill="#f0ff19" stroke="none" /><path d="M 105.18746579009965 120.34920634021253 l 6.956483734073921 27.28864702629353 a49.16137287967463,49.16137287967463 0 0,0 -0.8218065936630459,0.20198006626729054 l -6.485723855667664 -27.404348350874848" fill="#c6ff1e" stroke="none" /><path d="M 104.83641907484287 120.43548508189849 l 7.157382094411838 30.242328622143365 a52.07775022319214,52.07775022319214 0 0,0 -0.8741122675536481,0.19894510622999753 l -6.635749677465328 -30.36105046195105" fill="#a2ff22" stroke="none" /><path d="M 104.13013068566511 120.58985236759428 l 4.9515682439191036 24.684947496750762 a46.176668981251865,46.176668981251865 0 0,0 -0.7806768066450779,0.1496185680199888 l -4.525923822702321 -24.76652326311922" fill="#edff1a" stroke="none" /><path d="M 103.7750983002368 120.6578951692458 l 4.546744719983658 24.880458286570263 a46.29249082432298,46.29249082432298 0 0,0 -0.7851008676287295,0.1364998493164456 l -4.117794880882879 -24.955036714407715" fill="#ebff1a" stroke="none" /><path d="M 103.41894727170886 120.7198165907248 l 4.078860732803106 24.71908443342217 a46.05334788215454,46.05334788215454 0 0,0 -0.7832668678222026,0.12233017605710296 l -3.6527580013723857 -24.78563291682638" fill="#eeff19" stroke="none" /><path d="M 102.70371172650421 120.8252237178851 l 3.5977791217501585 27.711739518494326 a48.944311080249975,48.944311080249975 0 0,0 -0.8364176687782947,0.10127853142353385 l -3.1202340299204834 -27.76956357864321" fill="#c9ff1d" stroke="none" /><path d="M 102.34483914955558 120.86867818915974 l 3.0740862184660815 27.3588557368885 a48.53101874814007,48.53101874814007 0 0,0 -0.8309605902549305,0.08613246277279094 l -2.6026930316055483 -27.40771756811705" fill="#ceff1d" stroke="none" /><path d="M 101.98527174616119 120.90594882070398 l 2.3828381186589795 25.092530457370696 a46.205416129352244,46.205416129352244 0 0,0 -0.7924353890525158,0.0683746597616727 l -1.9505584118649222 -25.129829369411034" fill="#ecff1a" stroke="none" /><path d="M 101.62511606390274 120.93702456842531 l 1.9366947097028713 24.951217712543205 a46.02626723539331,46.02626723539331 0 0,0 -0.7904183784487342,0.05451187913714737 l -1.5069135704752068 -24.98085793619664" fill="#efff19" stroke="none" /><path d="M 101.26447882468166 120.96189622390904 l 1.5058348562710346 24.96297555275 a46.00835234599742,46.00835234599742 0 0,0 -0.7909316261686546,0.04088213072995304 l -1.0759151616889004 -24.985197490242154" fill="#efff19" stroke="none" /><path d="M 100.90346689309514 120.98055641714683 l 1.1160294143770644 25.91674168747604 a46.94075984525344,46.94075984525344 0 0,0 -0.8075591051913221,0.027813968418419585 l -0.6697499575110899 -25.932112454320553" fill="#e3ff1b" stroke="none" /><line stroke="#e1ed5e" stroke-width="0.3" x1="102.19456741930631" x2="102.32365962044197" y1="184.97166512339345" y2="189.96999836594603" /><path d="M 102.22038585953345 185.97133177190398 a86.0,86.0 0 0,1 -42.740103519485714,-10.115201625700543" fill="none" id="id19" stroke="none" /><text fill="#e1ed5e" style="font-size:6.75px; font-family:Arial;" text-anchor="middle"><textPath startOffset="22.20632615414155" xlink:href="#id19">July</textPath></text><path d="M 100.18074693466247 120.99922214144158 l 0.23020715626348134 26.74552252824653 a47.746513242733855,47.746513242733855 0 0,0 -0.8219081818518552,0.0 l 0.23020715626346291 -26.74552252824653" fill="#d8ff1c" stroke="none" /><path d="M 99.81925306533755 120.99922214144158 l -0.21655207587075184 25.1590720190786 a46.160003967860334,46.160003967860334 0 0,0 -0.794480292795196,-0.013677698737337676 l 0.6495920585586158 -25.151616843062104" fill="#edff1a" stroke="none" /><path d="M 99.09653310690486 120.98055641714683 l -1.0803961997461065 25.08925738716283 a46.11250867969448,46.11250867969448 0 0,0 -0.7927221823217268,-0.04097468203060673 l 1.5121064504813222 -25.066942898370023" fill="#edff19" stroke="none" /><path d="M 98.37488393609728 120.93702456842531 l -2.030419784551882 26.158715588158973 a47.23739708362266,47.23739708362266 0 0,0 -0.8101341416555157,-0.06990178260872659 l 2.480398243948939 -26.11988955327158" fill="#dfff1b" stroke="none" /><path d="M 98.01472825383883 120.90594882070398 l -2.5113165719072073 26.445475701952315 a47.564447971431406,47.564447971431406 0 0,0 -0.8144107167131402,-0.0844170007118266 l 2.9661598852259408 -26.39832933278473" fill="#dbff1b" stroke="none" /><path d="M 96.93821686468263 120.77559828337769 l -3.8309190952298406 25.994537385929593 a47.275309989088385,47.275309989088385 0 0,0 -0.8040497745186855,-0.12557603866102995 l 4.277804733357043 -25.924743039921456" fill="#deff1b" stroke="none" /><path d="M 96.58105272829116 120.7198165907248 l -3.8213798510769355 23.158675272061377 a44.47183811129848,44.47183811129848 0 0,0 -0.7542233754222591,-0.13113140150644256 l 4.219452197971245 -23.08946529203393" fill="#fffb17" stroke="none" /><path d="M 96.22490169976321 120.6578951692458 l -4.47806571708081 24.504636644467332 a45.91044539232219,45.91044539232219 0 0,0 -0.7761759497005751,-0.14875596807444114 l 4.89920928135308 -24.423923478044422" fill="#f0ff19" stroke="none" /><path d="M 95.51606077576429 120.51570834832081 l -5.805858416223468 26.563985821905725 a48.19105247495288,48.19105247495288 0 0,0 -0.8088749989034337,-0.18409731627951542 l 6.262253564519764 -26.460111772048524" fill="#d3ff1c" stroke="none" /><path d="M 95.16358092515715 120.4354850818985 l -6.132239719734284 25.910759876681542 a47.62652514631485,47.62652514631485 0 0,0 -0.796149295795653,-0.19567412669044074 l 6.5773423002731475 -25.801364491677074" fill="#daff1c" stroke="none" /><path d="M 94.11515582081647 120.15858648285463 l -6.208245000061196 21.266398893478726 a43.154052177363354,43.154052177363354 0 0,0 -0.7112713053760408,-0.21430020966231414 l 6.573391279877482 -21.156383314710684" fill="#ffe915" stroke="none" /><path d="M 93.42475214034765 119.94407469862007 l -8.354693471268615 25.34149802892215 a47.68318619184605,47.68318619184605 0 0,0 -0.7773046601646973,-0.2637039437857935 l 8.789667864370537 -25.19393109823823" fill="#d9ff1c" stroke="none" /><path d="M 93.08242187328487 119.8279376855182 l -8.48389732441773 24.317497308667072 a46.75494494593791,46.75494494593791 0 0,0 -0.7576092004255568,-0.2716517048283467 l 8.901226085473015 -24.167858062798768" fill="#e5ff1a" stroke="none" /><path d="M 92.7421414339146 119.70592522655815 l -5.201381311034678 14.122351690486264 a36.04975696855471,36.04975696855471 0 0,0 -0.5804522078772788,-0.21947735769811016 l 5.443703739672239 -14.030726082681522" fill="#ff850c" stroke="none" /><path d="M 92.40401165467489 119.57807347666478 l -9.550706425420588 24.616208405061155 a47.40404721753795,47.40404721753795 0 0,0 -0.7581914462232189,-0.30170002374036986 l 9.973018947685665 -24.44816153691472" fill="#ddff1b" stroke="none" /><path d="M 91.40352486487194 119.15986991738527 l -13.883806196317218 30.94430176301127 a54.91621862910426,54.91621862910426 0 0,0 -0.8591302557663905,-0.3943845627442712 l 14.414404447851028 -30.700730129932925" fill="#80ff25" stroke="none" /><path d="M 91.07499286063937 119.00905698771935 l -13.110845226345761 27.92432545691259 a51.849022914393416,51.849022914393416 0 0,0 -0.8046161783031421,-0.3862646620301451 l 13.589574072649146 -27.694506518382884" fill="#a5ff21" stroke="none" /><path d="M 90.7491055286396 118.85261126421891 l -11.552009735360324 23.542107148174406 a47.22364844757465,47.22364844757465 0 0,0 -0.7266732124188963,-0.36436903419526684 l 11.95553685546198 -23.33977027306984" fill="#dfff1b" stroke="none" /><path d="M 90.42595943632237 118.69057910512821 l -11.901973132836108 23.235202406635036 a47.10616010316437,47.10616010316437 0 0,0 -0.71850150609938,-0.37588602951287875 l 12.300165541461984 -23.02688695817744" fill="#e1ff1b" stroke="none" /><path d="M 90.10565033884886 118.52300852407294 l -12.202017047650346 22.84314518132918 a46.89784743577026,46.89784743577026 0 0,0 -0.7087765213608691,-0.38648147195734944 l 12.593416380879855 -22.629723057612065" fill="#e3ff1b" stroke="none" /><line stroke="#e1ed5e" stroke-width="0.3" x1="58.666819895761336" x2="56.23545636021788" y1="174.27360380694188" y2="178.64263932499728" /><path d="M 58.180547188652646 175.14741091055294 a86.0,86.0 0 0,1 -31.652253787137756,-30.449443065178592" fill="none" id="id20" stroke="none" /><text fill="#e1ed5e" style="font-size:6.75px; font-family:Arial;" text-anchor="middle"><textPath startOffset="22.20632615414155" xlink:href="#id20">August</textPath></text><path d="M 89.4739219176387 118.17145234162733 l -10.363817142573673 17.891336907256843 a41.67628211486956,41.67628211486956 0 0,0 -0.6176665719158387,-0.36492829794146125 l 10.670251585517894 -17.710290037021633" fill="#ffd513" stroke="none" /><path d="M 89.1626897886671 117.98757091392108 l -12.822233291801615 21.28211023893485 a45.8462850907648,45.8462850907648 0 0,0 -0.6724575911328019,-0.4130783758212799 l 13.186670082866724 -21.058243396285192" fill="#f1ff19" stroke="none" /><path d="M 88.54995079064634 117.60387380957326 l -14.283655276955649 21.960400382346137 a47.1969844261482,47.1969844261482 0 0,0 -0.6772212167035446,-0.4488252946868581 l 14.659551192399157 -21.71127706656796" fill="#dfff1b" stroke="none" /><path d="M 88.24862548938628 117.40417183066458 l -14.601033287386482 21.624610126195048 a47.092411467116364,47.092411467116364 0 0,0 -0.6679119305707936,-0.4593959161927294 l 14.971102102580167 -21.37007342063722" fill="#e1ff1b" stroke="none" /><path d="M 87.65650970185807 116.9893568818739 l -15.22408699245884 20.95415809210072 a46.900763813113784,46.900763813113784 0 0,0 -0.6490508029971425,-0.48015226744406797 l 15.582522765874549 -20.688995875916884" fill="#e3ff1b" stroke="none" /><path d="M 87.36589467227662 116.77436683061367 l -14.688447699829723 19.501927797654826 a45.414661243924215,45.414661243924215 0 0,0 -0.6203886483848623,-0.4756875608524166 l 15.021965076708073 -19.24620089497504" fill="#f7ff19" stroke="none" /><path d="M 87.07902340077011 116.55440617244103 l -15.039909097379553 19.269190845021082 a45.44382501735939,45.44382501735939 0 0,0 -0.61250162730605,-0.48660833639473006 l 15.369368217402961 -19.007448594621223" fill="#f6ff19" stroke="none" /><path d="M 86.24171649860922 115.8653595955263 l -16.197134073455587 18.67771924210952 a45.722547366332705,45.722547366332705 0 0,0 -0.5901641003921542,-0.5207512013927222 l 16.516240526754327 -18.39614489894451" fill="#f3ff19" stroke="none" /><path d="M 85.97065885151581 115.62618273729859 l -16.57329865462734 18.459697472323064 a45.807955559964284,45.807955559964284 0 0,0 -0.582198284616989,-0.5318243292095223 l 16.888596488711183 -18.171680376526965" fill="#f1ff19" stroke="none" /><path d="M 85.44109423537348 115.13401014063109 l -17.313558760901554 17.99747715206247 a45.97335581787521,45.97335581787521 0 0,0 -0.5655818411901247,-0.5535408708025633 l 17.620790554467472 -17.696786178337337" fill="#efff19" stroke="none" /><path d="M 85.18274418774928 114.88116024355367 l -17.863310860887605 17.940352435671564 a46.317071719075486,46.317071719075486 0 0,0 -0.5601264087159261,-0.567405094795785 l 18.169477894659064 -17.630206846895113" fill="#ebff1a" stroke="none" /><path d="M 84.9287848128048 114.62390073753433 l -19.01505663782717 18.45068876904068 a47.495288165856564,47.495288165856564 0 0,0 -0.5642744398928449,-0.5916394942881655 l 19.329837629098968 -18.120642158170014" fill="#dcff1b" stroke="none" /><path d="M 84.43433777217949 114.09645910891817 l -20.617515583339113 18.671480923476093 a48.81557385180041,48.81557385180041 0 0,0 -0.5586852940294385,-0.6276888504242175 l 20.93585972701689 -18.31381790331101" fill="#cbff1d" stroke="none" /><path d="M 83.72743513129214 113.27417163493432 l -19.379218806443703 15.80839152667072 a46.009185596666995,46.009185596666995 0 0,0 -0.49532632115951875,-0.6179957455500854 l 19.648463039658083 -15.472467947542373" fill="#efff19" stroke="none" /><path d="M 83.50135304334701 112.99209946851258 l -24.069269027090986 18.95369590948526 a51.636127368316636,51.636127368316636 0 0,0 -0.5438837790062457,-0.7030431006367935 l 24.391959623315298 -18.53657481473521" fill="#a8ff21" stroke="none" /><path d="M 83.06392112726016 112.41649034213515 l -30.698973956685805 22.50659769069576 a59.065390338260094,59.065390338260094 0 0,0 -0.5940859052696708,-0.8251333621979305 l 31.081839654331084 -21.97483072304669" fill="#51ff2b" stroke="none" /><path d="M 82.6465618267979 111.8261652097733 l -31.110870757294066 21.201694656902365 a58.64834837813709,58.64834837813709 0 0,0 -0.5613398046092943,-0.8391268443060529 l 31.47121366731409 -20.663030898390492" fill="#56ff2b" stroke="none" /><path d="M 82.44556493220864 111.52570212397912 l -35.46340668749249 23.284182043062103 a63.424124590814394,63.424124590814394 0 0,0 -0.5913397685452277,-0.9177724527161623 l 35.858951319414764 -22.67028799042449" fill="#31ff40" stroke="none" /><line stroke="#e1ed5e" stroke-width="0.3" x1="26.63291911575756" x2="22.317208475507996" y1="142.92168965132927" y2="145.44649492493687" /><path d="M 25.769776987707644 143.4266507060508 a86.0,86.0 0 0,1 -11.730757126820373,-40.83630448921669" fill="none" id="id21" stroke="none" /><text fill="#e1ed5e" style="font-size:6.75px; font-family:Arial;" text-anchor="middle"><textPath startOffset="21.46611528233685" xlink:href="#id21">September</textPath></text><path d="M 81.87401531095188 110.60418214915194 l -24.141848152257854 14.12362195022649 a48.96972522567205,48.96972522567205 0 0,0 -0.4193860633716046,-0.7312349516448855 l 24.381386211781834 -13.705967152723296" fill="#c9ff1d" stroke="none" /><path d="M 81.69416730710424 110.29060199501025 l -23.75454627074547 13.353589828184312 a48.250629897827594,48.250629897827594 0 0,0 -0.40076419585738543,-0.7275034253108417 l 23.980886876054374 -12.942715884475646" fill="#d2ff1c" stroke="none" /><path d="M 80.87730276802145 108.67885076344099 l -22.55154233827002 10.235034737252713 a45.76545977581589,45.76545977581589 0 0,0 -0.3193969591198962,-0.7201558244807131 l 22.724380382121197 -9.845330576279302" fill="#f2ff19" stroke="none" /><path d="M 80.73074385275274 108.34839909993369 l -24.574657135472584 10.646962391450002 a47.781926396190855,47.781926396190855 0 0,0 -0.32047797379261467,-0.7575152623826917 l 24.75428609045751 -10.222372603401151" fill="#d8ff1c" stroke="none" /><path d="M 80.58989483394504 108.01547362559985 l -20.067056647322485 8.286764132598625 a42.7107628211487,42.7107628211487 0 0,0 -0.27476725715285455,-0.6819497987546269 l 20.206726518732726 -7.940114966001193" fill="#ffe315" stroke="none" /><path d="M 80.32549172779594 107.34259656027581 l -31.61817018314884 11.80001372420557 a54.7483186191846,54.7483186191846 0 0,0 -0.321909004772631,-0.8857553267180468 l 31.816603448926696 -11.254010600481406" fill="#82ff25" stroke="none" /><path d="M 80.20201598880116 107.00284435728193 l -25.38839580430255 8.98025698970319 a47.92982839004067,47.92982839004067 0 0,0 -0.2684279661898258,-0.7801773180934038 l 25.539214601435607 -8.541906968520488" fill="#d6ff1c" stroke="none" /><path d="M 80.0844068197444 106.66101706037122 l -24.76242546955618 8.282100212431017 a47.11074298184704,47.11074298184704 0 0,0 -0.25060166911686493,-0.7712726314296185 l 24.901319389689295 -7.854628681023595" fill="#e1ff1b" stroke="none" /><path d="M 79.86692584326677 105.97154293290107 l -24.456063177630433 7.253757180749274 a46.50913599841286,46.50913599841286 0 0,0 -0.22104543927176956,-0.769488172542316 l 24.577301253788306 -6.831711532702362" fill="#e8ff1a" stroke="none" /><path d="M 79.4281124754447 104.21870165774334 l -61.715662573665874 12.656104973230022 a84.0,84.0 0 0,0 -0.2782802680973342,-1.4189450917281805 l 61.92437277473888 -11.591896154433886" fill="#4dd2ff" stroke="none" /><path d="M 79.29508885075956 103.50808413554451 l -23.93316026583364 4.055054341302752 a45.27425850610058,45.27425850610058 0 0,0 -0.12357338429348068,-0.7694915819555234 l 23.99941540448841 -3.6424835296540157" fill="#f9ff18" stroke="none" /><path d="M 79.1416061653843 102.43462659150553 l -8.457156924869377 0.9871334917289665 a29.514571967066757,29.514571967066757 0 0,0 -0.054556559806814446,-0.5051259868076236 l 8.472895786177244 -0.8414111830365608" fill="#ff2203" stroke="none" /><path d="M 79.04373962182676 101.35467743843564 l -41.65350378946617 2.6926112196121736 a62.74044241642695,62.74044241642695 0 0,0 -0.060391108960318164,-1.0783238189388709 l 41.693681249314025 -1.9752156843378652" fill="#30ff37" stroke="none" /><path d="M 79.0235259727143 100.99374915477108 l -41.72198003383649 1.976556324007033 a62.76877293919254,62.76877293919254 0 0,0 -0.04183947355695026,-1.0796909029832604 l 41.74982164024464 -1.2580881740097758" fill="#30ff37" stroke="none" /><line stroke="#e1ed5e" stroke-width="0.3" x1="15.007084014347285" x2="10.007500721073583" y1="101.09737516637583" y2="101.16192664675087" /><path d="M 14.007167355692545 101.11028546245083 a86.0,86.0 0 0,1 10.666146001902534,-42.60595125391555" fill="none" id="id22" stroke="none" /><text fill="#e1ed5e" style="font-size:6.75px; font-family:Arial;" text-anchor="middle"><textPath startOffset="22.20632615414155" xlink:href="#id22">October</textPath></text><path d="M 79.00019446554 99.90962569577889 l -27.704494959438957 -0.11922845912302459 a48.70475151274675,48.70475151274675 0 0,0 0.010824034697305801,-0.8383334158110634 l 27.698337917623938 0.5960981329945598" fill="#ccff1d" stroke="none" /><path d="M 79.03285615573316 98.82574320788736 l -30.919725604368608 -1.731647289247595 a51.96817776014285,51.96817776014285 0 0,0 0.057707961521149057,-0.8927166225837978 l 30.88533705184305 2.2636229760844047" fill="#a4ff21" stroke="none" /><path d="M 79.05617556472873 98.46500227214037 l -24.40170573574398 -1.7884299486958168 a45.467156036107525,45.467156036107525 0 0,0 0.06392577386788303,-0.7800563592358045 l 24.3673054780566 2.2082002251393997" fill="#f6ff19" stroke="none" /><path d="M 79.12142395522702 97.74499172005258 l -24.94410969975656 -2.694109683928854 a46.08917766094633,46.08917766094633 0 0,0 0.0919800555297684,-0.7880289445057468 l 24.894039291223205 3.1230823667594625" fill="#eeff19" stroke="none" /><path d="M 79.21141760316559 97.0276538004421 l -39.962497596295414 -5.713827695787383 a61.368911814304134,61.368911814304134 0 0,0 0.15851913295091324,-1.044443026379225 l 39.8582225699052 6.4008698345587" fill="#38ff2e" stroke="none" /><path d="M 79.26566170972629 96.67025291283419 l -25.036286704908818 -4.02060107065118 a46.357067751215155,46.357067751215155 0 0,0 0.1333055727084183,-0.7867770361209097 l 24.96336927068018 4.450963895087918" fill="#eaff1a" stroke="none" /><path d="M 79.32604984820605 96.31383870115002 l -25.00110369016168 -4.457691934756487 a46.39539728201567,46.39539728201567 0 0,0 0.14695029829179268,-0.7850143694825494 l 24.920667667960025 4.887384381701609" fill="#eaff1a" stroke="none" /><path d="M 79.54389044137918 95.25157060432595 l -36.70858093039127 -8.521077982293605 a58.68459478226367,58.68459478226367 0 0,0 0.23688232226291867,-0.9820301562176839 l 36.55646580786754 9.151693370170685" fill="#55ff2b" stroke="none" /><path d="M 79.71946130924805 94.55025226153421 l -40.38806613982108 -10.853004225517227 a62.82085110604107,62.82085110604107 0 0,0 0.2896137843497925,-1.041894873801701 l 40.195265584904924 11.54661040273787" fill="#30ff38" stroke="none" /><path d="M 79.81627453868168 94.20196356495316 l -26.741183811770632 -7.681751238346662 a48.82265648249182,48.82265648249182 0 0,0 0.23898481779719297,-0.8057379998952496 l 26.604993096861733 8.140918624988451" fill="#cbff1d" stroke="none" /><path d="M 79.91906864156998 93.8553929516997 l -15.110597073581832 -4.623723851502476 a36.80218232318222,36.80218232318222 0 0,0 0.1905731196670862,-0.6041688681458011 l 15.028768470146542 4.883142886074691" fill="#ff900d" stroke="none" /><path d="M 80.14247586403 93.16781622104843 l -39.570859127335986 -13.614757811586378 a62.84751512746751,62.84751512746751 0 0,0 0.36076544416071893,-1.0199324918395427 l 39.330640602365456 14.293887929852533" fill="#30ff38" stroke="none" /><path d="M 80.2630227832202 92.82701384747504 l -25.815676439342834 -9.38216058029596 a48.46769169725225,48.46769169725225 0 0,0 0.2917187541166879,-0.7816612275930679 l 25.65035309672452 9.82514494491837" fill="#cfff1d" stroke="none" /><path d="M 80.38941819471856 92.48833698450439 l -20.744303368233325 -7.94592521224503 a43.21404622557286,43.21404622557286 0 0,0 0.27205598317769014,-0.6923528026225937 l 20.604453835173945 8.301827019763389" fill="#ffea16" stroke="none" /><path d="M 80.52162464483688 92.15188598940014 l -25.455015633765505 -10.256187243174743 a48.44352742783454,48.44352742783454 0 0,0 0.3182931521797488,-0.7707721147896196 l 25.274700794699555 10.692833928417674" fill="#cfff1d" stroke="none" /><path d="M 80.65960295795068 91.81776055985345 l -24.99344871590138 -10.57384609963824 a48.13814105743478,48.13814105743478 0 0,0 0.3294237181360409,-0.760355360322003 l 24.80773428792266 11.002500604546842" fill="#d3ff1c" stroke="none" /><path d="M 81.10775173730289 90.83032412892265 l -38.19416277578858 -18.538190264664102 a63.45537149092351,63.45537149092351 0 0,0 0.485403335920873,-0.9785435055034255 l 37.86939942691429 19.19289335866649" fill="#31ff40" stroke="none" /><path d="M 81.26839172434947 90.50648371742162 l -24.750027004430613 -12.54375923856205 a48.747247296895154,48.747247296895154 0 0,0 0.38577774572167167,-0.7451998141440224 l 24.53043982554883 12.967931774966408" fill="#ccff1d" stroke="none" /><path d="M 81.6062741919709 89.86733742301443 l -24.38423077508805 -13.432688147143198 a48.83932149588335,48.83932149588335 0 0,0 0.41197679083133665,-0.7328607412833041 l 24.149396342964284 13.850432398361285" fill="#caff1d" stroke="none" /><line stroke="#e1ed5e" stroke-width="0.3" x1="26.266209847984243" x2="21.928928074336255" y1="57.711370442889674" y2="55.22380399835377" /><path d="M 25.398753493254645 57.213857153982495 a86.0,86.0 0 0,1 29.58750427330803,-30.492523968695096" fill="none" id="id23" stroke="none" /><text fill="#e1ed5e" style="font-size:6.75px; font-family:Arial;" text-anchor="middle"><textPath startOffset="21.46611528233685" xlink:href="#id23">November</textPath></text><path d="M 81.96595687620814 89.24020034530311 l -23.9639356093335 -14.29780023949892 a48.90514829877988,48.90514829877988 0 0,0 0.43754784513383016,-0.7192136119404974 l 23.714271965913454 14.708181624646492" fill="#caff1d" stroke="none" /><path d="M 82.15384107792192 88.93136811851018 l -23.1215833430475 -14.340581391145577 a48.207717488344414,48.207717488344414 0 0,0 0.44344765079614445,-0.7014276893758183 l 22.871308096005393 14.736456728235611" fill="#d2ff1c" stroke="none" /><path d="M 82.34701348167596 88.62581576622439 l -23.955948493728823 -15.435312964164643 a49.498006150183514,49.498006150183514 0 0,0 0.46764623634622693,-0.7122573013194191 l 23.686705622024675 15.84538832946173" fill="#c2ff1e" stroke="none" /><path d="M 82.54541684631803 88.32363383020206 l -18.364278420911855 -12.28491321727456 a43.094474754488644,43.094474754488644 0 0,0 0.41776098689857166,-0.6130126992754291 l 18.15009296834454 12.599203939820406" fill="#ffe815" stroke="none" /><path d="M 82.95767976084542 87.72973835380427 l -20.81594063771037 -14.98722207141527 a46.64995536157127,46.64995536157127 0 0,0 0.47480188501608883,-0.6476292375688601 l 20.554876140180646 15.34331375265563" fill="#e6ff1a" stroke="none" /><path d="M 83.17141714833178 87.43820079747576 l -27.57610612471755 -20.584354070661476 a55.411586152167445,55.411586152167445 0 0,0 0.577135575324934,-0.7594427660558989 l 27.217694609168507 21.0559816125984" fill="#7bff26" stroke="none" /><path d="M 83.39014120810768 87.1503855733568 l -22.30640931139322 -17.25654398905529 a49.20220216248388,49.20220216248388 0 0,0 0.5239938923538101,-0.6654190308764393 l 22.006061338445438 17.63795541388478" fill="#c6ff1e" stroke="none" /><path d="M 83.6137871275137 86.86637796730984 l -22.384467285942197 -17.941249453088258 a49.68715405217736,49.68715405217736 0 0,0 0.54064712501691,-0.6627694484350859 l 22.072321668848893 18.323903071131426" fill="#c0ff1e" stroke="none" /><path d="M 84.07557802195018 86.31012108654704 l -31.81661915614404 -27.352054867890498 a62.95750421585159,62.95750421585159 0 0,0 0.7135427739145188,-0.815702738924802 l 31.341084518651677 27.895673163018245" fill="#30ff39" stroke="none" /><path d="M 84.31358615837235 86.03803664274999 l -21.050075037152954 -18.73598257086383 a49.18053764507489,49.18053764507489 0 0,0 0.5682842960714011,-0.627513713456309 l 20.724447100465508 19.095549071589694" fill="#c6ff1e" stroke="none" /><path d="M 84.5562425177563 85.77008943001954 l -7.039387524145403 -6.48610644470392 a30.57196706675925,30.57196706675925 0 0,0 0.35992329954980545,-0.383941081033403 l 6.9266969026251415 6.606316942615374" fill="#ff3204" stroke="none" /><path d="M 84.80347519578584 85.50635884689758 l -30.27818251289403 -28.8777281492892 a62.84126574744569,62.84126574744569 0 0,0 0.7533043953695832,-0.7763463967541444 l 29.77661385382133 29.394638741593468" fill="#30ff38" stroke="none" /><path d="M 85.05521093208273 85.24692304244772 l -19.10460239244618 -18.85952809760702 a47.84525344707866,47.84525344707866 0 0,0 0.5836305269077622,-0.5811242319480496 l 18.777136065371103 19.185588180205176" fill="#d7ff1c" stroke="none" /><path d="M 85.57189188830299 84.74124197986013 l -18.866314961649643 -19.952479736284463 a48.45977581589128,48.45977581589128 0 0,0 0.6110365042436525,-0.5678918375305501 l 18.520070573611136 20.274276159889663" fill="#cfff1d" stroke="none" /><path d="M 86.37877921826538 84.01681056812374 l -24.269040268728123 -28.477379095496705 a58.41587144132527,58.41587144132527 0 0,0 0.7709294519966119,-0.6456312453030212 l 23.7752532797724 28.89091149819354" fill="#58ff2a" stroke="none" /><path d="M 86.65592168130627 83.78471172551755 l -17.10519964938873 -20.78568011091875 a47.91899613133617,47.91899613133617 0 0,0 0.6414222360342594,-0.5186521736131546 l 16.74487401478997 21.07703838179604" fill="#d6ff1c" stroke="none" /><path d="M 86.93701828274178 83.55741782278169 l -17.082819221799294 -21.50241537136241 a48.46227556790001,48.46227556790001 0 0,0 0.6576271828449647,-0.5132884473200202 l 16.710159483794904 21.79328220790565" fill="#cfff1d" stroke="none" /><path d="M 87.51073957382395 83.11751280151077 l -16.762195572479108 -22.65847155992058 a49.184703898422775,49.184703898422775 0 0,0 0.6849665247069596,-0.4976573104596424 l 16.369683731418366 22.94364810519689" fill="#c6ff1e" stroke="none" /><path d="M 87.80319425747018 82.90503203632743 l -24.44007089786723 -34.2550531547834 a63.079992064279345,63.079992064279345 0 0,0 0.88933435074014,-0.6230355463077025 l 23.84680540754343 34.67067354385504" fill="#31ff3b" stroke="none" /><path d="M 88.39885842347998 82.49532879139004 l -23.854552476080585 -35.99353521962446 a64.18071619878981,64.18071619878981 0 0,0 0.9261368246197075,-0.60238515290443 l 23.231448625676588 36.39881929668843" fill="#32ff49" stroke="none" /><path d="M 88.70189139769569 82.29822771554957 l -21.59540270387876 -33.835477645975125 a61.139767880170616,61.139767880170616 0 0,0 0.892002566994811,-0.5585719256196804 l 21.00978098451171 34.202193912917735" fill="#3bff2e" stroke="none" /><path d="M 89.00827224532344 82.1063720568725 l -16.441470207153927 -26.76536003174369 a52.41188374169229,52.41188374169229 0 0,0 0.7727955898770661,-0.4656006960320651 l 15.97831255105921 27.044407337234375" fill="#9eff22" stroke="none" /><line stroke="#e1ed5e" stroke-width="0.3" x1="56.762969772571076" x2="54.21961505331055" y1="26.818313649435495" y2="22.513508569990535" /><path d="M 56.25429882871897 25.957352633546506 a86.0,86.0 0 0,1 42.265352541879196,-11.944610805530505" fill="none" id="id24" stroke="none" /><text fill="#e1ed5e" style="font-size:6.75px; font-family:Arial;" text-anchor="middle"><textPath startOffset="22.20632615414155" xlink:href="#id24">December</textPath></text><path d="M 89.63071344664047 81.73862282372117 l -13.881328216665821 -24.446442768054094 a49.112627715504416,49.112627715504416 0 0,0 0.7387379056047837,-0.411106844654505 l 13.458466221988992 24.681765010268784" fill="#c7ff1e" stroke="none" /><path d="M 89.94658935756843 81.56283822128135 l -13.337199012970073 -24.459370518423505 a48.859319511953174,48.859319511953174 0 0,0 0.7418588595067854,-0.39627531054922793 l 12.914195106934983 24.685324555474484" fill="#caff1d" stroke="none" /><path d="M 90.58718382345135 81.22770947309562 l -7.0609660242333225 -14.081918006403768 a36.753020533677216,36.753020533677216 0 0,0 0.5679719613016221,-0.27870137473555934 l 6.817522795921275 14.201374541274157" fill="#ff8f0d" stroke="none" /><path d="M 90.91171255644093 81.06846463323043 l -18.138891084406026 -37.78457274937774 a62.91292530502927,62.91292530502927 0 0,0 0.9803085690802763,-0.46026801768600367 l 17.48580430402614 38.09120574970375" fill="#30ff39" stroke="none" /><path d="M 91.23893434514133 80.91482961587045 l -14.437812094451655 -31.4514369201016 a55.606983434183114,55.606983434183114 0 0,0 0.8733417845102593,-0.39184300140777467 l 13.894288191474622 31.695300252025902" fill="#78ff26" stroke="none" /><path d="M 91.56875222667455 80.76684994638697 l -11.258948271451958 -25.683629205608423 a49.04305128459478,49.04305128459478 0 0,0 0.776085833780654,-0.33227945175797297 l 10.815178679880995 25.87362818532918" fill="#c8ff1d" stroke="none" /><path d="M 91.90106846888425 80.62456947434976 l -10.854544580587737 -25.967804963005687 a49.14512449161789,49.14512449161789 0 0,0 0.7833174237348405,-0.31953484507063307 l 10.405943287264515 26.150800694259896" fill="#c7ff1e" stroke="none" /><path d="M 92.57280143429618 80.3572730644239 l -16.41572231744468 -43.414693720559306 a67.41456204741593,67.41456204741593 0 0,0 1.0889624260373922,-0.401074051641527 l 15.665977565634716 43.690831040007154" fill="#36ff73" stroke="none" /><path d="M 93.25333710446033 80.11325718540243 l -13.455580350417849 -39.662225605909434 a62.88251165558972,62.88251165558972 0 0,0 1.0280307824717076,-0.338925585881977 l 12.770866745703731 39.88796491605064" fill="#30ff38" stroke="none" /><path d="M 93.59665428221793 80.00007090966166 l -4.728350909946413 -14.768323792131598 a36.50679496081738,36.50679496081738 0 0,0 0.6001276007583056,-0.1864625668270752 l 4.473437936477379 14.847526493841197" fill="#ff8c0c" stroke="none" /><path d="M 94.28887869178378 79.79150937346287 l -5.668745365963023 -20.05854567079216 a41.844182124789214,41.844182124789214 0 0,0 0.6948168871724276,-0.18991970212419682 l 5.322630589566873 20.153151913742654" fill="#ffd714" stroke="none" /><path d="M 94.98787191387505 79.60689891045804 l -8.280924566140532 -33.693019988788315 a55.695724630493004,55.695724630493004 0 0,0 0.9329731744030862,-0.22080460722690098 l 7.6997277047749115 33.83057050815609" fill="#77ff27" stroke="none" /><path d="M 95.33964822691252 79.52364482259891 l -7.288566424447167 -32.0240364049143 a53.84299176668981,53.84299176668981 0 0,0 0.9054782997975511,-0.19790248507255978 l 6.736245400496094 32.14475238808273" fill="#8dff24" stroke="none" /><path d="M 95.692805502759 79.44645832069477 l -6.504671209691152 -31.039701342533334 a52.71393710941375,52.71393710941375 0 0,0 0.8896947619434797,-0.1784643994320969 l 5.969410038280535 31.147069698042642" fill="#9bff22" stroke="none" /><path d="M 96.04723909329186 79.375362276772 l -6.006894805930697 -31.342656977711375 a52.91308401944251,52.91308401944251 0 0,0 0.8960071826098231,-0.1637395854881678 l 5.466492502217981 31.44141204455028" fill="#98ff23" stroke="none" /><path d="M 97.11714578562143 79.19881850522333 l -6.063631007919879 -43.752017873122284 a65.17020136891182,65.17020136891182 0 0,0 1.1125027300443777,-0.14443478340190619 l 5.3096135493676435 43.84991097968833" fill="#33ff56" stroke="none" /><path d="M 97.83486435360386 79.11191278185805 l -2.4109228930716475 -23.259312990628963 a44.38393016565817,44.38393016565817 0 0,0 0.7606029156000981,-0.07222841169941051 l 2.010194850381313 23.297366946843553" fill="#fffa17" stroke="none" /><path d="M 98.19473922651362 79.07773832637324 l -2.613285539097456 -30.286950605651235 a51.39948417815693,51.39948417815693 0 0,0 0.882137064739202,-0.06847081397772505 l 2.09155828499592 30.32744668181742" fill="#abff21" stroke="none" /></svg>