<?xml version="1.0" encoding="utf-8" ?>
<svg baseProfile="full" height="200mm" version="1.1" viewBox="0,0,200,200" width="200mm" xmlns="http://www.w3.org/2000/svg" xmlns:ev="http://www.w3.org/2001/xml-events" xmlns:xlink="http://www.w3.org/1999/xlink"><defs /><rect fill="#1a1a1a" height="200" width="200" x="0" y="0" /><text alignment-baseline="middle" fill="#e1ed5e" style="dominant-baseline: central; font-size:9.0px; font-family:Arial;" text-anchor="middle" x="100.0" y="100.0">2024</text><line stroke="#e1ed5e" stroke-width="0.3" x1="100.0" x2="100.0" y1="15.0" y2="10.0" /><path d="M 100.0 14.0 a86.0,86.0 0 0,1 42.35913384403234,11.155469271406648" fill="none" id="id49" stroke="none" /><text fill="#e1ed5e" style="font-size:6.75px; font-family:Arial;" text-anchor="middle"><textPath startOffset="22.145653131862478" xlink:href="#id49">January</textPath></text><path d="M 100.0 79.0 l 0.0 -17.946083321457408 a38.94608332145741,38.94608332145741 0 0,0 0.6685613089504467,0.005738794757629971 l -0.308068384101592 17.943438924894213" fill="#ff7d0b" stroke="none" /><path d="M 100.72087961077811 79.0123766808444 l 1.0183153623345762 -29.647140694850158 a50.66462400836065,50.66462400836065 0 0,0 0.8689567817455194,0.03731674309906296 l -1.5270979046809319 29.625291383325262" fill="#d4ff1c" stroke="none" /><path d="M 101.08105385017728 79.02784411241856 l 1.1175665710682585 -21.68049291841468 a42.70927746900385,42.70927746900385 0 0,0 0.7318654625506099,0.04402720884478041 l -1.4895763857513307 21.658113731745207" fill="#ffb711" stroke="none" /><path d="M 101.44090949804482 79.04949213459386 l 1.4214016738586583 -20.666868383118317 a41.71569046601111,41.71569046601111 0 0,0 0.7139958360877896,0.055267793338456196 l -1.7759665047216815 20.639422822784805" fill="#ffa80f" stroke="none" /><path d="M 101.80034050326958 79.07731436759882 l 2.4577400278471657 -28.56266460451633 a49.668210536316565,49.668210536316565 0 0,0 0.8488544022556722,0.08038739444420659 l -2.9476939934878508 28.516265454566938" fill="#e2ff1b" stroke="none" /><path d="M 102.51750503828377 79.15144685158666 l 2.543017733238906 -21.059834861316677 a42.212816493278225,42.212816493278225 0 0,0 0.7186675284191021,0.09304589977901918 l -2.9041630835487995 21.01307736533726" fill="#ffaf10" stroke="none" /><path d="M 102.87502721639298 79.19773525538626 l 2.72001529816553 -19.680675723420602 a40.86774975060567,40.86774975060567 0 0,0 0.6941190631594741,0.10201159898174357 l -3.0574594669326864 19.631083051139978" fill="#ff9b0e" stroke="none" /><path d="M 103.94208987418118 79.37332000966035 l 6.235197305624171 -32.62518704661754 a54.21566671417035,54.21566671417035 0 0,0 0.912639462987692,0.18255345255639666 l -6.79433325414282 32.51334419739829" fill="#a4ff21" stroke="none" /><path d="M 104.29559338865022 79.4440306129975 l 4.718772560937952 -22.581034918984145 a44.06880908270391,44.06880908270391 0 0,0 0.7391757530363989,0.16109991500298618 l -5.105710730593485 22.496703545847442" fill="#ffcb13" stroke="none" /><path d="M 104.64783097203109 79.52079915486377 l 6.276003261459038 -27.653228370304458 a49.356467626241034,49.356467626241034 0 0,0 0.8246474997631563,0.19461456454537554 l -6.749782914962079 27.541417662112856" fill="#e6ff1a" stroke="none" /><path d="M 104.9986988182912 79.60360301121754 l 4.78182179325489 -19.51146471716806 a41.08887938815258,41.08887938815258 0 0,0 0.6836303316914621,0.17377615700035332 l -5.116057418171747 19.426503328332437" fill="#ff9e0e" stroke="none" /><path d="M 105.69591212413111 79.78721728523813 l 6.427957644621192 -22.810554014690055 a44.698945418269915,44.698945418269915 0 0,0 0.7367663054112041,0.21446193375801706 l -6.818583962414001 22.696848386629522" fill="#ffd513" stroke="none" /><path d="M 106.04205211174951 79.88797359093562 l 3.707768571006859 -12.341955686508724 a33.88686998242363,33.88686998242363 0 0,0 0.5556791000527979,0.17215080563226057 l -3.9190883039312867 12.276488293069816" fill="#ff2a04" stroke="none" /><path d="M 106.38641147887787 79.99465700312896 l 7.900520798585553 -24.74826887562028 a46.97874210251294,46.97874210251294 0 0,0 0.7661500468581607,0.2518487380758554 l -8.324193583091455 24.608999216142404" fill="#fff617" stroke="none" /><path d="M 106.72888874123014 80.10723608172694 l 11.401808056609134 -33.707419550843184 a56.583582727661394,56.583582727661394 0 0,0 0.917446824561043,0.3191356299594785 l -11.978760653215195 33.50672548831511" fill="#86ff25" stroke="none" /><path d="M 107.40779381753099 80.34994680014964 l 7.978806125794112 -21.16473118786157 a43.61873545199753,43.61873545199753 0 0,0 0.6983727968532648,0.2701456005792436 l -8.340951185140902 21.02464569914429" fill="#ffc512" stroke="none" /><path d="M 107.74402155503746 80.48000691201159 l 7.915694004122265 -19.952719804426003 a42.465536079046124,42.465536079046124 0 0,0 0.6752941107978039,0.27463623598696385 l -8.257042576110509 19.813896311859747" fill="#ffb310" stroke="none" /><path d="M 108.07796709384702 80.6158196554323 l 8.759221392800823 -21.018942660137306 a43.77103225499976,43.77103225499976 0 0,0 0.6910923342543657,0.2949862226027845 l -9.11874880222562 20.86548178787512" fill="#ffc712" stroke="none" /><path d="M 108.73861861582097 80.90454125486305 l 11.862924186840893 -25.92263026519851 a49.508099377701775,49.508099377701775 0 0,0 0.7697596762662261,0.3602863959371861 l -12.306172576978625 25.71516763769079" fill="#e4ff1a" stroke="none" /><path d="M 109.06512990194946 81.05736502329252 l 11.39726242957242 -23.815895003413527 a47.402546197330295,47.402546197330295 0 0,0 0.7309918449946092,0.35756474185534864 l -11.804414523829097 23.616736511460957" fill="#fffc17" stroke="none" /><path d="M 109.71004243097381 81.37971332152246 l 14.400700348458862 -27.615241721684562 a52.1445299510712,52.1445299510712 0 0,0 0.7901415536182658,0.4207058724017271 l -14.872630717863688 27.363965381560263" fill="#c0ff1e" stroke="none" /><line stroke="#e1ed5e" stroke-width="0.3" x1="143.13028292997686" x2="145.6673583964461" y1="26.7553504044142" y2="22.446841604673864" /><path d="M 143.63769802327073 25.89364864446614 a86.0,86.0 0 0,1 29.32050498858742,28.57503671076993" fill="none" id="id50" stroke="none" /><text fill="#e1ed5e" style="font-size:6.75px; font-family:Arial;" text-anchor="middle"><textPath startOffset="20.669276256404974" xlink:href="#id50">February</textPath></text><path d="M 110.65571695917076 81.90426304109057 l 12.724498262297963 -21.608979890412105 a46.07709847513182,46.07709847513182 0 0,0 0.6781391338828877,0.4072030653767679 l -13.093570152738284 21.387362824499416" fill="#ffe915" stroke="none" /><path d="M 110.96478420261332 82.08984904055464 l 10.541926508988874 -17.219444695899217 a41.190133485345115,41.190133485345115 0 0,0 0.5998771599885027,0.37436771455575124 l -10.835967797767088 17.03594118450192" fill="#ffa00e" stroke="none" /><path d="M 111.5731344415666 82.4767994020092 l 14.519974471139413 -21.985091992160367 a47.34718065650088,47.34718065650088 0 0,0 0.674367499166728,0.45374454950463244 l -14.895238258403143 21.732597768598616" fill="#fffc17" stroke="none" /><path d="M 114.65682725009322 84.96080404539774 l 14.255321206949402 -14.627215383584861 a41.42473041660729,41.42473041660729 0 0,0 0.5050031282423605,0.500686888124943 l -14.504316255321726 14.380348485231258" fill="#ffa30f" stroke="none" /><path d="M 115.16444852881244 85.47280134310134 l 20.37318314928968 -19.517048596971904 a49.21314901904897,49.21314901904897 0 0,0 0.5791782230250502,0.6150672020511242 l -20.70521720605099 19.164439934976283" fill="#e8ff1a" stroke="none" /><path d="M 115.8921839302757 86.27271002978787 l 17.789467048137315 -15.366117939277956 a44.50707804854876,44.50707804854876 0 0,0 0.4944639652923664,0.5824773078024558 l -18.050625576936792 15.058473849025948" fill="#ffd213" stroke="none" /><path d="M 116.1254893667686 86.54754324733833 l 13.895987832305623 -11.592527277642823 a39.09655123272053,39.09655123272053 0 0,0 0.42550672100182063,0.5190490131971603 l -14.092941372546072 11.352275982747168" fill="#ff7f0b" stroke="none" /><path d="M 116.57777611688842 87.10902102172516 l 23.74643774778648 -18.465373621723426 a51.08094627333618,51.08094627333618 0 0,0 0.5323316231805008,0.6968391828179488 l -24.059921348321286 18.055013525664595" fill="#ceff1d" stroke="none" /><path d="M 116.7966241395341 87.39550010848427 l 13.762071812328523 -10.327315252428933 a38.20604721865945,38.20604721865945 0 0,0 0.3891522066550594,0.5279597071728771 l -13.937326038567408 10.089549235987182" fill="#ff710a" stroke="none" /><path d="M 117.21940702142032 87.97951657250589 l 16.47231384708669 -11.498954369629338 a41.08887938815258,41.08887938815258 0 0,0 0.3987778724791783,0.5818288335682289 l -16.66728145638119 11.214490800991062" fill="#ff9e0e" stroke="none" /><path d="M 117.42321728460499 88.27688183743584 l 15.127820901093312 -10.178673035451693 a39.233385587383026,39.233385587383026 0 0,0 0.3711768997434709,0.5620091345508182 l -15.300322239757506 9.917484022561815" fill="#ff810b" stroke="none" /><path d="M 117.62189284568427 88.57770195909679 l 12.97149672568721 -8.407967460413088 a36.45812550472661,36.45812550472661 0 0,0 0.33590487055464385,0.5280982488279322 l -13.113919287867743 8.184055536906483" fill="#ff5407" stroke="none" /><line stroke="#e1ed5e" stroke-width="0.3" x1="172.87174338648825" x2="177.1583165268699" y1="56.24261187166439" y2="53.66864786411523" /><path d="M 173.72905801456457 55.72781907015455 a86.0,86.0 0 0,1 12.242430191666344,42.057860355516425" fill="none" id="id51" stroke="none" /><text fill="#e1ed5e" style="font-size:6.75px; font-family:Arial;" text-anchor="middle"><textPath startOffset="22.145653131862474" xlink:href="#id51">March</textPath></text><path d="M 118.00360718960297 89.18935116829356 l 18.742960114186687 -11.254609019583988 a42.86240558643294,42.86240558643294 0 0,0 0.3733648013732998,0.6340550580739587 l -18.933398625689755 10.931202793216473" fill="#ffb911" stroke="none" /><path d="M 118.18653347947321 89.5 l 25.995428307844552 -15.008467531233673 a51.01693506246734,51.01693506246734 0 0,0 0.4313764517126335,0.762200856482955 l -26.24923812457856 14.5600099046516" fill="#cfff1d" stroke="none" /><path d="M 118.36410011445183 89.81374322990088 l 15.675043128902558 -8.69468218961218 a38.92496793501496,38.92496793501496 0 0,0 0.3191006783850739,0.5871093071700971 l -15.821989156902974 8.42431804896748" fill="#ff7c0b" stroke="none" /><path d="M 118.53625476483649 90.13048839642627 l 19.2650486555636 -10.257553300906764 a42.82566148876538,42.82566148876538 0 0,0 0.3399377243327453,0.6518754088770886 l -19.43829444887129 9.925331648925177" fill="#ffb911" stroke="none" /><path d="M 118.8641267826498 90.77261029715802 l 20.306275280846787 -9.932816800292942 a43.605434421167644,43.605434421167644 0 0,0 0.32313857436202403,0.6752353388468437 l -20.47379311316872 9.582768959380996" fill="#ffc512" stroke="none" /><path d="M 119.0197475246899 91.09779779509293 l 13.051775821853054 -6.108890107422574 a35.41066932687283,35.41066932687283 0 0,0 0.2529595480434116,0.5527622644048307 l -13.154719834751518 5.883938860803059" fill="#ff4306" stroke="none" /><path d="M 119.31412917781788 91.75594674310238 l 37.758628625977224 -16.11691329358417 a62.05446297088024,62.05446297088024 0 0,0 0.40977858310613774,0.9833194247994745 l -38.02973305361984 15.466361359343416" fill="#43ff2d" stroke="none" /><path d="M 119.58574465831526 92.42381321644754 l 23.292903443696353 -9.010195440578947 a45.97484680062705,45.97484680062705 0 0,0 0.27840903949388546,0.7385130542412213 l -23.44414316700468 8.609014106143569" fill="#ffe815" stroke="none" /><path d="M 119.71291397450082 92.76114493625339 l 19.912686985184095 -7.312214480414033 a42.212816493278225,42.212816493278225 0 0,0 0.24394953483764162,0.6823702662940498 l -20.035276690065682 6.9693092577390665" fill="#ffaf10" stroke="none" /><path d="M 119.83427380445688 93.10060997987247 l 26.40000165616739 -9.18329099182762 a48.95161750035628,48.95161750035628 0 0,0 0.2692678789954522,0.7960426384834759 l -26.553754956735208 8.728746678869983" fill="#ecff1a" stroke="none" /><path d="M 119.94978838288452 93.4421083053983 l 16.559275205149504 -5.443362668931334 a38.43100090256995,38.43100090256995 0 0,0 0.20063779556751155,0.6284950369607988 l -16.650277716494273 5.158298598279147" fill="#ff740a" stroke="none" /><path d="M 120.26092885502905 94.47779374421319 l 32.89589728246099 -8.965923085892303 a55.095862429338275,55.095862429338275 0 0,0 0.2408752254832715,0.9146424652981708 l -33.044961988748994 8.399900116221334" fill="#99ff23" stroke="none" /><path d="M 120.35273937422433 94.82641323984039 l 11.417779470804343 -2.902354892599161 a32.780889268918344,32.780889268918344 0 0,0 0.1339528186267357,0.5465732115085126 l -11.46591981594737 2.7059258564825535" fill="#ff1702" stroke="none" /><path d="M 120.43855184770803 95.1765574152323 l 19.573797829101224 -4.6193629909796154 a41.111491140563395,41.111491140563395 0 0,0 0.15620240277072303,0.6882566078853328 l -19.650211093429615 4.282672049155256" fill="#ff9e0e" stroke="none" /><path d="M 120.592083275326 95.88100663000786 l 13.89418644381983 -2.7792264181498885 a35.16942188019571,35.16942188019571 0 0,0 0.11333548461551811,0.5930191465256441 l -13.939848220717506 2.5403047065909297" fill="#ff3f05" stroke="none" /><path d="M 120.65975698304385 96.23510406497455 l 21.35754270414708 -3.8920557378758196 a42.70927746900385,42.70927746900385 0 0,0 0.12525041179540033,0.7224110912341773 l -21.421207933434715 3.5248516137210495" fill="#ffb711" stroke="none" /><path d="M 120.7213421655516 96.59031103205396 l 33.97564485027823 -5.590679430864107 a55.43254477221985,55.43254477221985 0 0,0 0.14644356528293168,0.9402727406418674 l -34.06660990769942 5.006618508290798" fill="#94ff23" stroke="none" /><path d="M 120.82617615685814 97.30363454192243 l 20.07759066011106 -2.5994460783199016 a41.24516650040378,41.24516650040378 0 0,0 0.08488238323906004,0.7029478993733876 l -20.119255129609783 2.254404502023101" fill="#ffa10e" stroke="none" /><path d="M 120.9064616781168 98.02013634271609 l 27.335348441833933 -2.5886859178962944 a48.45765046791126,48.45765046791126 0 0,0 0.07131668707344108,0.8288080067476489 l -27.375758751605115 2.1190568637729834" fill="#f3ff19" stroke="none" /><path d="M 120.93736805541906 98.37931529534042 l 22.67029638543783 -1.7548243172077633 a43.738112203695785,43.738112203695785 0 0,0 0.05151941152558647,0.7490809366254646 l -22.69707975812848 1.3653999564279644" fill="#ffc712" stroke="none" /><path d="M 120.98066250479742 99.09900007780936 l 16.76097563632428 -0.7197884118632712 a37.77642392285402,37.77642392285402 0 0,0 0.022261670008812982,0.6481242326940199 l -16.77086199332994 0.43195791460513144" fill="#ff6a09" stroke="none" /><path d="M 120.99303781780057 99.45929381324524 l 18.085232989665563 -0.4658114490758348 a39.09123082038858,39.09123082038858 0 0,0 0.011519940753538545,0.6709787956082928 l -18.090564362017766 0.15528573749847566" fill="#ff7f0b" stroke="none" /><line stroke="#e1ed5e" stroke-width="0.3" x1="184.99686870605535" x2="189.99668451229388" y1="99.2704041080226" y2="99.22748670261217" /><path d="M 185.99683186730306 99.26182062694052 a86.0,86.0 0 0,1 -10.086455211305974,41.156179273409016" fill="none" id="id52" stroke="none" /><text fill="#e1ed5e" style="font-size:6.75px; font-family:Arial;" text-anchor="middle"><textPath startOffset="21.40746469413373" xlink:href="#id52">April</textPath></text><path d="M 120.99303781780057 100.54070618675476 l 24.955929530702722 0.642776219934442 a45.96420597596313,45.96420597596313 0 0,0 -0.027086735042571163,0.7886007365440182 l -24.941218108663307 -1.071083221042571" fill="#ffe715" stroke="none" /><path d="M 120.98066250479742 100.90099992219065 l 29.118048652605253 1.2504542963951573 a50.14488622868272,50.14488622868272 0 0,0 -0.04431473263263568,0.8596939742971674 l -29.092292330516045 -1.7501200640690553" fill="#dbff1b" stroke="none" /><path d="M 120.96210409425399 101.26102812881392 l 16.287262454688598 0.979801264433517 a37.31670704479597,37.31670704479597 0 0,0 -0.04395559593580596,0.6391047179793717 l -16.268042897587726 -1.2592494065672322" fill="#ff6209" stroke="none" /><path d="M 120.93736805541906 101.62068470465957 l 18.950650431995015 1.4669001957261467 a40.00733931879721,40.00733931879721 0 0,0 -0.058880091611726484,0.684275915895822 l -18.922676717685547 -1.791997158997626" fill="#ff8d0d" stroke="none" /><path d="M 120.86939407059847 102.33845913500097 l 19.728984605685707 2.210673875790992 a40.85245356515129,40.85245356515129 0 0,0 -0.08407418163141926,0.6962548306743089 l -19.688128337794623 -2.5490223833887096" fill="#ff9a0e" stroke="none" /><path d="M 120.82617615685814 102.69636545807757 l 21.40789634023339 2.7716807822593026 a42.586575459598116,42.586575459598116 0 0,0 -0.10008957238411839,0.7241982862067535 l -21.35716225129406 -3.1387673766661415" fill="#ffb510" stroke="none" /><path d="M 120.77682067341334 103.0534771498775 l 27.255163179557446 4.005570404304237 a48.547931214669134,48.547931214669134 0 0,0 -0.128255561122089,0.8234927067354368 l -27.18238612629709 -4.472851292971124" fill="#f1ff19" stroke="none" /><path d="M 120.51834098615036 104.47187691870673 l 39.23771669685357 8.551677728616099 a61.15880480737257,61.15880480737257 0 0,0 -0.23237182589253572,1.02387314036179 l -39.08513400940337 -9.223985202916905" fill="#4dff2c" stroke="none" /><path d="M 120.43855184770803 104.8234425847677 l 19.55179061605284 4.614169348622734 a41.08887938815258,41.08887938815258 0 0,0 -0.16790182728433145,0.6850967519591399 l -19.46970126225221 -4.949121925189973" fill="#ff9e0e" stroke="none" /><path d="M 120.35273937422433 105.17358676015961 l 18.90378340655038 4.8052678192751275 a40.50496413472044,40.50496413472044 0 0,0 -0.1770848470092601,0.672420007954473 l -18.81850907873639 -5.1290683316024035" fill="#ff950d" stroke="none" /><path d="M 120.26092885502905 105.52220625578681 l 23.651706127190344 6.44637767943114 a45.5144648710275,45.5144648710275 0 0,0 -0.21192728607179231,0.7520551741924486 l -23.53756034904397 -6.851440777526597" fill="#ffe115" stroke="none" /><path d="M 119.94978838288452 106.5578916946017 l 35.83841610118678 11.780799213854634 a58.72504869127357,58.72504869127357 0 0,0 -0.3230285353673717,0.9549764664044438 l -35.630902144247045 -12.394277354733237" fill="#6bff28" stroke="none" /><path d="M 119.83427380445688 106.89939002012753 l 17.107387000865657 5.9508372379990915 a39.11284499548715,39.11284499548715 0 0,0 -0.22603467703571078,0.6322592205933002 l -17.002712153786003 -6.243631414973313" fill="#ff7f0b" stroke="none" /><path d="M 119.71291397450082 107.23885506374661 l 19.446029718041146 7.140851468042469 a41.71569046601111,41.71569046601111 0 0,0 -0.2526169443224329,0.670096457513698 l -19.32058208990427 -7.473616205750326" fill="#ffa80f" stroke="none" /><path d="M 119.4528033332814 107.91128576633889 l 21.57972694761972 8.7762870840367 a44.29609044700965,44.29609044700965 0 0,0 -0.29251061586069116,0.7019189933149327 l -21.425890487222542 -9.14543858679291" fill="#ffcf13" stroke="none" /><path d="M 119.31412917781788 108.2440532568976 l 18.386085775444467 7.847926713296263 a40.99095054866753,40.99095054866753 0 0,0 -0.2817954477688411,0.6448031315317874 l -18.24865644565866 -8.162391914603896" fill="#ff9d0e" stroke="none" /><path d="M 119.16976305983485 108.57439118712176 l 25.58366411686001 11.443247548401239 a49.02626953588903,49.02626953588903 0 0,0 -0.3502239076469835,0.7653024435607988 l -25.38345574435797 -11.880738974176726" fill="#ebff1a" stroke="none" /><path d="M 119.0197475246899 108.90220220490707 l 24.417605661041577 11.42867236655497 a47.95985938910266,47.95985938910266 0 0,0 -0.3554070907747828,0.7426641274310356 l -24.217819312306883 -11.84614899605111" fill="#faff18" stroke="none" /><path d="M 118.5362547648365 109.86951160357373 l 55.608764294509484 29.608534810721164 a84.0,84.0 0 0,0 -0.6886186015386442,1.2669806661015868 l -55.092300343355504 -30.558770310297355" fill="#4dd2ff" stroke="none" /><line stroke="#e1ed5e" stroke-width="0.3" x1="174.33088141563837" x2="178.70328620479359" y1="141.23008692659167" y2="143.65538615756765" /><path d="M 175.20536237346943 141.71514677278685 a86.0,86.0 0 0,1 -30.301960400862466,31.631185727798858" fill="none" id="id53" stroke="none" /><text fill="#e1ed5e" style="font-size:6.75px; font-family:Arial;" text-anchor="middle"><textPath startOffset="22.145653131862474" xlink:href="#id53">May</textPath></text><path d="M 118.36410011445183 110.18625677009912 l 11.978843794669864 6.644462725695502 a34.69823286304688,34.69823286304688 0 0,0 -0.293392783295041,0.518396935728814 l -11.863017646353445 -6.849116431523439" fill="#ff3705" stroke="none" /><path d="M 118.18653347947321 110.5 l 20.900129111938437 12.066695168875585 a45.13339033775118,45.13339033775118 0 0,0 -0.3931468401785676,0.6676492847320765 l -20.689908561630105 -12.42369562190121" fill="#ffdb14" stroke="none" /><path d="M 117.81537515405839 111.11811171558189 l 17.028178910532343 10.626843038839196 a41.072086836729845,41.072086836729845 0 0,0 -0.3784153414720186,0.5949317699115876 l -16.843245877434434 -10.917588483429455" fill="#ff9e0e" stroke="none" /><path d="M 117.62189284568427 111.42229804090321 l 21.096017224180816 13.674183489864717 a46.14011210868843,46.14011210868843 0 0,0 -0.4365196505454403,0.660946387523096 l -20.85817313471465 -14.034309755726875" fill="#ffea16" stroke="none" /><path d="M 117.21940702142032 112.02048342749411 l 20.056043459077216 14.000675965266423 a45.45943185596883,45.45943185596883 0 0,0 -0.45218042591038177,0.6360483971490991 l -19.812747934636874 -14.342901589125026" fill="#ffe015" stroke="none" /><path d="M 117.01052211995028 112.31430620078461 l 9.734054655072969 7.046704901383221 a33.016982566148876,33.016982566148876 0 0,0 -0.33629837573024773,0.4562533346512322 l -9.611654259758893 -7.2127645453033296" fill="#ff1b02" stroke="none" /><path d="M 116.79662413953412 112.60449989151573 l 16.067874117487275 12.05763228898294 a41.08887938815258,41.08887938815258 0 0,0 -0.42820095270593667,0.5605287925273186 l -15.858521187427034 -12.331681994751136" fill="#ff9e0e" stroke="none" /><path d="M 116.35404254752997 113.17365903436017 l 18.86516871071142 15.196444518124842 a45.22450239893591,45.22450239893591 0 0,0 -0.49220018436319624,0.600404194292589 l -18.601521707109598 -15.518050994115924" fill="#ffdd14" stroke="none" /><path d="M 116.1254893667686 113.45245675266167 l 14.67924339629408 12.245946926571454 a40.11657403448767,40.11657403448767 0 0,0 -0.44568641979596674,0.5250174818570864 l -14.466862412990999 -12.496131190878097" fill="#ff8f0d" stroke="none" /><path d="M 115.89218393027572 113.72728997021213 l 16.30450548855096 14.083443511867976 a42.54484347536933,42.54484347536933 0 0,0 -0.48215247775007913,0.5486010121700156 l -16.060341946842296 -14.361256801849285" fill="#ffb410" stroke="none" /><path d="M 115.6541949942343 113.99807769240083 l 13.89389436320244 12.424006013579794 a39.63856823903852,39.63856823903852 0 0,0 -0.45792418048222777,0.5033388908592705 l -13.678572481878334 -12.660682479996737" fill="#ff870c" stroke="none" /><path d="M 114.91283532996324 114.78537596483092 l 19.991341387060377 19.82047624807378 a49.15146548857537,49.15146548857537 0 0,0 -0.5991986810727847,0.5940773555979278 l -19.648150785857627 -20.160733613900373" fill="#e9ff1a" stroke="none" /><path d="M 114.65682725009322 115.03919595460226 l 8.976329035071256 9.210504361410406 a33.86109923519072,33.86109923519072 0 0,0 -0.41976075189358014,0.40212130494169346 l -8.816895797312363 -9.363237796657678" fill="#ff2904" stroke="none" /><path d="M 114.39649973595853 115.28858382429668 l 19.682260339218388 20.90187841258175 a49.710275046316085,49.710275046316085 0 0,0 -0.6262789922404493,0.5796744854152958 l -19.320551575663973 -21.236670644129422" fill="#e1ff1b" stroke="none" /><path d="M 114.13192950727249 115.5334660781643 l 14.69885813151322 16.15661994748213 a42.84245404018811,42.84245404018811 0 0,0 -0.5482507493957436,0.4902492007915596 l -14.419342355294098 -16.40656467815708" fill="#ffb911" stroke="none" /><path d="M 113.59037401385872 116.0094264158162 l 14.629348025210684 17.233335188725807 a43.605434421167644,43.605434421167644 0 0,0 -0.5748144484666454,0.47953065689517227 l -14.331359242582142 -17.48192802953285" fill="#ffc512" stroke="none" /><path d="M 113.31354834802062 116.24036423190432 l 15.626917828441254 19.062298849401543 a45.648971545294756,45.648971545294756 0 0,0 -0.6102815997817381,0.4915996572164181 l -15.297385458304262 -19.327746800411365" fill="#ffe315" stroke="none" /><path d="M 113.03279911837588 116.46651593811092 l 8.617335562618107 10.887721977225116 a34.885278609092204,34.885278609092204 0 0,0 -0.472762065275093,0.3676226414337021 l -8.429163552707784 -11.03404567027961" fill="#ff3b05" stroke="none" /><path d="M 112.7482090630111 116.68781488649013 l 21.68434975159133 28.38550990181146 a56.72041708232388,56.72041708232388 0 0,0 -0.7788172730201334,0.5844390010601918 l -21.193879489660432 -28.753567930135667" fill="#84ff25" stroke="none" /><path d="M 112.16784306229584 117.11559508785304 l 11.276443985011914 15.861730652688403 a40.46156952163793,40.46156952163793 0 0,0 -0.5695542175909721,0.39759307768816454 l -11.002494676247183 -16.05296854618169" fill="#ff940d" stroke="none" /><path d="M 111.8722381534696 117.32195027204791 l 12.27924012649165 17.915778314088417 a42.71991829366776,42.71991829366776 0 0,0 -0.6084612444680362,0.40939988004065664 l -11.969882593926611 -18.123927868186193" fill="#ffb711" stroke="none" /><path d="M 111.5731344415666 117.5232005979908 l 10.423847588205952 15.783033819685734 a39.914564628758725,39.914564628758725 0 0,0 -0.5749871086859843,0.3726996970530909 l -10.151374847262959 -15.95964735844272" fill="#ff8c0c" stroke="none" /><path d="M 111.27062007382361 117.71928675628689 l 13.942692011108043 21.920227661050017 a46.97874210251294,46.97874210251294 0 0,0 -0.684180215204064,0.4269790560372651 l -13.564347667114266 -22.15634251392883" fill="#fff617" stroke="none" /><path d="M 110.96478420261333 117.91015095944535 l 8.356279177356209 13.649354037451033 a37.00413282029357,37.00413282029357 0 0,0 -0.5446078727024106,0.32702137970264866 l -8.120738548096362 -13.790789417689606" fill="#ff5d08" stroke="none" /><line stroke="#e1ed5e" stroke-width="0.3" x1="143.1302829299769" x2="145.66735839644613" y1="173.24464959558577" y2="177.55315839532614" /><path d="M 143.63769802327073 174.10635135553383 a86.0,86.0 0 0,1 -40.68552437913181,11.842963189579606" fill="none" id="id54" stroke="none" /><text fill="#e1ed5e" style="font-size:6.75px; font-family:Arial;" text-anchor="middle"><textPath startOffset="21.407464694133747" xlink:href="#id54">June</textPath></text><path d="M 110.34350942703117 118.27599006163325 l 12.047691581295556 21.28711663663831 a45.45993064462496,45.45993064462496 0 0,0 -0.6824527305589945,0.37854502554462166 l -11.680494662580466 -21.490794577616075" fill="#ffe015" stroke="none" /><path d="M 109.71004243097381 118.62028667847754 l 13.114622887152501 25.14901861396007 a49.363118141655974,49.363118141655974 0 0,0 -0.7547215946010548,0.38536622380756463 l -12.680974070837864 -25.37044278944047" fill="#e6ff1a" stroke="none" /><path d="M 109.3889696526874 118.78422872680471 l 9.688688792234487 19.38386777979092 a42.67037195382642,42.67037195382642 0 0,0 -0.6580172674962824,0.32186921919820255 l -9.354511275476135 -19.547330749086342" fill="#ffb610" stroke="none" /><path d="M 108.73861861582097 119.09545874513695 l 13.169849476635981 28.778497885862894 a52.648805282409384,52.648805282409384 0 0,0 -0.8250483892430855,0.36903365031658675 l -12.673887684537268 -29.00033528708933" fill="#b9ff1f" stroke="none" /><path d="M 108.4095320186766 119.2426549942271 l 10.035364222721244 22.96287725052554 a46.059973397938336,46.059973397938336 0 0,0 -0.727231981778065,0.3104120891343695 l -9.639697165772747 -23.131763989319314" fill="#ffe915" stroke="none" /><path d="M 108.07796709384702 119.3841803445677 l 9.40868979365285 22.57743039151257 a45.45943185596883,45.45943185596883 0 0,0 -0.7229035459579976,0.2939985787955184 l -9.019731786504414 -22.73561622688738" fill="#ffe015" stroke="none" /><path d="M 107.74402155503746 119.51999308798841 l 7.332559481534574 18.482839875841 a40.88420977625766,40.88420977625766 0 0,0 -0.6545907310862401,0.25320975699466125 l -7.014196487954805 -18.605989520973704" fill="#ff9b0e" stroke="none" /><path d="M 107.06938296918513 119.77432235084164 l 8.306718086279918 23.235368890278057 a45.675573606954536,45.675573606954536 0 0,0 -0.7405842462714649,0.25761364434935313 l -7.906628067963433 -23.374540967196" fill="#ffe315" stroke="none" /><path d="M 106.72888874123015 119.89276391827305 l 3.3415363364858224 9.878658426724309 a31.428506959289344,31.428506959289344 0 0,0 -0.5125499534874546,0.16848535024700098 l -3.1714636453506335 -9.934564698373329" fill="#ff0000" stroke="none" /><path d="M 106.38641147887787 120.00534299687104 l 6.62415874958302 20.750082936155685 a42.78176808702674,42.78176808702674 0 0,0 -0.7015382182419746,0.2173383332947058 l -6.266979898469421 -20.860737857257035" fill="#ffb811" stroke="none" /><path d="M 105.69591212413111 120.21278271476187 l 4.8276311870574915 17.131559982745774 a38.79877440501639,38.79877440501639 0 0,0 -0.6426159694763622,0.17514784006706965 l -4.532833816646434 -17.211908316956986" fill="#ff7a0b" stroke="none" /><path d="M 105.3480935250658 120.30758222061773 l 5.087391643652173 19.317654713354862 a40.97631941475464,40.97631941475464 0 0,0 -0.6817575765057455,0.17330010995549325 l -4.75502877392103 -19.402140055145626" fill="#ff9c0e" stroke="none" /><path d="M 104.9986988182912 120.39639698878246 l 2.7001981139009392 11.017729749581566 a32.3437841432711,32.3437841432711 0 0,0 -0.5403997086786562,0.12753285981604387 l -2.510666251482404 -11.062458753043835" fill="#ff1001" stroke="none" /><path d="M 104.64783097203109 120.47920084513623 l 4.901112847638652 21.595207522705564 a43.1443874400266,43.1443874400266 0 0,0 -0.7236702270629846,0.15772055778498764 l -4.529680203956532 -21.676159538624272" fill="#ffbe11" stroke="none" /><path d="M 104.29559338865022 120.5559693870025 l 3.6549580058338487 17.490297167607025 a38.868106028217184,38.868106028217184 0 0,0 -0.6542862896061955,0.13087558227748133 l -3.3541752306966943 -17.550462146547368" fill="#ff7b0b" stroke="none" /><path d="M 103.58742460773223 120.69131181640829 l 2.1823457093068725 12.587190115477865 a33.77497506056719,33.77497506056719 0 0,0 -0.5721199268031035,0.09414211623828213 l -1.9659482794506966 -12.622798230211817" fill="#ff2803" stroke="none" /><line stroke="#e1ed5e" stroke-width="0.3" x1="101.45913802915013" x2="101.54496967792366" y1="184.9874750549273" y2="189.98673829345242" /><path d="M 101.47630435890484 185.9873277026323 a86.0,86.0 0 0,1 -42.54439059252881,-10.42667462771756" fill="none" id="id55" stroke="none" /><text fill="#e1ed5e" style="font-size:6.75px; font-family:Arial;" text-anchor="middle"><textPath startOffset="22.145653131862474" xlink:href="#id55">July</textPath></text><line stroke="#e1ed5e" stroke-width="0.3" x1="58.13341422392154" x2="55.67067388415222" y1="173.97424548756322" y2="178.32567169271397" /><path d="M 57.64086615596768 174.84453072859336 a86.0,86.0 0 0,1 -31.369924170532247,-30.572349798747897" fill="none" id="id56" stroke="none" /><text fill="#e1ed5e" style="font-size:6.75px; font-family:Arial;" text-anchor="middle"><textPath startOffset="22.145653131862474" xlink:href="#id56">August</textPath></text><line stroke="#e1ed5e" stroke-width="0.3" x1="26.387840678322732" x2="22.057713659400548" y1="142.50000000000003" y2="145.00000000000006" /><path d="M 25.521815274538298 143.00000000000003 a86.0,86.0 0 0,1 -11.493303480769221,-40.785679425670985" fill="none" id="id57" stroke="none" /><text fill="#e1ed5e" style="font-size:6.75px; font-family:Arial;" text-anchor="middle"><textPath startOffset="21.40746469413373" xlink:href="#id57">September</textPath></text><line stroke="#e1ed5e" stroke-width="0.3" x1="15.003131293944662" x2="10.003315487706104" y1="100.72959589197737" y2="100.7725132973878" /><path d="M 14.003168132696942 100.73817937305945 a86.0,86.0 0 0,1 10.791469493833604,-42.45332614584628" fill="none" id="id58" stroke="none" /><text fill="#e1ed5e" style="font-size:6.75px; font-family:Arial;" text-anchor="middle"><textPath startOffset="22.145653131862435" xlink:href="#id58">October</textPath></text><line stroke="#e1ed5e" stroke-width="0.3" x1="26.387840678322718" x2="22.05771365940052" y1="57.49999999999999" y2="54.99999999999999" /><path d="M 25.521815274538284 56.99999999999999 a86.0,86.0 0 0,1 29.574782752854787,-30.34633250058573" fill="none" id="id59" stroke="none" /><text fill="#e1ed5e" style="font-size:6.75px; font-family:Arial;" text-anchor="middle"><textPath startOffset="21.40746469413373" xlink:href="#id59">November</textPath></text><line stroke="#e1ed5e" stroke-width="0.3" x1="56.869717070023135" x2="54.33264160355391" y1="26.7553504044142" y2="22.446841604673864" /><path d="M 56.362301976729285 25.89364864446614 a86.0,86.0 0 0,1 42.16139366436587,-11.88097634709845" fill="none" id="id60" stroke="none" /><text fill="#e1ed5e" style="font-size:6.75px; font-family:Arial;" text-anchor="middle"><textPath startOffset="22.145653131862474" xlink:href="#id60">December</textPath></text></svg>